<svg id="Layer_1" data-name="Layer 1" xmlns="http://www.w3.org/2000/svg" viewBox="0 0 113.83 150"><defs><style>.cls-1{fill:#fdb809;}</style></defs><title>lightbulb</title><rect class="cls-1" x="44.49" y="136.59" width="25.36" height="4.72" rx="1.82"/><path class="cls-1" d="M57.17,26a38,38,0,0,0-26.66,65.1c4.6,5.61,8.94,17.41,8.79,23.91a2.18,2.18,0,0,0,2.12,2.23h0a2.17,2.17,0,0,0,2.17-2.13c.18-7.62-4.51-20.43-9.85-26.87a1.22,1.22,0,0,0-.15-.17,33.66,33.66,0,1,1,47.07,0,1.22,1.22,0,0,0-.15.17c-4.85,5.85-9.17,17-9.79,24.65H65.46l9.79-36.84a1.85,1.85,0,0,0,0-.23,1.91,1.91,0,0,0,.06-.33.8.8,0,0,0,0-.15,1.72,1.72,0,0,0-.09-.44,1.63,1.63,0,0,0-.13-.37,1.56,1.56,0,0,0-.23-.34,1.34,1.34,0,0,0-.27-.31,1.94,1.94,0,0,0-.33-.23,1.87,1.87,0,0,0-.4-.2s-.08,0-.13-.06a1.37,1.37,0,0,0-.28,0,2.8,2.8,0,0,0-.28-.06c-.07,0-.13,0-.2,0l-.21,0c-2.56.29-3.57,3.12-4.31,5.24-.16.47-.38,1.11-.61,1.64-.22-.53-.44-1.17-.61-1.64-.77-2.24-1.84-5.3-4.71-5.3s-3.94,3.06-4.72,5.3c-.16.47-.39,1.11-.61,1.64-.22-.53-.45-1.17-.61-1.64-.77-2.24-1.84-5.3-4.71-5.3s-3.94,3.07-4.72,5.3c-.16.47-.39,1.11-.61,1.64-.22-.53-.44-1.17-.61-1.64-.77-2.24-1.83-5.3-4.71-5.3-.05,0-.08,0-.12,0a2.15,2.15,0,0,0-2.34,2.71l9.8,36.84H47.19a2.18,2.18,0,0,0,0,4.35H72.88A2.19,2.19,0,0,0,75.05,115c-.15-6.5,4.19-18.3,8.78-23.91A38,38,0,0,0,57.17,26ZM61,112.92H53L45.68,85.25a3.71,3.71,0,0,0,.84.11c2.88,0,3.94-3.06,4.72-5.29.16-.47.38-1.12.61-1.65.22.53.44,1.18.61,1.65.77,2.23,1.83,5.29,4.71,5.29s3.94-3.06,4.72-5.29c.16-.47.38-1.12.61-1.65.22.53.44,1.18.61,1.65.77,2.23,1.83,5.29,4.71,5.29a3.5,3.5,0,0,0,.48-.06Z"/><path class="cls-1" d="M78.89,64a2.17,2.17,0,1,0,4.34,0A26,26,0,0,0,63.64,38.79,2.17,2.17,0,0,0,62.56,43,21.71,21.71,0,0,1,78.89,64Z"/><path class="cls-1" d="M59.47,40.15A2.17,2.17,0,0,0,57.3,38h-.13a2.12,2.12,0,0,0-2.11,2.17,2.23,2.23,0,0,0,2.24,2.18A2.17,2.17,0,0,0,59.47,40.15Z"/><path class="cls-1" d="M69.32,120.22H45a6.36,6.36,0,0,0-6.36,6.36v.7A6.36,6.36,0,0,0,45,133.63H69.32a6.36,6.36,0,0,0,6.36-6.35v-.7A6.36,6.36,0,0,0,69.32,120.22Zm2,7.06a2,2,0,0,1-2,2H45a2,2,0,0,1-2-2v-.7a2,2,0,0,1,2-2H69.32a2,2,0,0,1,2,2Z"/><path class="cls-1" d="M68,136.59H46.31a6.17,6.17,0,0,0-6.17,6.16v1.09A6.18,6.18,0,0,0,46.31,150H68a6.17,6.17,0,0,0,6.16-6.16v-1.09A6.16,6.16,0,0,0,68,136.59Zm1.81,7.25A1.81,1.81,0,0,1,68,145.65H46.31a1.82,1.82,0,0,1-1.82-1.81v-1.09a1.82,1.82,0,0,1,1.82-1.81H68a1.81,1.81,0,0,1,1.81,1.81Z"/><path class="cls-1" d="M57.17,22.1a2.19,2.19,0,0,0,2.18-2.18V2.17a2.18,2.18,0,0,0-4.35,0V19.92A2.18,2.18,0,0,0,57.17,22.1Z"/><path class="cls-1" d="M32.6,27.54a2.16,2.16,0,0,0,1.88,1.09,2.18,2.18,0,0,0,1.88-3.27L27.49,10a2.18,2.18,0,0,0-3.77,2.18Z"/><path class="cls-1" d="M18.07,40.67,3.26,32.12a2.17,2.17,0,1,0-2.17,3.77L15.9,44.44a2.21,2.21,0,0,0,1.08.29,2.17,2.17,0,0,0,1.09-4.06Z"/><path class="cls-1" d="M79.15,27.69a2.28,2.28,0,0,0,1.09.29,2.16,2.16,0,0,0,1.88-1.09L91,11.52a2.18,2.18,0,0,0-3.77-2.18L78.36,24.72A2.17,2.17,0,0,0,79.15,27.69Z"/><path class="cls-1" d="M113.54,33.21a2.18,2.18,0,0,0-3-.79L95.2,41.29a2.17,2.17,0,0,0,1.09,4.06,2.11,2.11,0,0,0,1.08-.29l15.38-8.88A2.17,2.17,0,0,0,113.54,33.21Z"/></svg>