<svg width="141" height="54" viewBox="0 0 141 54" fill="none" xmlns="http://www.w3.org/2000/svg">
<path d="M39.1435 22.1309C35.9268 22.1309 33.8586 23.468 32.7876 25.156C32.6611 25.3491 32.5943 25.5752 32.5955 25.8061C32.5955 26.1 32.7123 26.3818 32.9201 26.5896C33.1278 26.7974 33.4096 26.9142 33.7035 26.9142C33.9001 26.9095 34.0928 26.8586 34.266 26.7655C34.4393 26.6725 34.5882 26.5399 34.7006 26.3786C35.8861 25.0378 37.1123 24.4283 39.1324 24.4283C41.9281 24.4283 43.6491 26.0351 43.6491 28.6391V29.6733H38.2719C34.1356 29.6733 31.5688 31.7012 31.5688 35.0735C31.5688 38.5936 34.1541 40.5475 38.1944 40.5475C40.4878 40.5475 42.7037 39.5909 43.6602 37.792V39.1698C43.6772 39.4733 43.8096 39.7588 44.0304 39.9676C44.2513 40.1765 44.5436 40.2929 44.8476 40.2929C45.1515 40.2929 45.4439 40.1765 45.6647 39.9676C45.8855 39.7588 46.018 39.4733 46.0349 39.1698V28.6391C46.0275 24.7312 43.5864 22.1309 39.1435 22.1309ZM43.6602 33.4261C43.6602 36.6802 41.0972 38.3276 38.4159 38.3276C35.4319 38.3276 34.0506 37.0644 34.0506 35.0735C34.0506 32.8573 35.7753 31.8157 38.2645 31.8157H43.6602V33.4261Z" fill="#53555F"/>
<path d="M26.5462 12.7853C26.3848 12.7833 26.2247 12.8137 26.0752 12.8747C25.9258 12.9356 25.79 13.0259 25.6761 13.1403C25.5621 13.2546 25.4722 13.3906 25.4117 13.5403C25.3512 13.6899 25.3213 13.8502 25.3238 14.0116V24.6051C24.7057 23.8177 23.9143 23.1837 23.011 22.7526C22.1078 22.3214 21.1172 22.1046 20.1164 22.1192C15.175 22.1303 12.4199 25.0372 12.4199 31.3202C12.4199 37.6031 15.3301 40.5543 20.2679 40.5543C24.6332 40.5543 27.7723 38.0648 27.7723 33.0119V14.0116C27.7748 13.8499 27.7448 13.6893 27.6841 13.5394C27.6234 13.3895 27.5331 13.2533 27.4188 13.1389C27.3044 13.0245 27.1683 12.9343 27.0184 12.8736C26.8685 12.8128 26.7079 12.7828 26.5462 12.7853ZM25.3238 33.0045C25.3238 36.6427 23.215 38.3271 20.2679 38.3271C16.7446 38.3271 14.8685 36.1109 14.8685 31.3091C14.8685 26.5959 16.7852 24.3391 20.2679 24.3391C23.8687 24.3391 25.3238 27.7077 25.3238 27.7077V33.0045Z" fill="#53555F"/>
<path d="M56.5274 24.9742C56.832 24.9742 57.1241 24.8532 57.3395 24.6378C57.5549 24.4224 57.676 24.1302 57.676 23.8255C57.676 23.5209 57.5549 23.2287 57.3395 23.0132C57.1241 22.7978 56.832 22.6768 56.5274 22.6768H54.0382V18.6433C54.0363 18.3187 53.9065 18.0079 53.6769 17.7783C53.4474 17.5488 53.1367 17.4189 52.8121 17.417C52.4898 17.4263 52.1833 17.5585 51.9554 17.7865C51.7274 18.0145 51.5952 18.321 51.586 18.6433V22.6657H50.1087C49.8026 22.6633 49.5081 22.7825 49.2899 22.9973C49.0717 23.212 48.9478 23.5046 48.9453 23.8107C48.9429 24.1169 49.0621 24.4114 49.2769 24.6296C49.4916 24.8478 49.7841 24.9718 50.0902 24.9742H51.5675V35.5308C51.5675 38.3269 53.2146 40.3547 56.2393 40.3547C56.5439 40.3547 56.8361 40.2337 57.0515 40.0183C57.2669 39.8028 57.3879 39.5106 57.3879 39.206C57.3879 38.9013 57.2669 38.6091 57.0515 38.3937C56.8361 38.1783 56.5439 38.0572 56.2393 38.0572C54.9393 38.0572 54.0234 37.1782 54.0234 35.5308V24.9742H56.5274Z" fill="#53555F"/>
<path d="M67.7065 22.1309C64.4898 22.1309 62.4217 23.468 61.3506 25.156C61.2241 25.3491 61.1573 25.5752 61.1586 25.8061C61.1586 26.1 61.2753 26.3818 61.4831 26.5896C61.6909 26.7974 61.9727 26.9142 62.2665 26.9142C62.4626 26.9095 62.6548 26.8585 62.8275 26.7655C63.0001 26.6724 63.1483 26.5398 63.26 26.3786C64.4492 25.0378 65.6716 24.4283 67.6918 24.4283C70.4875 24.4283 72.2085 26.0351 72.2085 28.6391V29.6733H66.8239C62.6912 29.6733 60.1245 31.7012 60.1245 35.0735C60.1245 38.5936 62.7097 40.5475 66.75 40.5475C69.0472 40.5475 71.2667 39.5909 72.2233 37.792V39.1698C72.2402 39.4733 72.3727 39.7588 72.5935 39.9676C72.8143 40.1765 73.1067 40.2929 73.4106 40.2929C73.7145 40.2929 74.0069 40.1765 74.2277 39.9676C74.4486 39.7588 74.581 39.4733 74.598 39.1698V28.6391C74.598 24.7312 72.1457 22.1309 67.7065 22.1309ZM72.2233 33.4261C72.2233 36.6802 69.6602 38.3276 66.979 38.3276C63.9912 38.3276 62.6137 37.0644 62.6137 35.0735C62.6137 32.8573 64.3384 31.8157 66.8239 31.8157H72.2233V33.4261Z" fill="#53555F"/>
<path d="M128.581 29.5958C128.581 27.0102 127.395 22.1309 121.268 22.1309C116.294 22.1309 113.383 25.4219 113.383 31.3207C113.383 37.7514 116.559 40.5549 121.652 40.5549C125.061 40.5549 127.052 38.9851 127.624 38.4089C127.754 38.3028 127.859 38.1693 127.932 38.018C128.005 37.8668 128.043 37.7013 128.045 37.5335C128.045 37.2396 127.928 36.9577 127.721 36.7499C127.513 36.5421 127.231 36.4254 126.937 36.4254C126.687 36.4192 126.442 36.5016 126.247 36.6581C124.955 37.7236 123.327 38.2957 121.652 38.2722C118.055 38.2722 115.872 35.8233 115.872 32.0336H127.052C128.581 32.0484 128.581 30.7076 128.581 29.5958ZM115.872 29.9023C116.101 26.4931 117.937 24.3618 121.268 24.3618C125.212 24.3618 126.169 27.1579 126.169 29.9023H115.872Z" fill="#FDB809"/>
<path d="M91.0838 36.4259C90.8136 36.4264 90.5521 36.5219 90.3452 36.6956C89.4662 37.3457 88.1293 38.3429 85.9134 38.3429C82.3901 38.3429 80.514 36.1267 80.514 31.325C80.514 26.6118 82.3901 24.355 85.9134 24.355C88.4395 24.355 89.4736 25.5037 90.046 26.1538C90.1528 26.2967 90.2917 26.4126 90.4514 26.4922C90.6111 26.5717 90.7872 26.6127 90.9656 26.6118C91.1119 26.6149 91.2574 26.5883 91.3931 26.5336C91.5289 26.479 91.6523 26.3975 91.7558 26.294C91.8593 26.1905 91.9408 26.0671 91.9954 25.9313C92.05 25.7955 92.0766 25.6501 92.0736 25.5037C92.0743 25.2333 91.9788 24.9714 91.804 24.765C91.1909 23.9228 89.3148 22.124 85.8949 22.124C80.9535 22.124 78.0063 25.0309 78.0063 31.3139C78.0063 37.5968 80.9609 40.5481 85.8949 40.5481C88.0085 40.5817 90.0623 39.8467 91.6747 38.4796C91.8329 38.3761 91.964 38.2363 92.0571 38.0718C92.1503 37.9073 92.2028 37.7229 92.2102 37.534C92.2102 37.3869 92.181 37.2413 92.1241 37.1057C92.0673 36.97 91.984 36.847 91.8792 36.7439C91.7743 36.6407 91.65 36.5595 91.5135 36.5049C91.3769 36.4503 91.2308 36.4235 91.0838 36.4259Z" fill="#FDB809"/>
<path d="M108.748 22.3596C108.585 22.3566 108.423 22.386 108.271 22.4459C108.119 22.5058 107.98 22.5951 107.863 22.7087C107.746 22.8222 107.652 22.9579 107.587 23.1078C107.522 23.2577 107.488 23.4189 107.485 23.5822V33.5773C107.485 36.0668 106.684 38.2128 102.813 38.2128C98.9429 38.2128 98.1452 36.0557 98.1452 33.5773V23.5822C98.1423 23.2582 98.0121 22.9483 97.7827 22.7196C97.5532 22.4908 97.243 22.3615 96.9191 22.3596C96.7577 22.3571 96.5974 22.387 96.4478 22.4475C96.2982 22.508 96.1622 22.5979 96.0479 22.7119C95.9336 22.8259 95.8433 22.9616 95.7823 23.1111C95.7214 23.2606 95.691 23.4208 95.693 23.5822V33.5773C95.693 37.2155 96.9191 40.5472 102.813 40.5472C108.708 40.5472 109.937 37.2229 109.937 33.5773V23.5822C109.94 23.4236 109.912 23.266 109.854 23.1185C109.795 22.9711 109.708 22.8366 109.598 22.7229C109.487 22.6092 109.355 22.5186 109.209 22.4562C109.064 22.3939 108.907 22.361 108.748 22.3596Z" fill="#FDB809"/>
</svg>
