<svg id="Layer_1" data-name="Layer 1" xmlns="http://www.w3.org/2000/svg" viewBox="0 0 146.12 150"><defs><style>.cls-1{fill:#fdb809;}</style></defs><title>need-help</title><path class="cls-1" d="M57.72,66.13a8.51,8.51,0,0,1-6.16-2.53A16.16,16.16,0,0,1,46.5,51.92c0-9,7.1-13.56,13.37-17.56C65.2,31,69.79,28,69.79,23.1c0-5.91-5.45-7.15-10-7.15-4.2,0-9.2,1.38-9.2,8a8.69,8.69,0,1,1-17.38,0C33.18,9.17,43.36,0,59.76,0c17,0,27.18,8.64,27.18,23.1,0,13.21-9.59,18.75-16.59,22.79C67.24,47.69,64,49.55,64,51.08c0,.3.06.59.82,1.68a8.45,8.45,0,0,1,1.46,4.8A8.59,8.59,0,0,1,57.72,66.13Zm2-54.36C68.66,11.77,74,16,74,23.1S68,34.18,62.12,37.89s-11.44,7.28-11.44,14a11.84,11.84,0,0,0,3.81,8.7A4.35,4.35,0,0,0,57.72,62a4.41,4.41,0,0,0,4.39-4.39,4.25,4.25,0,0,0-.73-2.44,6.83,6.83,0,0,1-1.55-4c0-3.94,3.91-6.2,8.43-8.81,6.46-3.73,14.5-8.37,14.5-19.17,0-12.2-8.17-18.92-23-18.92-14.24,0-22.4,7.2-22.4,19.76a4.51,4.51,0,1,0,9,0C46.38,16.43,51.51,11.77,59.76,11.77Z"/><path class="cls-1" d="M96.23,133.39a2.09,2.09,0,1,0-1,4.05,32.06,32.06,0,0,1,8.27,4,2.07,2.07,0,0,0,1.44.58,2.09,2.09,0,0,0,1.44-3.61A33.86,33.86,0,0,0,96.23,133.39Z"/><path class="cls-1" d="M146.08,121.42a2,2,0,0,0-1.2-1.67,222.68,222.68,0,0,1-30.16-17.33c-.12-.08-11.72-8.07-15.44-11.35-4.55-4-16.89-1.29-20-.34l-.11,0a80.73,80.73,0,0,1-19,3.88c-9.77.88-14.86,1.84-17.4,4.91A7.05,7.05,0,0,0,41.39,105c1,10.15,12.6,10.36,21.22,9.64,12.23-1,17.66-.17,18.33,0a3.05,3.05,0,0,1,.37,1.52,3.11,3.11,0,0,1-.21,1.32c-.35,0-.84-.1-1.32-.19l-.13,0-.33,0a41.34,41.34,0,0,0-5.88-.25c-3.13,0-6.7.16-10.59.49-2,.17-3.87.25-5.58.25-11.56,0-17.84-4.17-18.66-12.39a11.34,11.34,0,0,1,.8-5.61,2.09,2.09,0,0,0-1.12-2.73L15.16,87.15C11.68,85.53,4.32,84.28,1,91.06c-3.08,6.38,1.37,11.26,4.22,13C15.2,111.14,41.32,129.91,44,132.4c3.52,3.33,6.84,6.49,10.71,5.76,5.14-1,25.58-4,32.71-2.78a2.09,2.09,0,1,0,.71-4.12c-9.2-1.57-33.95,2.75-34.2,2.79-1.76.33-4.45-2.22-7.06-4.69-3.38-3.2-37.73-27.72-39.19-28.76l-.15-.09c-.2-.12-4.91-3-2.67-7.63s8-2.22,8.61-1.93l.08,0,21.37,9a15.9,15.9,0,0,0-.42,5.66c.6,6,4.37,16.15,22.82,16.15,1.82,0,3.81-.09,5.92-.26,3.79-.32,7.23-.48,10.25-.48a36.8,36.8,0,0,1,5.36.22l.29,0a18.52,18.52,0,0,0,2.41.28l.3,0c2.22-.32,3.67-2.42,3.7-5.35s-1.48-5.4-3.67-5.78c-.65-.13-6.32-1.13-19.57,0-16,1.34-16.48-3.54-16.71-5.88a2.88,2.88,0,0,1,.52-2.31c1.74-2.1,7.87-2.81,14.55-3.41a84,84,0,0,0,20-4.11c4.93-1.52,13.74-2.4,15.89-.5,3.91,3.44,15.35,11.32,15.81,11.64A223.79,223.79,0,0,0,141.92,123c-.15,2.34-1.22,8-7.57,14.26a29.66,29.66,0,0,1-17.83,8.59,2.09,2.09,0,0,0,.07,4.18h.06c.45,0,11.09-.43,20.63-9.79S146.12,121.8,146.08,121.42Z"/><path class="cls-1" d="M110,143.09a2,2,0,1,0,2,2A2,2,0,0,0,110,143.09Z"/><path class="cls-1" d="M57.24,69.57c-6.44,0-10.14,3.6-10.14,9.89a2.1,2.1,0,0,0,4.19,0c0-4,1.78-5.71,6-5.71,4,0,5.71,1.71,5.71,5.71s-1.76,5.84-5.71,5.84a2.09,2.09,0,1,0,0,4.18c6.29,0,9.89-3.65,9.89-10S63.53,69.57,57.24,69.57Z"/><path class="cls-1" d="M51.66,83.67a2,2,0,1,0,2,2A2,2,0,0,0,51.66,83.67Z"/></svg>