<svg xmlns="http://www.w3.org/2000/svg" viewBox="0 0 100 100">
  <path d="M90.33 55.16L100 50a51 51 0 0 0-2-13.57l-11.21-1.57A4.85 4.85 0 0 1 83 28.23l4.49-11.16a50.4 50.4 0 0 0-9.8-8.64L67.35 15a4.8 4.8 0 0 1-7.14-2.62L56.4.43a47.84 47.84 0 0 0-12.8 0l-3.81 11.93A4.8 4.8 0 0 1 32.65 15L22.32 8.43a50.4 50.4 0 0 0-9.8 8.64L17 28.23a4.85 4.85 0 0 1-3.8 6.63L2 36.43A51 51 0 0 0 0 50l9.67 5.16A4.87 4.87 0 0 1 11 62.7l-6.94 7.73a50.78 50.78 0 0 0 7.42 12.22l9.72-2.1a4.81 4.81 0 0 1 5.8 4.92l-.35 9.63a49.28 49.28 0 0 0 13.79 4.9l5.76-7.48a4.79 4.79 0 0 1 7.6 0l5.76 7.48a49.28 49.28 0 0 0 13.78-4.9L73 85.47a4.81 4.81 0 0 1 5.81-4.92l9.72 2.1a50.78 50.78 0 0 0 7.42-12.22L89 62.7a4.87 4.87 0 0 1 1.33-7.54zM50 74.67A24.67 24.67 0 1 1 74.67 50 24.68 24.68 0 0 1 50 74.67z"/>
</svg>
