<svg xmlns="http://www.w3.org/2000/svg" viewBox="0 0 100 100">
  <rect x="64.72" y="34.86" width="15" height="15" rx="7.5"/>
  <rect x="46.99" y="19.44" width="15" height="15" rx="7.5" transform="rotate(-60 54.488101 26.94384067)"/>
  <rect x="24.77" y="27.08" width="15" height="15" rx="7.5" transform="rotate(-120 32.27204924 34.58105702)"/>
  <rect x="20.28" y="50.14" width="15" height="15" rx="7.5" transform="rotate(180 27.785 57.645)"/>
  <path d="M100 50a50 50 0 1 0-50 50c1 0 2.06 0 3.08-.1l1.64-.13h.39a6 6 0 0 0 4.12-7.42l-4.78-16.7a4.13 4.13 0 0 1 1.08-3.9 7.18 7.18 0 0 1 4.47-2.3 8.06 8.06 0 0 1 1-.06l31 .23A6 6 0 0 0 97 67c.4-1.09.74-2.2 1.06-3.32v-.05A49.64 49.64 0 0 0 100 50zm-41.41 7.53a19.12 19.12 0 0 0-12 6.13 16.12 16.12 0 0 0-3.68 15.21l2.54 8.84a38 38 0 1 1 41.8-30.13l-26.15-.19a23 23 0 0 0-2.51.14z"/>
</svg>
