<?xml version="1.0" standalone="no"?>
<!DOCTYPE svg PUBLIC "-//W3C//DTD SVG 20010904//EN"
 "http://www.w3.org/TR/2001/REC-SVG-20010904/DTD/svg10.dtd">
<svg version="1.0" xmlns="http://www.w3.org/2000/svg"
 width="310.000000pt" height="310.000000pt" viewBox="0 0 310.000000 310.000000"
 preserveAspectRatio="xMidYMid meet">
<metadata>
Created by potrace 1.11, written by Peter Selinger 2001-2013
</metadata>
<g transform="translate(0.000000,310.000000) scale(0.100000,-0.100000)"
fill="#000000" stroke="none">
<path d="M0 1550 l0 -1550 1550 0 1550 0 0 1550 0 1550 -1550 0 -1550 0 0
-1550z m1407 1210 c21 -12 36 -32 43 -57 8 -27 10 -277 8 -868 -3 -752 -5
-836 -21 -890 -62 -212 -205 -352 -410 -399 -149 -35 -372 -15 -488 43 -216
108 -329 344 -329 686 1 488 214 745 618 745 144 0 272 -47 374 -138 l48 -44
0 414 c0 259 4 427 11 451 7 26 21 44 42 57 40 25 64 25 104 0z m1143 -761
c95 -19 213 -81 280 -148 56 -55 60 -63 60 -104 0 -37 -5 -49 -26 -66 -44 -34
-78 -27 -137 28 -112 105 -200 136 -358 129 -81 -4 -107 -10 -162 -35 -114
-54 -183 -146 -223 -298 -25 -96 -25 -359 -1 -458 37 -150 105 -245 215 -299
61 -30 76 -33 179 -37 143 -4 215 16 334 94 90 59 105 63 148 40 54 -27 58
-95 9 -142 -121 -113 -275 -168 -473 -167 -198 0 -329 48 -441 160 -108 108
-166 256 -183 473 -24 297 42 545 182 684 140 139 357 192 597 146z"/>
<path d="M743 1825 c-224 -49 -326 -223 -325 -554 0 -223 40 -355 134 -450 51
-51 93 -74 175 -95 108 -28 238 -15 335 35 85 43 154 140 177 247 6 31 11 157
11 308 0 291 2 282 -88 377 -67 70 -137 111 -223 132 -77 18 -114 18 -196 0z"/>
</g>
</svg>
