<svg id="Layer_1" data-name="Layer 1" xmlns="http://www.w3.org/2000/svg" viewBox="0 0 148.33 110.96"><defs><style>.cls-1{fill:#fef4e5;}.cls-2,.cls-4{fill:none;stroke:#bdc1c6;stroke-linecap:round;stroke-linejoin:round;}.cls-2{stroke-width:3px;stroke-dasharray:4 6;}.cls-3{fill:#bdc1c6;}</style></defs><title>arrows-layout-1</title><circle class="cls-1" cx="74.67" cy="80.94" r="30.02"/><path class="cls-2" d="M112.72,1.5S142.61,40.29,113,71c-16.75,17.37-47.58,16.5-57.68-3.49C45.67,48.35,71.43,29.22,86.05,42.94c21.78,20.45-.17,76.31-76.56,38.17"/><polygon class="cls-3" points="14.94 75.42 0 76.03 8 88.67 14.94 75.42"/><path class="cls-4" d="M128.94,71.4S155,49.3,140.72,18.76"/><circle class="cls-4" cx="122.72" cy="76.48" r="3.75"/><circle class="cls-4" cx="144.08" cy="68.82" r="3.75"/><circle class="cls-1" cx="74.67" cy="80.94" r="30.02"/><path class="cls-3" d="M56,95.62a1.5,1.5,0,0,1,0-3c1.31,0,2.62-.06,3.89-.15a1.5,1.5,0,0,1,.22,3c-1.34.1-2.72.15-4.1.16Zm-6-.26H49.9c-1.33-.12-2.7-.27-4-.47a1.5,1.5,0,0,1-1.28-1.69,1.52,1.52,0,0,1,1.7-1.28c1.3.19,2.61.34,3.89.45a1.5,1.5,0,0,1-.13,3ZM66,94.68a1.48,1.48,0,0,1-1.47-1.21,1.5,1.5,0,0,1,1.18-1.76c1.28-.25,2.54-.55,3.76-.9a1.5,1.5,0,0,1,.83,2.88c-1.3.38-2.65.7-4,1A1.32,1.32,0,0,1,66,94.68Zm-25.81-.83a1.1,1.1,0,0,1-.31,0c-1.3-.27-2.63-.59-4-.93A1.5,1.5,0,0,1,36.63,90c1.29.34,2.58.64,3.84.91a1.5,1.5,0,0,1-.32,3Zm35.31-2.19a1.5,1.5,0,0,1-.64-2.86A34,34,0,0,0,78.2,87a1.5,1.5,0,1,1,1.56,2.56,39,39,0,0,1-3.67,2A1.6,1.6,0,0,1,75.46,91.66Zm-45-.39A1.47,1.47,0,0,1,30,91.2q-1.89-.6-3.84-1.29a1.5,1.5,0,0,1,1-2.83c1.26.45,2.51.87,3.74,1.26a1.5,1.5,0,0,1,1,1.88A1.52,1.52,0,0,1,30.5,91.27Zm-9.4-3.41a1.63,1.63,0,0,1-.57-.1c-1.22-.5-2.46-1-3.72-1.57A1.5,1.5,0,1,1,18,83.44c1.23.54,2.45,1,3.65,1.53a1.5,1.5,0,0,1-.56,2.89Zm62.7-1.64a1.48,1.48,0,0,1-1.12-.5,1.45,1.45,0,0,1-.38-1h-.15c-1.39-.06-2.78-.18-4.14-.37a1.5,1.5,0,1,1,.42-3,37.07,37.07,0,0,0,3.83.34,1.49,1.49,0,0,1,1.38,1.06c.64-.62,1.25-1.26,1.83-1.93a1.51,1.51,0,0,1,2.12-.15,1.54,1.54,0,0,1,.47.79c1.26-.15,2.53-.35,3.77-.61a1.5,1.5,0,1,1,.62,2.93,41,41,0,0,1-4.09.66,1.47,1.47,0,0,1-1.46-.73c-.67.72-1.37,1.4-2.11,2.06A1.5,1.5,0,0,1,83.8,86.22ZM12,83.81a1.48,1.48,0,0,1-.64-.14L8.82,82.45a1.5,1.5,0,1,1,1.35-2.68c.82.41,1.63.81,2.43,1.19A1.5,1.5,0,0,1,12,83.81Zm60.42-.73a1.76,1.76,0,0,1-.45-.07A33.9,33.9,0,0,1,68,81.49a1.5,1.5,0,1,1,1.25-2.72,31.21,31.21,0,0,0,3.56,1.38,1.5,1.5,0,0,1-.46,2.93Zm25.54-.85a1.48,1.48,0,0,1-1.41-1,1.5,1.5,0,0,1,.89-1.93c1.21-.44,2.4-.94,3.55-1.49a1.5,1.5,0,1,1,1.3,2.7,40.06,40.06,0,0,1-3.82,1.61A1.52,1.52,0,0,1,97.91,82.23ZM63.48,78.59a1.43,1.43,0,0,1-.88-.29,30.2,30.2,0,0,1-3.21-2.73,1.5,1.5,0,0,1,2.11-2.14,27.14,27.14,0,0,0,2.87,2.46,1.5,1.5,0,0,1-.89,2.7Zm26.59-.1a1.42,1.42,0,0,1-.74-.2,1.49,1.49,0,0,1-.56-2,30.81,30.81,0,0,0,1.66-3.42A1.5,1.5,0,0,1,93.21,74a33.79,33.79,0,0,1-1.84,3.78A1.49,1.49,0,0,1,90.07,78.49Zm16.72-.79A1.5,1.5,0,0,1,106,75,36.85,36.85,0,0,0,109,72.64,1.51,1.51,0,0,1,111,75c-1.06.87-2.17,1.71-3.32,2.49A1.46,1.46,0,0,1,106.79,77.7Zm-50.1-6.36a1.5,1.5,0,0,1-1.27-.69A27.8,27.8,0,0,1,54,68.15c-.21-.41-.4-.82-.58-1.23a1.5,1.5,0,1,1,2.76-1.19c.15.35.32.71.5,1.07.39.77.82,1.52,1.27,2.24a1.49,1.49,0,0,1-.46,2.07A1.48,1.48,0,0,1,56.69,71.34Zm57.59-.23a1.47,1.47,0,0,1-1-.38,1.49,1.49,0,0,1-.11-2.12c.87-1,1.71-2,2.49-3A1.5,1.5,0,1,1,118,67.46c-.82,1.07-1.71,2.13-2.63,3.16A1.5,1.5,0,0,1,114.28,71.11Zm-20.77-2-.28,0A1.5,1.5,0,0,1,92,67.37a29.68,29.68,0,0,0,.45-3.76,1.49,1.49,0,0,1,1.58-1.42,1.5,1.5,0,0,1,1.42,1.57A32.3,32.3,0,0,1,95,67.93,1.49,1.49,0,0,1,93.51,69.15Zm26.69-6.07a1.51,1.51,0,0,1-1.3-2.26c.65-1.12,1.26-2.27,1.8-3.42a1.5,1.5,0,0,1,2.71,1.27,41.18,41.18,0,0,1-1.92,3.66A1.5,1.5,0,0,1,120.2,63.08ZM53.3,62a1.5,1.5,0,0,1-1.49-1.36c-.06-.6-.09-1.19-.09-1.78a19.74,19.74,0,0,1,.17-2.55,1.5,1.5,0,0,1,3,.39,15.68,15.68,0,0,0-.15,2.16c0,.49,0,1,.07,1.5A1.49,1.49,0,0,1,53.44,62Zm40.38-2.83a1.51,1.51,0,0,1-1.48-1.27,26.58,26.58,0,0,0-.85-3.68,1.5,1.5,0,1,1,2.86-.89,28.2,28.2,0,0,1,1,4.11,1.5,1.5,0,0,1-1.24,1.71Zm30.53-5.27a1.67,1.67,0,0,1-.44-.06,1.5,1.5,0,0,1-1-1.87,37.94,37.94,0,0,0,1-3.74,1.5,1.5,0,1,1,2.94.6,40.61,40.61,0,0,1-1,4A1.48,1.48,0,0,1,124.21,53.94ZM55.1,52.33a1.51,1.51,0,0,1-1.36-2.15A22.54,22.54,0,0,1,56,46.52a1.5,1.5,0,0,1,2.42,1.78,19.63,19.63,0,0,0-1.92,3.18A1.51,1.51,0,0,1,55.1,52.33Zm35.26-2.49a1.51,1.51,0,0,1-1.29-.74A23.53,23.53,0,0,0,86.91,46a1.5,1.5,0,1,1,2.3-1.92,24.62,24.62,0,0,1,2.44,3.47,1.5,1.5,0,0,1-1.29,2.26Zm-29-5.24a1.5,1.5,0,0,1-.94-2.67,25.05,25.05,0,0,1,3.54-2.36,1.5,1.5,0,0,1,1.44,2.64,21.82,21.82,0,0,0-3.11,2.07A1.5,1.5,0,0,1,61.32,44.6ZM126,44.13h-.1a1.48,1.48,0,0,1-1.39-1.59c.06-1,.09-2,.09-3,0-.29,0-.58,0-.87a1.51,1.51,0,0,1,1.48-1.53h0a1.49,1.49,0,0,1,1.49,1.47c0,.31,0,.62,0,.93,0,1.06,0,2.14-.1,3.2A1.5,1.5,0,0,1,126,44.13ZM83.65,42.54a1.49,1.49,0,0,1-.83-.25,15.14,15.14,0,0,0-3.24-1.63,1.5,1.5,0,1,1,1-2.82,18.35,18.35,0,0,1,3.89,1.94,1.51,1.51,0,0,1-.83,2.76ZM70.23,40.26a1.5,1.5,0,0,1-.33-3,21,21,0,0,1,4.28-.51,1.51,1.51,0,0,1,1.51,1.49,1.49,1.49,0,0,1-1.48,1.51,17.66,17.66,0,0,0-3.65.44A1.24,1.24,0,0,1,70.23,40.26Zm55.39-6.11a1.5,1.5,0,0,1-1.49-1.3c-.17-1.26-.39-2.55-.66-3.84a1.49,1.49,0,0,1,1.16-1.77,1.51,1.51,0,0,1,1.78,1.16c.28,1.35.51,2.71.69,4.05a1.5,1.5,0,0,1-1.28,1.69Zm-2.19-9.75a1.51,1.51,0,0,1-1.44-1c-.38-1.24-.81-2.48-1.26-3.71a1.5,1.5,0,1,1,2.8-1.05c.48,1.28.93,2.58,1.33,3.87a1.49,1.49,0,0,1-1,1.87A1.39,1.39,0,0,1,123.43,24.4Zm-3.63-9.32a1.49,1.49,0,0,1-1.36-.86c-.55-1.17-1.14-2.35-1.76-3.51a1.5,1.5,0,0,1,2.65-1.41c.65,1.21,1.26,2.44,1.83,3.65a1.5,1.5,0,0,1-.73,2A1.41,1.41,0,0,1,119.8,15.08ZM115,6.31a1.5,1.5,0,0,1-1.27-.69c-1.29-2-2.18-3.19-2.19-3.2A1.5,1.5,0,0,1,113.91.58c0,.06,1,1.27,2.34,3.43a1.49,1.49,0,0,1-.46,2.07A1.46,1.46,0,0,1,115,6.31Z"/><polygon class="cls-3" points="14.94 75.42 0 76.03 8 88.67 14.94 75.42"/><path class="cls-3" d="M128.94,71.89a.49.49,0,0,1-.39-.17.52.52,0,0,1,.06-.71c.26-.21,25.6-22.21,11.65-52a.5.5,0,0,1,.91-.43c14.27,30.54-11.65,53-11.91,53.24A.48.48,0,0,1,128.94,71.89Z"/><path class="cls-3" d="M122.71,80.73a4.25,4.25,0,1,1,3.7-2.15A4.27,4.27,0,0,1,122.71,80.73Zm0-7.5a3.13,3.13,0,0,0-.86.12,3.22,3.22,0,0,0-2,1.53,3.23,3.23,0,1,0,2.83-1.65Z"/><path class="cls-3" d="M144.07,73.07a4.25,4.25,0,1,1,2.11-7.94,4.23,4.23,0,0,1,1.59,5.79h0A4.24,4.24,0,0,1,144.07,73.07Zm0-7.5a3.25,3.25,0,1,0,2.82,4.86h0a3.25,3.25,0,0,0-2.82-4.86Z"/></svg>