<svg id="Layer_1" data-name="Layer 1" xmlns="http://www.w3.org/2000/svg" viewBox="0 0 290.58 280.91"><defs><style>.cls-1{fill:#fef4e5;}.cls-2{fill:#bdc1c6;}</style></defs><title>arrows-layout-3-4-5</title><circle class="cls-1" cx="41.92" cy="23.63" r="18.59"/><path class="cls-2" d="M30.47,73.75a1.49,1.49,0,0,1-1.34-.82c-.33-.65-.65-1.29-.94-1.94a1.5,1.5,0,0,1,2.72-1.26c.28.61.58,1.22.89,1.84a1.49,1.49,0,0,1-.65,2A1.4,1.4,0,0,1,30.47,73.75Zm-3.12-7.47a1.51,1.51,0,0,1-1.43-1c-.43-1.3-.81-2.63-1.13-4a1.5,1.5,0,1,1,2.92-.7c.3,1.25.66,2.5,1.06,3.73a1.5,1.5,0,0,1-.95,1.89A1.58,1.58,0,0,1,27.35,66.28Zm-2.17-9.74a1.49,1.49,0,0,1-1.48-1.33c-.17-1.35-.28-2.73-.33-4.1a1.51,1.51,0,0,1,1.44-1.56A1.53,1.53,0,0,1,26.37,51c.05,1.29.15,2.6.3,3.87a1.5,1.5,0,0,1-1.31,1.67Zm-.21-10h-.11A1.5,1.5,0,0,1,23.47,45c.1-1.35.25-2.72.45-4.09a1.5,1.5,0,0,1,3,.44c-.19,1.29-.33,2.59-.43,3.86A1.5,1.5,0,0,1,25,46.56Zm1.6-9.86a1.57,1.57,0,0,1-.37-.05,1.51,1.51,0,0,1-1.09-1.82c.33-1.31.7-2.63,1.12-3.94a1.5,1.5,0,0,1,2.86.91c-.4,1.25-.76,2.51-1.07,3.76A1.5,1.5,0,0,1,26.57,36.7Zm3.16-9.49a1.49,1.49,0,0,1-.58-.11,1.51,1.51,0,0,1-.8-2c.52-1.25,1.09-2.5,1.69-3.72a1.5,1.5,0,1,1,2.69,1.32c-.57,1.17-1.11,2.37-1.62,3.56A1.48,1.48,0,0,1,29.73,27.21Zm4.53-8.91a1.46,1.46,0,0,1-.78-.22A1.5,1.5,0,0,1,33,16c1.34-2.2,2.27-3.43,2.31-3.48a1.5,1.5,0,0,1,2.38,1.82s-.88,1.17-2.12,3.21A1.5,1.5,0,0,1,34.26,18.3Z"/><polygon class="cls-2" points="23.09 74.2 36.23 81.34 35.85 66.39 23.09 74.2"/><path class="cls-2" d="M18.06,52a.5.5,0,0,1-.45-.28C7.24,30.47,20.09,6.37,20.22,6.13a.5.5,0,0,1,.88.48C21,6.85,8.36,30.5,18.51,51.28a.5.5,0,0,1-.23.67A.42.42,0,0,1,18.06,52Z"/><path class="cls-2" d="M5.26,53.56a5.46,5.46,0,0,1-.57,0,4.2,4.2,0,1,1,.57,0Zm0-7.51a3.24,3.24,0,0,0-2,.68,3.25,3.25,0,0,0-.6,4.55,3.24,3.24,0,0,0,4.56.6,3.25,3.25,0,0,0,.6-4.55,3.26,3.26,0,0,0-2.59-1.28Z"/><circle class="cls-1" cx="41.92" cy="23.63" r="18.59"/><path class="cls-2" d="M30.47,73.75a1.49,1.49,0,0,1-1.34-.82c-.33-.65-.65-1.29-.94-1.94a1.5,1.5,0,0,1,2.72-1.26c.28.61.58,1.22.89,1.84a1.49,1.49,0,0,1-.65,2A1.4,1.4,0,0,1,30.47,73.75Zm-3.12-7.47a1.51,1.51,0,0,1-1.43-1c-.43-1.3-.81-2.63-1.13-4a1.5,1.5,0,1,1,2.92-.7c.3,1.25.66,2.5,1.06,3.73a1.5,1.5,0,0,1-.95,1.89A1.58,1.58,0,0,1,27.35,66.28Zm-2.17-9.74a1.49,1.49,0,0,1-1.48-1.33c-.17-1.35-.28-2.73-.33-4.1a1.51,1.51,0,0,1,1.44-1.56A1.53,1.53,0,0,1,26.37,51c.05,1.29.15,2.6.3,3.87a1.5,1.5,0,0,1-1.31,1.67Zm-.21-10h-.11A1.5,1.5,0,0,1,23.47,45c.1-1.35.25-2.72.45-4.09a1.5,1.5,0,0,1,3,.44c-.19,1.29-.33,2.59-.43,3.86A1.5,1.5,0,0,1,25,46.56Zm1.6-9.86a1.57,1.57,0,0,1-.37-.05,1.51,1.51,0,0,1-1.09-1.82c.33-1.31.7-2.63,1.12-3.94a1.5,1.5,0,0,1,2.86.91c-.4,1.25-.76,2.51-1.07,3.76A1.5,1.5,0,0,1,26.57,36.7Zm3.16-9.49a1.49,1.49,0,0,1-.58-.11,1.51,1.51,0,0,1-.8-2c.52-1.25,1.09-2.5,1.69-3.72a1.5,1.5,0,1,1,2.69,1.32c-.57,1.17-1.11,2.37-1.62,3.56A1.48,1.48,0,0,1,29.73,27.21Zm4.53-8.91a1.46,1.46,0,0,1-.78-.22A1.5,1.5,0,0,1,33,16c1.34-2.2,2.27-3.43,2.31-3.48a1.5,1.5,0,0,1,2.38,1.82s-.88,1.17-2.12,3.21A1.5,1.5,0,0,1,34.26,18.3Z"/><polygon class="cls-2" points="23.09 74.2 36.23 81.34 35.85 66.39 23.09 74.2"/><path class="cls-2" d="M18.06,52a.5.5,0,0,1-.45-.28C7.24,30.47,20.09,6.37,20.22,6.13a.5.5,0,0,1,.88.48C21,6.85,8.36,30.5,18.51,51.28a.5.5,0,0,1-.23.67A.42.42,0,0,1,18.06,52Z"/><path class="cls-2" d="M5.26,53.56a5.46,5.46,0,0,1-.57,0,4.2,4.2,0,1,1,.57,0Zm0-7.51a3.24,3.24,0,0,0-2,.68,3.25,3.25,0,0,0-.6,4.55,3.24,3.24,0,0,0,4.56.6,3.25,3.25,0,0,0,.6-4.55,3.26,3.26,0,0,0-2.59-1.28Z"/><circle class="cls-1" cx="231.98" cy="89.36" r="30.02"/><path class="cls-2" d="M175.4,123.22a1.5,1.5,0,0,1-.08-3l2.72-.16a1.5,1.5,0,0,1,.21,3l-2.77.17Zm8.71-.69a1.5,1.5,0,0,1-.15-3c1.33-.14,2.64-.3,3.93-.47a1.5,1.5,0,1,1,.39,3c-1.31.18-2.64.34-4,.48Zm9.9-1.39a1.5,1.5,0,0,1-.26-3c1.32-.24,2.61-.49,3.87-.76a1.5,1.5,0,0,1,.63,2.94c-1.3.27-2.62.53-4,.77A1.09,1.09,0,0,1,194,121.14Zm9.75-2.17a1.5,1.5,0,0,1-.39-3c1.28-.35,2.55-.72,3.78-1.11a1.5,1.5,0,0,1,.9,2.86c-1.26.4-2.57.79-3.89,1.14A1.44,1.44,0,0,1,203.76,119Zm9.49-3.13a1.5,1.5,0,0,1-.55-2.89c1.23-.49,2.44-1,3.6-1.54a1.51,1.51,0,0,1,2,.74,1.49,1.49,0,0,1-.74,2c-1.21.56-2.47,1.09-3.75,1.6A1.52,1.52,0,0,1,213.25,115.84Zm9-4.29a1.5,1.5,0,0,1-.74-2.81c1.14-.65,2.25-1.34,3.31-2a1.5,1.5,0,1,1,1.67,2.49c-1.12.74-2.29,1.47-3.49,2.16A1.56,1.56,0,0,1,222.26,111.55Zm8.18-5.72a1.5,1.5,0,0,1-1-2.64c1-.84,1.94-1.73,2.82-2.64a1.5,1.5,0,1,1,2.15,2.1c-.94,1-2,1.92-3,2.82A1.52,1.52,0,0,1,230.44,105.83Zm6.76-7.32A1.49,1.49,0,0,1,236,96.14a37.08,37.08,0,0,0,2-3.23,1.5,1.5,0,1,1,2.62,1.45,36.36,36.36,0,0,1-2.22,3.52A1.52,1.52,0,0,1,237.2,98.51Zm-10.88-5.37a1.5,1.5,0,0,1-.12-3,31.2,31.2,0,0,0,3.77-.56,1.5,1.5,0,0,1,.62,2.94,35,35,0,0,1-4.14.61Zm-6-.09h-.18a29.84,29.84,0,0,1-4.13-.8,1.5,1.5,0,1,1,.78-2.9,25.34,25.34,0,0,0,3.71.72,1.5,1.5,0,0,1-.18,3ZM236,90.83a1.5,1.5,0,0,1-.55-2.89c1.18-.47,2.36-1,3.5-1.6a1.48,1.48,0,0,1,1.74.26c.25-.86.47-1.73.64-2.59a1.5,1.5,0,0,1,1.77-1.17,1.54,1.54,0,0,1,.79.43c1-.74,2-1.55,3-2.39a1.5,1.5,0,0,1,2,2.25c-1,.91-2.12,1.78-3.23,2.59a1.49,1.49,0,0,1-1.62.1q-.34,1.43-.81,2.82a1.5,1.5,0,0,1-1.91.94,1.52,1.52,0,0,1-.81-.66l-.14.08a41.46,41.46,0,0,1-3.78,1.73A1.49,1.49,0,0,1,236,90.83Zm-25.17-.74a1.45,1.45,0,0,1-.7-.17,26.37,26.37,0,0,1-2.45-1.46c-.39-.26-.77-.53-1.13-.8a1.5,1.5,0,1,1,1.8-2.39c.32.23.65.47,1,.69.71.47,1.45.91,2.19,1.31a1.5,1.5,0,0,1-.7,2.82Zm-7.53-6.42a1.5,1.5,0,0,1-1.24-.64A20.3,20.3,0,0,1,200,79.22a1.5,1.5,0,0,1,2.79-1.12,15.83,15.83,0,0,0,1.74,3.21,1.51,1.51,0,0,1-1.23,2.36Zm40.11-3.86a1.46,1.46,0,0,1-1.5-1.46,29.22,29.22,0,0,0-.25-3.8,1.5,1.5,0,1,1,3-.38,31.14,31.14,0,0,1,.27,4.1A1.54,1.54,0,0,1,243.42,79.81Zm8.64-.59a1.5,1.5,0,0,1-1.14-2.47c.83-1,1.62-2,2.35-3.06a1.5,1.5,0,0,1,2.46,1.71,40.44,40.44,0,0,1-2.53,3.29A1.47,1.47,0,0,1,252.06,79.22Zm-52-4.89a1.49,1.49,0,0,1-1.49-1.39c0-.51-.06-1-.06-1.52a23.37,23.37,0,0,1,.17-2.76,1.5,1.5,0,0,1,3,.36,19.29,19.29,0,0,0-.15,2.39c0,.44,0,.88.05,1.32a1.51,1.51,0,0,1-1.4,1.6Zm57.47-3.44a1.43,1.43,0,0,1-.66-.16,1.49,1.49,0,0,1-.68-2c.57-1.15,1.08-2.34,1.53-3.53a1.5,1.5,0,1,1,2.81,1,41.32,41.32,0,0,1-1.65,3.81A1.51,1.51,0,0,1,257.55,70.89ZM241.8,70a1.5,1.5,0,0,1-1.42-1,29.71,29.71,0,0,0-1.46-3.5,1.5,1.5,0,1,1,2.68-1.34A32,32,0,0,1,243.22,68a1.5,1.5,0,0,1-.93,1.91A1.67,1.67,0,0,1,241.8,70Zm-40.12-5.48a1.64,1.64,0,0,1-.56-.11,1.5,1.5,0,0,1-.83-1.95,25.06,25.06,0,0,1,1.92-3.8,1.5,1.5,0,0,1,2.55,1.58,21.74,21.74,0,0,0-1.68,3.34A1.52,1.52,0,0,1,201.68,64.55Zm59.14-3.09a1.12,1.12,0,0,1-.32,0,1.5,1.5,0,0,1-1.15-1.78c.29-1.28.52-2.57.69-3.82a1.5,1.5,0,0,1,3,.41c-.19,1.34-.44,2.7-.74,4.05A1.49,1.49,0,0,1,260.82,61.46ZM237,61.29a1.48,1.48,0,0,1-1.17-.56A26,26,0,0,0,233.31,58a1.5,1.5,0,1,1,2.05-2.19,27.93,27.93,0,0,1,2.85,3.1A1.5,1.5,0,0,1,238,61,1.46,1.46,0,0,1,237,61.29Zm-29.75-4.92a1.5,1.5,0,0,1-1-2.61,20.63,20.63,0,0,1,3.47-2.55,1.5,1.5,0,1,1,1.5,2.59,17.88,17.88,0,0,0-3,2.18A1.47,1.47,0,0,1,207.29,56.37Zm22.24-1.59a1.48,1.48,0,0,1-.75-.2,24.35,24.35,0,0,0-3.39-1.6,1.5,1.5,0,0,1,1.06-2.81A27.86,27.86,0,0,1,230.28,52a1.5,1.5,0,0,1-.75,2.8Zm-13.42-2.84a1.5,1.5,0,0,1-.26-3,18,18,0,0,1,4.35-.23,1.5,1.5,0,0,1-.21,3,15,15,0,0,0-3.62.18A1.18,1.18,0,0,1,216.11,51.94ZM262,51.55h0A1.5,1.5,0,0,1,260.49,50V49.5c0-1.12,0-2.24-.13-3.33a1.5,1.5,0,0,1,3-.23c.1,1.16.14,2.36.14,3.56v.56A1.5,1.5,0,0,1,262,51.55Zm-1-9.92a1.5,1.5,0,0,1-1.47-1.17c-.27-1.25-.62-2.5-1-3.72a1.5,1.5,0,1,1,2.85-.92c.43,1.31.79,2.65,1.09,4a1.52,1.52,0,0,1-1.13,1.8Zm-3.29-9.41a1.48,1.48,0,0,1-1.35-.85c-.56-1.14-1.17-2.29-1.83-3.4a1.5,1.5,0,1,1,2.58-1.53c.7,1.18,1.36,2.4,1.95,3.63a1.5,1.5,0,0,1-1.35,2.15Zm-5.25-8.49a1.5,1.5,0,0,1-1.2-.59c-.77-1-1.6-2-2.47-3a1.5,1.5,0,1,1,2.25-2c.92,1,1.8,2.11,2.61,3.17a1.5,1.5,0,0,1-1.19,2.41Zm-6.72-7.4a1.5,1.5,0,0,1-1-.4c-.94-.88-1.93-1.76-2.93-2.6a1.5,1.5,0,0,1,1.92-2.3c1.05.88,2.08,1.79,3.06,2.71a1.49,1.49,0,0,1,.07,2.12A1.51,1.51,0,0,1,245.71,16.33ZM237.94,10a1.51,1.51,0,0,1-.86-.27C236,9,234.91,8.26,233.81,7.56A1.5,1.5,0,0,1,235.42,5c1.14.73,2.28,1.49,3.39,2.28a1.5,1.5,0,0,1-.87,2.72Zm-8.52-5.25a1.46,1.46,0,0,1-.7-.18c-2.13-1.13-3.48-1.7-3.5-1.71A1.5,1.5,0,1,1,226.39.12c.05,0,1.47.62,3.73,1.82a1.5,1.5,0,0,1-.7,2.83Z"/><polygon class="cls-2" points="177.33 114.09 164.64 122 177.84 129.03 177.33 114.09"/><path class="cls-2" d="M274.44,54.75a.47.47,0,0,1-.17,0,.49.49,0,0,1-.3-.64c.12-.31,11.27-32-15.59-51a.5.5,0,1,1,.58-.82c27.49,19.49,16.07,51.84,16,52.17A.51.51,0,0,1,274.44,54.75Z"/><path class="cls-2" d="M271.55,66a4.25,4.25,0,1,1,4.25-4.25A4.25,4.25,0,0,1,271.55,66Zm0-7.5a3.25,3.25,0,1,0,3.25,3.25A3.26,3.26,0,0,0,271.55,58.5Z"/><path class="cls-2" d="M286.33,48.78a4.25,4.25,0,1,1,4.25-4.25A4.25,4.25,0,0,1,286.33,48.78Zm0-7.5a3.25,3.25,0,1,0,3.25,3.25A3.26,3.26,0,0,0,286.33,41.28Z"/><circle class="cls-1" cx="231.98" cy="89.36" r="30.02"/><path class="cls-2" d="M175.4,123.22a1.5,1.5,0,0,1-.08-3l2.72-.16a1.5,1.5,0,0,1,.21,3l-2.77.17Zm8.71-.69a1.5,1.5,0,0,1-.15-3c1.33-.14,2.64-.3,3.93-.47a1.5,1.5,0,1,1,.39,3c-1.31.18-2.64.34-4,.48Zm9.9-1.39a1.5,1.5,0,0,1-.26-3c1.32-.24,2.61-.49,3.87-.76a1.5,1.5,0,0,1,.63,2.94c-1.3.27-2.62.53-4,.77A1.09,1.09,0,0,1,194,121.14Zm9.75-2.17a1.5,1.5,0,0,1-.39-3c1.28-.35,2.55-.72,3.78-1.11a1.5,1.5,0,0,1,.9,2.86c-1.26.4-2.57.79-3.89,1.14A1.44,1.44,0,0,1,203.76,119Zm9.49-3.13a1.5,1.5,0,0,1-.55-2.89c1.23-.49,2.44-1,3.6-1.54a1.51,1.51,0,0,1,2,.74,1.49,1.49,0,0,1-.74,2c-1.21.56-2.47,1.09-3.75,1.6A1.52,1.52,0,0,1,213.25,115.84Zm9-4.29a1.5,1.5,0,0,1-.74-2.81c1.14-.65,2.25-1.34,3.31-2a1.5,1.5,0,1,1,1.67,2.49c-1.12.74-2.29,1.47-3.49,2.16A1.56,1.56,0,0,1,222.26,111.55Zm8.18-5.72a1.5,1.5,0,0,1-1-2.64c1-.84,1.94-1.73,2.82-2.64a1.5,1.5,0,1,1,2.15,2.1c-.94,1-2,1.92-3,2.82A1.52,1.52,0,0,1,230.44,105.83Zm6.76-7.32A1.49,1.49,0,0,1,236,96.14a37.08,37.08,0,0,0,2-3.23,1.5,1.5,0,1,1,2.62,1.45,36.36,36.36,0,0,1-2.22,3.52A1.52,1.52,0,0,1,237.2,98.51Zm-10.88-5.37a1.5,1.5,0,0,1-.12-3,31.2,31.2,0,0,0,3.77-.56,1.5,1.5,0,0,1,.62,2.94,35,35,0,0,1-4.14.61Zm-6-.09h-.18a29.84,29.84,0,0,1-4.13-.8,1.5,1.5,0,1,1,.78-2.9,25.34,25.34,0,0,0,3.71.72,1.5,1.5,0,0,1-.18,3ZM236,90.83a1.5,1.5,0,0,1-.55-2.89c1.18-.47,2.36-1,3.5-1.6a1.48,1.48,0,0,1,1.74.26c.25-.86.47-1.73.64-2.59a1.5,1.5,0,0,1,1.77-1.17,1.54,1.54,0,0,1,.79.43c1-.74,2-1.55,3-2.39a1.5,1.5,0,0,1,2,2.25c-1,.91-2.12,1.78-3.23,2.59a1.49,1.49,0,0,1-1.62.1q-.34,1.43-.81,2.82a1.5,1.5,0,0,1-1.91.94,1.52,1.52,0,0,1-.81-.66l-.14.08a41.46,41.46,0,0,1-3.78,1.73A1.49,1.49,0,0,1,236,90.83Zm-25.17-.74a1.45,1.45,0,0,1-.7-.17,26.37,26.37,0,0,1-2.45-1.46c-.39-.26-.77-.53-1.13-.8a1.5,1.5,0,1,1,1.8-2.39c.32.23.65.47,1,.69.71.47,1.45.91,2.19,1.31a1.5,1.5,0,0,1-.7,2.82Zm-7.53-6.42a1.5,1.5,0,0,1-1.24-.64A20.3,20.3,0,0,1,200,79.22a1.5,1.5,0,0,1,2.79-1.12,15.83,15.83,0,0,0,1.74,3.21,1.51,1.51,0,0,1-1.23,2.36Zm40.11-3.86a1.46,1.46,0,0,1-1.5-1.46,29.22,29.22,0,0,0-.25-3.8,1.5,1.5,0,1,1,3-.38,31.14,31.14,0,0,1,.27,4.1A1.54,1.54,0,0,1,243.42,79.81Zm8.64-.59a1.5,1.5,0,0,1-1.14-2.47c.83-1,1.62-2,2.35-3.06a1.5,1.5,0,0,1,2.46,1.71,40.44,40.44,0,0,1-2.53,3.29A1.47,1.47,0,0,1,252.06,79.22Zm-52-4.89a1.49,1.49,0,0,1-1.49-1.39c0-.51-.06-1-.06-1.52a23.37,23.37,0,0,1,.17-2.76,1.5,1.5,0,0,1,3,.36,19.29,19.29,0,0,0-.15,2.39c0,.44,0,.88.05,1.32a1.51,1.51,0,0,1-1.4,1.6Zm57.47-3.44a1.43,1.43,0,0,1-.66-.16,1.49,1.49,0,0,1-.68-2c.57-1.15,1.08-2.34,1.53-3.53a1.5,1.5,0,1,1,2.81,1,41.32,41.32,0,0,1-1.65,3.81A1.51,1.51,0,0,1,257.55,70.89ZM241.8,70a1.5,1.5,0,0,1-1.42-1,29.71,29.71,0,0,0-1.46-3.5,1.5,1.5,0,1,1,2.68-1.34A32,32,0,0,1,243.22,68a1.5,1.5,0,0,1-.93,1.91A1.67,1.67,0,0,1,241.8,70Zm-40.12-5.48a1.64,1.64,0,0,1-.56-.11,1.5,1.5,0,0,1-.83-1.95,25.06,25.06,0,0,1,1.92-3.8,1.5,1.5,0,0,1,2.55,1.58,21.74,21.74,0,0,0-1.68,3.34A1.52,1.52,0,0,1,201.68,64.55Zm59.14-3.09a1.12,1.12,0,0,1-.32,0,1.5,1.5,0,0,1-1.15-1.78c.29-1.28.52-2.57.69-3.82a1.5,1.5,0,0,1,3,.41c-.19,1.34-.44,2.7-.74,4.05A1.49,1.49,0,0,1,260.82,61.46ZM237,61.29a1.48,1.48,0,0,1-1.17-.56A26,26,0,0,0,233.31,58a1.5,1.5,0,1,1,2.05-2.19,27.93,27.93,0,0,1,2.85,3.1A1.5,1.5,0,0,1,238,61,1.46,1.46,0,0,1,237,61.29Zm-29.75-4.92a1.5,1.5,0,0,1-1-2.61,20.63,20.63,0,0,1,3.47-2.55,1.5,1.5,0,1,1,1.5,2.59,17.88,17.88,0,0,0-3,2.18A1.47,1.47,0,0,1,207.29,56.37Zm22.24-1.59a1.48,1.48,0,0,1-.75-.2,24.35,24.35,0,0,0-3.39-1.6,1.5,1.5,0,0,1,1.06-2.81A27.86,27.86,0,0,1,230.28,52a1.5,1.5,0,0,1-.75,2.8Zm-13.42-2.84a1.5,1.5,0,0,1-.26-3,18,18,0,0,1,4.35-.23,1.5,1.5,0,0,1-.21,3,15,15,0,0,0-3.62.18A1.18,1.18,0,0,1,216.11,51.94ZM262,51.55h0A1.5,1.5,0,0,1,260.49,50V49.5c0-1.12,0-2.24-.13-3.33a1.5,1.5,0,0,1,3-.23c.1,1.16.14,2.36.14,3.56v.56A1.5,1.5,0,0,1,262,51.55Zm-1-9.92a1.5,1.5,0,0,1-1.47-1.17c-.27-1.25-.62-2.5-1-3.72a1.5,1.5,0,1,1,2.85-.92c.43,1.31.79,2.65,1.09,4a1.52,1.52,0,0,1-1.13,1.8Zm-3.29-9.41a1.48,1.48,0,0,1-1.35-.85c-.56-1.14-1.17-2.29-1.83-3.4a1.5,1.5,0,1,1,2.58-1.53c.7,1.18,1.36,2.4,1.95,3.63a1.5,1.5,0,0,1-1.35,2.15Zm-5.25-8.49a1.5,1.5,0,0,1-1.2-.59c-.77-1-1.6-2-2.47-3a1.5,1.5,0,1,1,2.25-2c.92,1,1.8,2.11,2.61,3.17a1.5,1.5,0,0,1-1.19,2.41Zm-6.72-7.4a1.5,1.5,0,0,1-1-.4c-.94-.88-1.93-1.76-2.93-2.6a1.5,1.5,0,0,1,1.92-2.3c1.05.88,2.08,1.79,3.06,2.71a1.49,1.49,0,0,1,.07,2.12A1.51,1.51,0,0,1,245.71,16.33ZM237.94,10a1.51,1.51,0,0,1-.86-.27C236,9,234.91,8.26,233.81,7.56A1.5,1.5,0,0,1,235.42,5c1.14.73,2.28,1.49,3.39,2.28a1.5,1.5,0,0,1-.87,2.72Zm-8.52-5.25a1.46,1.46,0,0,1-.7-.18c-2.13-1.13-3.48-1.7-3.5-1.71A1.5,1.5,0,1,1,226.39.12c.05,0,1.47.62,3.73,1.82a1.5,1.5,0,0,1-.7,2.83Z"/><polygon class="cls-2" points="177.33 114.09 164.64 122 177.84 129.03 177.33 114.09"/><path class="cls-2" d="M274.44,54.75a.47.47,0,0,1-.17,0,.49.49,0,0,1-.3-.64c.12-.31,11.27-32-15.59-51a.5.5,0,1,1,.58-.82c27.49,19.49,16.07,51.84,16,52.17A.51.51,0,0,1,274.44,54.75Z"/><path class="cls-2" d="M271.55,66a4.25,4.25,0,1,1,4.25-4.25A4.25,4.25,0,0,1,271.55,66Zm0-7.5a3.25,3.25,0,1,0,3.25,3.25A3.26,3.26,0,0,0,271.55,58.5Z"/><path class="cls-2" d="M286.33,48.78a4.25,4.25,0,1,1,4.25-4.25A4.25,4.25,0,0,1,286.33,48.78Zm0-7.5a3.25,3.25,0,1,0,3.25,3.25A3.26,3.26,0,0,0,286.33,41.28Z"/><circle class="cls-1" cx="124.03" cy="214.7" r="30.02"/><path class="cls-2" d="M44.61,270.39a94.76,94.76,0,0,1-17.75-1.49.5.5,0,1,1,.2-1,106.9,106.9,0,0,0,38-.45c19.07-3.68,45.19-14.67,61.37-46.16a.5.5,0,0,1,.89.46c-16.37,31.86-42.81,43-62.11,46.69A109.35,109.35,0,0,1,44.61,270.39Z"/><path class="cls-2" d="M30.21,247.22H29.6a1.5,1.5,0,0,1,0-3h.6c1.08,0,2.2,0,3.33-.08a1.5,1.5,0,0,1,.15,3C32.51,247.2,31.34,247.22,30.21,247.22Zm-6.58-.33h-.16c-1.38-.15-2.74-.34-4.07-.58a1.5,1.5,0,1,1,.53-3c1.25.23,2.55.41,3.85.55a1.5,1.5,0,0,1-.15,3Zm16-.28a1.5,1.5,0,0,1-.19-3c1.27-.16,2.58-.36,3.89-.59a1.5,1.5,0,0,1,.51,3c-1.36.23-2.71.44-4,.6Zm-25.75-1.68a1.35,1.35,0,0,1-.44-.07c-1.33-.4-2.64-.87-3.9-1.38a1.5,1.5,0,1,1,1.14-2.78c1.17.48,2.39.91,3.64,1.29a1.5,1.5,0,0,1-.44,2.94Zm35.58-.12a1.5,1.5,0,0,1-.35-3l.77-.19a27.8,27.8,0,0,0,2.9-.88,1.5,1.5,0,1,1,1,2.82,31.32,31.32,0,0,1-3.21,1l-.79.2A2.21,2.21,0,0,1,49.42,244.81Zm9.21-3.76a1.5,1.5,0,0,1-.81-2.76c.35-.23.7-.47,1-.72a1.45,1.45,0,0,1-.9.14,14.78,14.78,0,0,1-4.25-1.29,1.5,1.5,0,1,1,1.35-2.68,11.87,11.87,0,0,0,3.38,1,1.49,1.49,0,0,1,.85,2.5A18.13,18.13,0,0,0,60.78,236a1.51,1.51,0,0,1,2,0,1.5,1.5,0,0,1,1.33-1c1.23-.07,2.53-.2,3.85-.39a1.5,1.5,0,1,1,.43,3c-1.41.2-2.8.34-4.12.41a1.5,1.5,0,0,1-1.05-.35,1.48,1.48,0,0,1-.4.6,24.25,24.25,0,0,1-3.37,2.59A1.5,1.5,0,0,1,58.63,241.05Zm-53.91-.17a1.52,1.52,0,0,1-.79-.22,22.5,22.5,0,0,1-3.48-2.57,1.5,1.5,0,0,1,2.1-2.15,18.41,18.41,0,0,0,3,2.17,1.5,1.5,0,0,1-.79,2.77Zm69.33-4.48a1.52,1.52,0,0,1-1.46-1.13,1.51,1.51,0,0,1,1.09-1.83c1.24-.31,2.5-.68,3.75-1.08a1.5,1.5,0,1,1,.92,2.85c-1.31.42-2.63.81-3.93,1.14A1.64,1.64,0,0,1,74.05,236.4Zm-8.54-2.46a1.46,1.46,0,0,1-.7-.18,1.5,1.5,0,0,1-.62-2,9.82,9.82,0,0,0,1.13-3.27,1.5,1.5,0,1,1,3,.43,12.9,12.9,0,0,1-1.45,4.26A1.51,1.51,0,0,1,65.51,233.94Zm18-.76a1.5,1.5,0,0,1-.59-2.88c1.2-.52,2.39-1.07,3.54-1.65a1.5,1.5,0,1,1,1.35,2.67c-1.2.61-2.45,1.2-3.71,1.73A1.37,1.37,0,0,1,83.5,233.18ZM50.7,232a1.51,1.51,0,0,1-1.4-1,10.15,10.15,0,0,1-.7-3.57,8,8,0,0,1,.07-1.09,1.5,1.5,0,0,1,3,.39,5.36,5.36,0,0,0,0,.7,7,7,0,0,0,.5,2.49,1.5,1.5,0,0,1-.86,1.94A1.47,1.47,0,0,1,50.7,232Zm41.64-3.53a1.5,1.5,0,0,1-.81-2.76c1.11-.71,2.18-1.45,3.19-2.22a1.5,1.5,0,0,1,1.81,2.4c-1.08.81-2.21,1.6-3.38,2.35A1.49,1.49,0,0,1,92.34,228.51Zm-26.86-4a1.51,1.51,0,0,1-1.28-.71A6.17,6.17,0,0,0,62,221.52a1.5,1.5,0,0,1,1.42-2.64,9,9,0,0,1,3.38,3.3,1.51,1.51,0,0,1-.48,2.07A1.52,1.52,0,0,1,65.48,224.47Zm-12.22-1.3a1.48,1.48,0,0,1-1.21-.62,1.49,1.49,0,0,1,.33-2.09A6.24,6.24,0,0,1,53,220a13.49,13.49,0,0,1,3.37-1.58,1.5,1.5,0,1,1,.89,2.86,11.28,11.28,0,0,0-2.64,1.24l-.12.07h0s-.17.1-.38.25A1.43,1.43,0,0,1,53.26,223.17Zm46.93-.82a1.5,1.5,0,0,1-1-2.59c.93-.89,1.83-1.83,2.68-2.79a1.5,1.5,0,0,1,2.25,2c-.91,1-1.87,2-2.85,3A1.52,1.52,0,0,1,100.19,222.35Zm6.48-7.6a1.44,1.44,0,0,1-.86-.27,1.48,1.48,0,0,1-.37-2.08c.73-1.05,1.44-2.15,2.1-3.27a1.5,1.5,0,1,1,2.58,1.53c-.7,1.18-1.45,2.34-2.22,3.45A1.49,1.49,0,0,1,106.67,214.75Zm5-8.67a1.44,1.44,0,0,1-.63-.14,1.49,1.49,0,0,1-.73-2c.54-1.17,1-2.38,1.51-3.59a1.5,1.5,0,0,1,1.94-.86,1.48,1.48,0,0,1,.86,1.93c-.49,1.28-1,2.55-1.59,3.78A1.49,1.49,0,0,1,111.62,206.08Zm3.45-9.37a1.51,1.51,0,0,1-1.44-1.92c.35-1.23.68-2.51,1-3.79a1.5,1.5,0,0,1,2.93.66c-.31,1.34-.65,2.67-1,4A1.51,1.51,0,0,1,115.07,196.71Zm2.09-9.78-.22,0a1.49,1.49,0,0,1-1.26-1.7c.19-1.28.35-2.59.47-3.9a1.5,1.5,0,0,1,3,.29c-.13,1.36-.3,2.72-.49,4.05A1.51,1.51,0,0,1,117.16,186.93Z"/><polygon class="cls-2" points="125.15 181.71 117.83 168.67 110.2 181.53 125.15 181.71"/><path class="cls-2" d="M106,280.91a.48.48,0,0,1-.41-.23.49.49,0,0,1,.14-.69c.32-.21,32.08-21.7,27.71-60.16a.5.5,0,0,1,.44-.56.5.5,0,0,1,.55.44c4.45,39.09-27.83,60.9-28.15,61.12A.57.57,0,0,1,106,280.91Z"/><path class="cls-2" d="M132.89,215.2a4.26,4.26,0,0,1-4-2.86,4.19,4.19,0,0,1,.18-3.24,4.25,4.25,0,0,1,5.68-2,4.25,4.25,0,0,1-1.85,8.08Zm0-7.5a3.29,3.29,0,0,0-1.07.18,3.22,3.22,0,0,0-1.86,1.65,3.31,3.31,0,0,0-.14,2.49,3.19,3.19,0,0,0,1.66,1.85A3.24,3.24,0,0,0,134,214a3.27,3.27,0,0,0,1.86-1.66A3.25,3.25,0,0,0,134.3,208h0A3.13,3.13,0,0,0,132.89,207.7Z"/><path class="cls-2" d="M109.75,263.38a4.25,4.25,0,1,1,4.25-4.25A4.26,4.26,0,0,1,109.75,263.38Zm0-7.5a3.25,3.25,0,1,0,3.25,3.25A3.26,3.26,0,0,0,109.75,255.88Z"/><circle class="cls-1" cx="124.03" cy="214.7" r="30.02"/><path class="cls-2" d="M44.61,270.39a94.76,94.76,0,0,1-17.75-1.49.5.5,0,1,1,.2-1,106.9,106.9,0,0,0,38-.45c19.07-3.68,45.19-14.67,61.37-46.16a.5.5,0,0,1,.89.46c-16.37,31.86-42.81,43-62.11,46.69A109.35,109.35,0,0,1,44.61,270.39Z"/><path class="cls-2" d="M30.21,247.22H29.6a1.5,1.5,0,0,1,0-3h.6c1.08,0,2.2,0,3.33-.08a1.5,1.5,0,0,1,.15,3C32.51,247.2,31.34,247.22,30.21,247.22Zm-6.58-.33h-.16c-1.38-.15-2.74-.34-4.07-.58a1.5,1.5,0,1,1,.53-3c1.25.23,2.55.41,3.85.55a1.5,1.5,0,0,1-.15,3Zm16-.28a1.5,1.5,0,0,1-.19-3c1.27-.16,2.58-.36,3.89-.59a1.5,1.5,0,0,1,.51,3c-1.36.23-2.71.44-4,.6Zm-25.75-1.68a1.35,1.35,0,0,1-.44-.07c-1.33-.4-2.64-.87-3.9-1.38a1.5,1.5,0,1,1,1.14-2.78c1.17.48,2.39.91,3.64,1.29a1.5,1.5,0,0,1-.44,2.94Zm35.58-.12a1.5,1.5,0,0,1-.35-3l.77-.19a27.8,27.8,0,0,0,2.9-.88,1.5,1.5,0,1,1,1,2.82,31.32,31.32,0,0,1-3.21,1l-.79.2A2.21,2.21,0,0,1,49.42,244.81Zm9.21-3.76a1.5,1.5,0,0,1-.81-2.76c.35-.23.7-.47,1-.72a1.45,1.45,0,0,1-.9.14,14.78,14.78,0,0,1-4.25-1.29,1.5,1.5,0,1,1,1.35-2.68,11.87,11.87,0,0,0,3.38,1,1.49,1.49,0,0,1,.85,2.5A18.13,18.13,0,0,0,60.78,236a1.51,1.51,0,0,1,2,0,1.5,1.5,0,0,1,1.33-1c1.23-.07,2.53-.2,3.85-.39a1.5,1.5,0,1,1,.43,3c-1.41.2-2.8.34-4.12.41a1.5,1.5,0,0,1-1.05-.35,1.48,1.48,0,0,1-.4.6,24.25,24.25,0,0,1-3.37,2.59A1.5,1.5,0,0,1,58.63,241.05Zm-53.91-.17a1.52,1.52,0,0,1-.79-.22,22.5,22.5,0,0,1-3.48-2.57,1.5,1.5,0,0,1,2.1-2.15,18.41,18.41,0,0,0,3,2.17,1.5,1.5,0,0,1-.79,2.77Zm69.33-4.48a1.52,1.52,0,0,1-1.46-1.13,1.51,1.51,0,0,1,1.09-1.83c1.24-.31,2.5-.68,3.75-1.08a1.5,1.5,0,1,1,.92,2.85c-1.31.42-2.63.81-3.93,1.14A1.64,1.64,0,0,1,74.05,236.4Zm-8.54-2.46a1.46,1.46,0,0,1-.7-.18,1.5,1.5,0,0,1-.62-2,9.82,9.82,0,0,0,1.13-3.27,1.5,1.5,0,1,1,3,.43,12.9,12.9,0,0,1-1.45,4.26A1.51,1.51,0,0,1,65.51,233.94Zm18-.76a1.5,1.5,0,0,1-.59-2.88c1.2-.52,2.39-1.07,3.54-1.65a1.5,1.5,0,1,1,1.35,2.67c-1.2.61-2.45,1.2-3.71,1.73A1.37,1.37,0,0,1,83.5,233.18ZM50.7,232a1.51,1.51,0,0,1-1.4-1,10.15,10.15,0,0,1-.7-3.57,8,8,0,0,1,.07-1.09,1.5,1.5,0,0,1,3,.39,5.36,5.36,0,0,0,0,.7,7,7,0,0,0,.5,2.49,1.5,1.5,0,0,1-.86,1.94A1.47,1.47,0,0,1,50.7,232Zm41.64-3.53a1.5,1.5,0,0,1-.81-2.76c1.11-.71,2.18-1.45,3.19-2.22a1.5,1.5,0,0,1,1.81,2.4c-1.08.81-2.21,1.6-3.38,2.35A1.49,1.49,0,0,1,92.34,228.51Zm-26.86-4a1.51,1.51,0,0,1-1.28-.71A6.17,6.17,0,0,0,62,221.52a1.5,1.5,0,0,1,1.42-2.64,9,9,0,0,1,3.38,3.3,1.51,1.51,0,0,1-.48,2.07A1.52,1.52,0,0,1,65.48,224.47Zm-12.22-1.3a1.48,1.48,0,0,1-1.21-.62,1.49,1.49,0,0,1,.33-2.09A6.24,6.24,0,0,1,53,220a13.49,13.49,0,0,1,3.37-1.58,1.5,1.5,0,1,1,.89,2.86,11.28,11.28,0,0,0-2.64,1.24l-.12.07h0s-.17.1-.38.25A1.43,1.43,0,0,1,53.26,223.17Zm46.93-.82a1.5,1.5,0,0,1-1-2.59c.93-.89,1.83-1.83,2.68-2.79a1.5,1.5,0,0,1,2.25,2c-.91,1-1.87,2-2.85,3A1.52,1.52,0,0,1,100.19,222.35Zm6.48-7.6a1.44,1.44,0,0,1-.86-.27,1.48,1.48,0,0,1-.37-2.08c.73-1.05,1.44-2.15,2.1-3.27a1.5,1.5,0,1,1,2.58,1.53c-.7,1.18-1.45,2.34-2.22,3.45A1.49,1.49,0,0,1,106.67,214.75Zm5-8.67a1.44,1.44,0,0,1-.63-.14,1.49,1.49,0,0,1-.73-2c.54-1.17,1-2.38,1.51-3.59a1.5,1.5,0,0,1,1.94-.86,1.48,1.48,0,0,1,.86,1.93c-.49,1.28-1,2.55-1.59,3.78A1.49,1.49,0,0,1,111.62,206.08Zm3.45-9.37a1.51,1.51,0,0,1-1.44-1.92c.35-1.23.68-2.51,1-3.79a1.5,1.5,0,0,1,2.93.66c-.31,1.34-.65,2.67-1,4A1.51,1.51,0,0,1,115.07,196.71Zm2.09-9.78-.22,0a1.49,1.49,0,0,1-1.26-1.7c.19-1.28.35-2.59.47-3.9a1.5,1.5,0,0,1,3,.29c-.13,1.36-.3,2.72-.49,4.05A1.51,1.51,0,0,1,117.16,186.93Z"/><polygon class="cls-2" points="125.15 181.71 117.83 168.67 110.2 181.53 125.15 181.71"/><path class="cls-2" d="M106,280.91a.48.48,0,0,1-.41-.23.49.49,0,0,1,.14-.69c.32-.21,32.08-21.7,27.71-60.16a.5.5,0,0,1,.44-.56.5.5,0,0,1,.55.44c4.45,39.09-27.83,60.9-28.15,61.12A.57.57,0,0,1,106,280.91Z"/><path class="cls-2" d="M132.89,215.2a4.26,4.26,0,0,1-4-2.86,4.19,4.19,0,0,1,.18-3.24,4.25,4.25,0,0,1,5.68-2,4.25,4.25,0,0,1-1.85,8.08Zm0-7.5a3.29,3.29,0,0,0-1.07.18,3.22,3.22,0,0,0-1.86,1.65,3.31,3.31,0,0,0-.14,2.49,3.19,3.19,0,0,0,1.66,1.85A3.24,3.24,0,0,0,134,214a3.27,3.27,0,0,0,1.86-1.66A3.25,3.25,0,0,0,134.3,208h0A3.13,3.13,0,0,0,132.89,207.7Z"/><path class="cls-2" d="M109.75,263.38a4.25,4.25,0,1,1,4.25-4.25A4.26,4.26,0,0,1,109.75,263.38Zm0-7.5a3.25,3.25,0,1,0,3.25,3.25A3.26,3.26,0,0,0,109.75,255.88Z"/></svg>