<svg id="Layer_1" data-name="Layer 1" xmlns="http://www.w3.org/2000/svg" viewBox="0 0 152.39 167.05"><defs><style>.cls-1{fill:#fef4e5;}.cls-2{fill:#bdc1c6;}</style></defs><title>arrows-layout-2</title><circle class="cls-1" cx="18.59" cy="18.59" r="18.59"/><path class="cls-2" d="M9.86,69.26a1.47,1.47,0,0,1-1.15-.54,1.5,1.5,0,0,1,.19-2.11c.54-.44,1.06-.89,1.57-1.35a1.5,1.5,0,0,1,2,2.24c-.54.48-1.09,1-1.65,1.42A1.5,1.5,0,0,1,9.86,69.26Zm5.83-5.63a1.47,1.47,0,0,1-1-.38,1.49,1.49,0,0,1-.13-2.11c.86-1,1.68-2,2.45-3a1.52,1.52,0,0,1,2.11-.3,1.5,1.5,0,0,1,.29,2.1c-.82,1.09-1.69,2.16-2.6,3.19A1.49,1.49,0,0,1,15.69,63.63Zm5.84-8.09a1.51,1.51,0,0,1-1.29-2.26c.64-1.11,1.25-2.26,1.81-3.43a1.5,1.5,0,1,1,2.7,1.3c-.59,1.23-1.23,2.46-1.92,3.64A1.5,1.5,0,0,1,21.53,55.54Zm4.15-9.09a1.4,1.4,0,0,1-.49-.08,1.5,1.5,0,0,1-.93-1.91c.43-1.21.81-2.46,1.15-3.72a1.5,1.5,0,1,1,2.89.78c-.35,1.32-.76,2.64-1.2,3.92A1.51,1.51,0,0,1,25.68,46.45Zm2.44-9.68-.25,0A1.5,1.5,0,0,1,26.64,35c.2-1.26.37-2.57.5-3.87a1.5,1.5,0,0,1,3,.3c-.14,1.36-.32,2.73-.53,4.06A1.51,1.51,0,0,1,28.12,36.77Zm.84-10h0a1.5,1.5,0,0,1-1.48-1.52v-.67c0-1.07,0-2.16-.07-3.24a1.5,1.5,0,1,1,3-.14c.06,1.12.08,2.26.08,3.38v.7A1.5,1.5,0,0,1,29,26.81Zm-.63-10a1.49,1.49,0,0,1-1.48-1.29c-.33-2.37-.68-3.77-.68-3.78A1.5,1.5,0,0,1,29.08,11a40.61,40.61,0,0,1,.74,4.1,1.5,1.5,0,0,1-1.28,1.69Z"/><polygon class="cls-2" points="7.24 60.25 0.96 73.83 15.86 72.47 7.24 60.25"/><path class="cls-2" d="M29.47,54.12a.46.46,0,0,1-.38-.17.49.49,0,0,1,.05-.7c17.54-15.07,15.34-41.78,15.31-42a.5.5,0,0,1,1-.09c0,.27,2.28,27.49-15.66,42.89A.49.49,0,0,1,29.47,54.12Z"/><path class="cls-2" d="M42.1,60.93A4.25,4.25,0,0,1,38,55.52h0a4.25,4.25,0,0,1,8.18,2.32A4.26,4.26,0,0,1,42.1,60.93ZM39,55.8a3.24,3.24,0,1,0,1.54-2,3.28,3.28,0,0,0-1.54,2Z"/><circle class="cls-1" cx="18.59" cy="18.59" r="18.59"/><path class="cls-2" d="M9.86,69.26a1.47,1.47,0,0,1-1.15-.54,1.5,1.5,0,0,1,.19-2.11c.54-.44,1.06-.89,1.57-1.35a1.5,1.5,0,0,1,2,2.24c-.54.48-1.09,1-1.65,1.42A1.5,1.5,0,0,1,9.86,69.26Zm5.83-5.63a1.47,1.47,0,0,1-1-.38,1.49,1.49,0,0,1-.13-2.11c.86-1,1.68-2,2.45-3a1.52,1.52,0,0,1,2.11-.3,1.5,1.5,0,0,1,.29,2.1c-.82,1.09-1.69,2.16-2.6,3.19A1.49,1.49,0,0,1,15.69,63.63Zm5.84-8.09a1.51,1.51,0,0,1-1.29-2.26c.64-1.11,1.25-2.26,1.81-3.43a1.5,1.5,0,1,1,2.7,1.3c-.59,1.23-1.23,2.46-1.92,3.64A1.5,1.5,0,0,1,21.53,55.54Zm4.15-9.09a1.4,1.4,0,0,1-.49-.08,1.5,1.5,0,0,1-.93-1.91c.43-1.21.81-2.46,1.15-3.72a1.5,1.5,0,1,1,2.89.78c-.35,1.32-.76,2.64-1.2,3.92A1.51,1.51,0,0,1,25.68,46.45Zm2.44-9.68-.25,0A1.5,1.5,0,0,1,26.64,35c.2-1.26.37-2.57.5-3.87a1.5,1.5,0,0,1,3,.3c-.14,1.36-.32,2.73-.53,4.06A1.51,1.51,0,0,1,28.12,36.77Zm.84-10h0a1.5,1.5,0,0,1-1.48-1.52v-.67c0-1.07,0-2.16-.07-3.24a1.5,1.5,0,1,1,3-.14c.06,1.12.08,2.26.08,3.38v.7A1.5,1.5,0,0,1,29,26.81Zm-.63-10a1.49,1.49,0,0,1-1.48-1.29c-.33-2.37-.68-3.77-.68-3.78A1.5,1.5,0,0,1,29.08,11a40.61,40.61,0,0,1,.74,4.1,1.5,1.5,0,0,1-1.28,1.69Z"/><polygon class="cls-2" points="7.24 60.25 0.96 73.83 15.86 72.47 7.24 60.25"/><path class="cls-2" d="M29.47,54.12a.46.46,0,0,1-.38-.17.49.49,0,0,1,.05-.7c17.54-15.07,15.34-41.78,15.31-42a.5.5,0,0,1,1-.09c0,.27,2.28,27.49-15.66,42.89A.49.49,0,0,1,29.47,54.12Z"/><path class="cls-2" d="M42.1,60.93A4.25,4.25,0,0,1,38,55.52h0a4.25,4.25,0,0,1,8.18,2.32A4.26,4.26,0,0,1,42.1,60.93ZM39,55.8a3.24,3.24,0,1,0,1.54-2,3.28,3.28,0,0,0-1.54,2Z"/><circle class="cls-1" cx="78.73" cy="137.03" r="30.02"/><path class="cls-2" d="M60.08,151.71a1.5,1.5,0,0,1,0-3c1.32,0,2.63-.05,3.89-.15a1.5,1.5,0,1,1,.22,3c-1.33.09-2.71.15-4.1.15Zm-6-.26H54c-1.34-.11-2.7-.27-4.06-.46a1.5,1.5,0,0,1,.42-3c1.31.18,2.62.33,3.9.45a1.5,1.5,0,0,1-.13,3ZM70,150.78a1.5,1.5,0,0,1-.28-3c1.28-.25,2.54-.56,3.75-.91a1.5,1.5,0,0,1,.84,2.88c-1.3.38-2.66.71-4,1A1.43,1.43,0,0,1,70,150.78Zm-25.8-.84-.32,0c-1.3-.28-2.63-.6-4-.94a1.5,1.5,0,1,1,.75-2.9c1.28.33,2.57.63,3.83.9a1.5,1.5,0,0,1-.31,3Zm35.3-2.19a1.5,1.5,0,0,1-.63-2.86,33,33,0,0,0,3.38-1.8,1.5,1.5,0,0,1,1.56,2.56,34,34,0,0,1-3.68,2A1.41,1.41,0,0,1,79.51,147.75Zm-45-.39a1.41,1.41,0,0,1-.45-.07q-1.89-.6-3.84-1.29a1.5,1.5,0,0,1,1-2.83q1.9.68,3.75,1.26a1.5,1.5,0,0,1-.46,2.93Zm-9.4-3.4a1.55,1.55,0,0,1-.56-.11c-1.23-.5-2.47-1-3.72-1.57a1.5,1.5,0,1,1,1.19-2.75c1.24.54,2.45,1.05,3.65,1.54a1.5,1.5,0,0,1-.56,2.89Zm62.71-1.65a1.45,1.45,0,0,1-1.12-.5,1.42,1.42,0,0,1-.38-1h-.15a37.9,37.9,0,0,1-4.14-.37,1.5,1.5,0,0,1-1.28-1.69,1.52,1.52,0,0,1,1.7-1.28,37.07,37.07,0,0,0,3.83.34,1.51,1.51,0,0,1,1.38,1.07c.64-.62,1.25-1.27,1.83-1.93a1.5,1.5,0,0,1,2.59.63,37.44,37.44,0,0,0,3.77-.61,1.5,1.5,0,1,1,.62,2.94c-1.35.28-2.73.51-4.09.66a1.49,1.49,0,0,1-1.46-.73c-.67.71-1.37,1.4-2.11,2.05A1.45,1.45,0,0,1,87.86,142.31ZM16,139.91a1.51,1.51,0,0,1-.65-.15l-2.48-1.21a1.5,1.5,0,0,1,1.34-2.69l2.44,1.2a1.5,1.5,0,0,1-.65,2.85Zm60.42-.74a1.51,1.51,0,0,1-.46-.07,36.43,36.43,0,0,1-3.89-1.51,1.5,1.5,0,0,1,1.25-2.73,30.5,30.5,0,0,0,3.56,1.38,1.5,1.5,0,0,1-.46,2.93Zm25.53-.84a1.5,1.5,0,0,1-.51-2.91c1.2-.44,2.4-.95,3.55-1.5a1.5,1.5,0,0,1,1.3,2.71c-1.24.59-2.53,1.13-3.82,1.6A1.37,1.37,0,0,1,102,138.33Zm-34.42-3.64a1.55,1.55,0,0,1-.89-.29,30,30,0,0,1-3.2-2.74,1.5,1.5,0,0,1,2.11-2.14A26,26,0,0,0,68.43,132a1.5,1.5,0,0,1-.89,2.71Zm26.59-.1a1.56,1.56,0,0,1-.75-.2,1.49,1.49,0,0,1-.55-2,29.83,29.83,0,0,0,1.66-3.41,1.5,1.5,0,1,1,2.78,1.13,32.83,32.83,0,0,1-1.84,3.77A1.49,1.49,0,0,1,94.13,134.59Zm16.72-.8a1.5,1.5,0,0,1-.84-2.74c1.06-.72,2.1-1.5,3.07-2.31A1.5,1.5,0,0,1,115,131c-1.06.88-2.17,1.72-3.32,2.5A1.52,1.52,0,0,1,110.85,133.79Zm-50.1-6.35a1.51,1.51,0,0,1-1.27-.7,27.8,27.8,0,0,1-1.42-2.5c-.21-.41-.4-.82-.58-1.23a1.5,1.5,0,0,1,2.75-1.19c.16.36.33.71.51,1.07A23.47,23.47,0,0,0,62,125.13a1.51,1.51,0,0,1-1.26,2.31Zm57.59-.23a1.47,1.47,0,0,1-1-.39,1.49,1.49,0,0,1-.11-2.12c.87-1,1.71-2,2.48-3a1.5,1.5,0,0,1,2.38,1.83c-.82,1.07-1.71,2.14-2.64,3.16A1.48,1.48,0,0,1,118.34,127.21Zm-20.77-2-.28,0a1.49,1.49,0,0,1-1.19-1.75,29.83,29.83,0,0,0,.45-3.77,1.5,1.5,0,1,1,3,.16A32.74,32.74,0,0,1,99,124,1.49,1.49,0,0,1,97.57,125.25Zm26.68-6.08a1.49,1.49,0,0,1-1.29-2.25c.65-1.12,1.26-2.27,1.8-3.42a1.49,1.49,0,0,1,2-.73,1.51,1.51,0,0,1,.72,2c-.58,1.23-1.22,2.46-1.92,3.66A1.51,1.51,0,0,1,124.25,119.17Zm-66.89-1a1.51,1.51,0,0,1-1.5-1.36c0-.59-.08-1.19-.08-1.78a19.74,19.74,0,0,1,.17-2.55,1.5,1.5,0,0,1,3,.4,15.43,15.43,0,0,0-.15,2.15c0,.5,0,1,.07,1.5a1.49,1.49,0,0,1-1.35,1.63Zm40.38-2.83A1.5,1.5,0,0,1,96.26,114a26.25,26.25,0,0,0-.85-3.68,1.5,1.5,0,0,1,2.86-.9,28.5,28.5,0,0,1,1,4.11A1.49,1.49,0,0,1,98,115.28,1,1,0,0,1,97.74,115.3ZM128.27,110a1.35,1.35,0,0,1-.44-.07,1.5,1.5,0,0,1-1-1.87,37.24,37.24,0,0,0,1-3.74,1.51,1.51,0,0,1,1.77-1.17,1.49,1.49,0,0,1,1.17,1.77c-.27,1.35-.62,2.7-1,4A1.5,1.5,0,0,1,128.27,110Zm-69.11-1.62a1.51,1.51,0,0,1-1.36-2.15A23.28,23.28,0,0,1,60,102.61a1.5,1.5,0,0,1,2.42,1.78,19.63,19.63,0,0,0-1.92,3.18A1.49,1.49,0,0,1,59.16,108.42Zm35.26-2.49a1.5,1.5,0,0,1-1.29-.73A23.15,23.15,0,0,0,91,102.13a1.5,1.5,0,0,1,2.3-1.92,25.63,25.63,0,0,1,2.44,3.46,1.49,1.49,0,0,1-1.29,2.26Zm-29-5.24A1.5,1.5,0,0,1,64.44,98,24.42,24.42,0,0,1,68,95.67a1.5,1.5,0,1,1,1.44,2.63,21.82,21.82,0,0,0-3.11,2.07A1.46,1.46,0,0,1,65.38,100.69Zm64.67-.47H130a1.51,1.51,0,0,1-1.4-1.6c.07-1,.1-2,.1-3,0-.29,0-.58,0-.87a1.52,1.52,0,0,1,1.48-1.53,1.54,1.54,0,0,1,1.52,1.47c0,.32,0,.63,0,.94,0,1.06,0,2.13-.1,3.19A1.5,1.5,0,0,1,130.05,100.22ZM87.71,98.63a1.49,1.49,0,0,1-.83-.25,15.1,15.1,0,0,0-3.24-1.62,1.5,1.5,0,1,1,1-2.83,18.39,18.39,0,0,1,3.89,1.95A1.5,1.5,0,0,1,89,98,1.48,1.48,0,0,1,87.71,98.63ZM74.29,96.35a1.5,1.5,0,0,1-.33-3,19.69,19.69,0,0,1,4.28-.51h0a1.5,1.5,0,0,1,0,3,17.64,17.64,0,0,0-3.65.43A1.24,1.24,0,0,1,74.29,96.35Zm55.38-6.1a1.5,1.5,0,0,1-1.48-1.3c-.17-1.27-.39-2.56-.66-3.84a1.5,1.5,0,1,1,2.94-.61c.28,1.35.51,2.71.69,4a1.49,1.49,0,0,1-1.28,1.69Zm-2.18-9.75a1.52,1.52,0,0,1-1.44-1.06c-.38-1.23-.81-2.48-1.27-3.7a1.5,1.5,0,0,1,2.81-1.06c.48,1.28.93,2.59,1.33,3.87a1.51,1.51,0,0,1-1,1.88A1.75,1.75,0,0,1,127.49,80.5Zm-3.63-9.32a1.49,1.49,0,0,1-1.36-.87c-.55-1.16-1.14-2.34-1.76-3.51a1.5,1.5,0,0,1,2.65-1.41c.65,1.22,1.26,2.44,1.83,3.65a1.51,1.51,0,0,1-.73,2A1.56,1.56,0,0,1,123.86,71.18Zm-4.81-8.77a1.51,1.51,0,0,1-1.27-.7c-1.29-2-2.18-3.19-2.19-3.2A1.5,1.5,0,0,1,118,56.68s1,1.26,2.34,3.42a1.51,1.51,0,0,1-1.26,2.31Z"/><polygon class="cls-2" points="19 131.52 4.06 132.13 12.06 144.77 19 131.52"/><path class="cls-2" d="M133,128a.5.5,0,0,1-.32-.88c.26-.22,25.59-22.22,11.65-52a.5.5,0,0,1,.91-.42c14.27,30.53-11.65,53-11.91,53.23A.52.52,0,0,1,133,128Z"/><path class="cls-2" d="M126.77,136.83a4.25,4.25,0,0,1-3.69-6.35,4.25,4.25,0,1,1,7.39,4.2h0a4.2,4.2,0,0,1-2.57,2A4.33,4.33,0,0,1,126.77,136.83Zm0-7.5a3.25,3.25,0,0,0-3.14,4.11,3.25,3.25,0,0,0,6,.75h0a3.25,3.25,0,0,0-2.82-4.86Zm3.26,5.1h0Z"/><path class="cls-2" d="M148.13,129.17a4.2,4.2,0,0,1-2.09-.56,4.25,4.25,0,1,1,3.23.4A4.08,4.08,0,0,1,148.13,129.17Zm0-7.5a3.25,3.25,0,1,0,.86,6.38,3.17,3.17,0,0,0,2-1.53,3.24,3.24,0,0,0-1.22-4.43A3.17,3.17,0,0,0,148.14,121.67Z"/><circle class="cls-1" cx="78.73" cy="137.03" r="30.02"/><path class="cls-2" d="M60.08,151.71a1.5,1.5,0,0,1,0-3c1.32,0,2.63-.05,3.89-.15a1.5,1.5,0,1,1,.22,3c-1.33.09-2.71.15-4.1.15Zm-6-.26H54c-1.34-.11-2.7-.27-4.06-.46a1.5,1.5,0,0,1,.42-3c1.31.18,2.62.33,3.9.45a1.5,1.5,0,0,1-.13,3ZM70,150.78a1.5,1.5,0,0,1-.28-3c1.28-.25,2.54-.56,3.75-.91a1.5,1.5,0,0,1,.84,2.88c-1.3.38-2.66.71-4,1A1.43,1.43,0,0,1,70,150.78Zm-25.8-.84-.32,0c-1.3-.28-2.63-.6-4-.94a1.5,1.5,0,1,1,.75-2.9c1.28.33,2.57.63,3.83.9a1.5,1.5,0,0,1-.31,3Zm35.3-2.19a1.5,1.5,0,0,1-.63-2.86,33,33,0,0,0,3.38-1.8,1.5,1.5,0,0,1,1.56,2.56,34,34,0,0,1-3.68,2A1.41,1.41,0,0,1,79.51,147.75Zm-45-.39a1.41,1.41,0,0,1-.45-.07q-1.89-.6-3.84-1.29a1.5,1.5,0,0,1,1-2.83q1.9.68,3.75,1.26a1.5,1.5,0,0,1-.46,2.93Zm-9.4-3.4a1.55,1.55,0,0,1-.56-.11c-1.23-.5-2.47-1-3.72-1.57a1.5,1.5,0,1,1,1.19-2.75c1.24.54,2.45,1.05,3.65,1.54a1.5,1.5,0,0,1-.56,2.89Zm62.71-1.65a1.45,1.45,0,0,1-1.12-.5,1.42,1.42,0,0,1-.38-1h-.15a37.9,37.9,0,0,1-4.14-.37,1.5,1.5,0,0,1-1.28-1.69,1.52,1.52,0,0,1,1.7-1.28,37.07,37.07,0,0,0,3.83.34,1.51,1.51,0,0,1,1.38,1.07c.64-.62,1.25-1.27,1.83-1.93a1.5,1.5,0,0,1,2.59.63,37.44,37.44,0,0,0,3.77-.61,1.5,1.5,0,1,1,.62,2.94c-1.35.28-2.73.51-4.09.66a1.49,1.49,0,0,1-1.46-.73c-.67.71-1.37,1.4-2.11,2.05A1.45,1.45,0,0,1,87.86,142.31ZM16,139.91a1.51,1.51,0,0,1-.65-.15l-2.48-1.21a1.5,1.5,0,0,1,1.34-2.69l2.44,1.2a1.5,1.5,0,0,1-.65,2.85Zm60.42-.74a1.51,1.51,0,0,1-.46-.07,36.43,36.43,0,0,1-3.89-1.51,1.5,1.5,0,0,1,1.25-2.73,30.5,30.5,0,0,0,3.56,1.38,1.5,1.5,0,0,1-.46,2.93Zm25.53-.84a1.5,1.5,0,0,1-.51-2.91c1.2-.44,2.4-.95,3.55-1.5a1.5,1.5,0,0,1,1.3,2.71c-1.24.59-2.53,1.13-3.82,1.6A1.37,1.37,0,0,1,102,138.33Zm-34.42-3.64a1.55,1.55,0,0,1-.89-.29,30,30,0,0,1-3.2-2.74,1.5,1.5,0,0,1,2.11-2.14A26,26,0,0,0,68.43,132a1.5,1.5,0,0,1-.89,2.71Zm26.59-.1a1.56,1.56,0,0,1-.75-.2,1.49,1.49,0,0,1-.55-2,29.83,29.83,0,0,0,1.66-3.41,1.5,1.5,0,1,1,2.78,1.13,32.83,32.83,0,0,1-1.84,3.77A1.49,1.49,0,0,1,94.13,134.59Zm16.72-.8a1.5,1.5,0,0,1-.84-2.74c1.06-.72,2.1-1.5,3.07-2.31A1.5,1.5,0,0,1,115,131c-1.06.88-2.17,1.72-3.32,2.5A1.52,1.52,0,0,1,110.85,133.79Zm-50.1-6.35a1.51,1.51,0,0,1-1.27-.7,27.8,27.8,0,0,1-1.42-2.5c-.21-.41-.4-.82-.58-1.23a1.5,1.5,0,0,1,2.75-1.19c.16.36.33.71.51,1.07A23.47,23.47,0,0,0,62,125.13a1.51,1.51,0,0,1-1.26,2.31Zm57.59-.23a1.47,1.47,0,0,1-1-.39,1.49,1.49,0,0,1-.11-2.12c.87-1,1.71-2,2.48-3a1.5,1.5,0,0,1,2.38,1.83c-.82,1.07-1.71,2.14-2.64,3.16A1.48,1.48,0,0,1,118.34,127.21Zm-20.77-2-.28,0a1.49,1.49,0,0,1-1.19-1.75,29.83,29.83,0,0,0,.45-3.77,1.5,1.5,0,1,1,3,.16A32.74,32.74,0,0,1,99,124,1.49,1.49,0,0,1,97.57,125.25Zm26.68-6.08a1.49,1.49,0,0,1-1.29-2.25c.65-1.12,1.26-2.27,1.8-3.42a1.49,1.49,0,0,1,2-.73,1.51,1.51,0,0,1,.72,2c-.58,1.23-1.22,2.46-1.92,3.66A1.51,1.51,0,0,1,124.25,119.17Zm-66.89-1a1.51,1.51,0,0,1-1.5-1.36c0-.59-.08-1.19-.08-1.78a19.74,19.74,0,0,1,.17-2.55,1.5,1.5,0,0,1,3,.4,15.43,15.43,0,0,0-.15,2.15c0,.5,0,1,.07,1.5a1.49,1.49,0,0,1-1.35,1.63Zm40.38-2.83A1.5,1.5,0,0,1,96.26,114a26.25,26.25,0,0,0-.85-3.68,1.5,1.5,0,0,1,2.86-.9,28.5,28.5,0,0,1,1,4.11A1.49,1.49,0,0,1,98,115.28,1,1,0,0,1,97.74,115.3ZM128.27,110a1.35,1.35,0,0,1-.44-.07,1.5,1.5,0,0,1-1-1.87,37.24,37.24,0,0,0,1-3.74,1.51,1.51,0,0,1,1.77-1.17,1.49,1.49,0,0,1,1.17,1.77c-.27,1.35-.62,2.7-1,4A1.5,1.5,0,0,1,128.27,110Zm-69.11-1.62a1.51,1.51,0,0,1-1.36-2.15A23.28,23.28,0,0,1,60,102.61a1.5,1.5,0,0,1,2.42,1.78,19.63,19.63,0,0,0-1.92,3.18A1.49,1.49,0,0,1,59.16,108.42Zm35.26-2.49a1.5,1.5,0,0,1-1.29-.73A23.15,23.15,0,0,0,91,102.13a1.5,1.5,0,0,1,2.3-1.92,25.63,25.63,0,0,1,2.44,3.46,1.49,1.49,0,0,1-1.29,2.26Zm-29-5.24A1.5,1.5,0,0,1,64.44,98,24.42,24.42,0,0,1,68,95.67a1.5,1.5,0,1,1,1.44,2.63,21.82,21.82,0,0,0-3.11,2.07A1.46,1.46,0,0,1,65.38,100.69Zm64.67-.47H130a1.51,1.51,0,0,1-1.4-1.6c.07-1,.1-2,.1-3,0-.29,0-.58,0-.87a1.52,1.52,0,0,1,1.48-1.53,1.54,1.54,0,0,1,1.52,1.47c0,.32,0,.63,0,.94,0,1.06,0,2.13-.1,3.19A1.5,1.5,0,0,1,130.05,100.22ZM87.71,98.63a1.49,1.49,0,0,1-.83-.25,15.1,15.1,0,0,0-3.24-1.62,1.5,1.5,0,1,1,1-2.83,18.39,18.39,0,0,1,3.89,1.95A1.5,1.5,0,0,1,89,98,1.48,1.48,0,0,1,87.71,98.63ZM74.29,96.35a1.5,1.5,0,0,1-.33-3,19.69,19.69,0,0,1,4.28-.51h0a1.5,1.5,0,0,1,0,3,17.64,17.64,0,0,0-3.65.43A1.24,1.24,0,0,1,74.29,96.35Zm55.38-6.1a1.5,1.5,0,0,1-1.48-1.3c-.17-1.27-.39-2.56-.66-3.84a1.5,1.5,0,1,1,2.94-.61c.28,1.35.51,2.71.69,4a1.49,1.49,0,0,1-1.28,1.69Zm-2.18-9.75a1.52,1.52,0,0,1-1.44-1.06c-.38-1.23-.81-2.48-1.27-3.7a1.5,1.5,0,0,1,2.81-1.06c.48,1.28.93,2.59,1.33,3.87a1.51,1.51,0,0,1-1,1.88A1.75,1.75,0,0,1,127.49,80.5Zm-3.63-9.32a1.49,1.49,0,0,1-1.36-.87c-.55-1.16-1.14-2.34-1.76-3.51a1.5,1.5,0,0,1,2.65-1.41c.65,1.22,1.26,2.44,1.83,3.65a1.51,1.51,0,0,1-.73,2A1.56,1.56,0,0,1,123.86,71.18Zm-4.81-8.77a1.51,1.51,0,0,1-1.27-.7c-1.29-2-2.18-3.19-2.19-3.2A1.5,1.5,0,0,1,118,56.68s1,1.26,2.34,3.42a1.51,1.51,0,0,1-1.26,2.31Z"/><polygon class="cls-2" points="19 131.52 4.06 132.13 12.06 144.77 19 131.52"/><path class="cls-2" d="M133,128a.5.5,0,0,1-.32-.88c.26-.22,25.59-22.22,11.65-52a.5.5,0,0,1,.91-.42c14.27,30.53-11.65,53-11.91,53.23A.52.52,0,0,1,133,128Z"/><path class="cls-2" d="M126.77,136.83a4.25,4.25,0,0,1-3.69-6.35,4.25,4.25,0,1,1,7.39,4.2h0a4.2,4.2,0,0,1-2.57,2A4.33,4.33,0,0,1,126.77,136.83Zm0-7.5a3.25,3.25,0,0,0-3.14,4.11,3.25,3.25,0,0,0,6,.75h0a3.25,3.25,0,0,0-2.82-4.86Zm3.26,5.1h0Z"/><path class="cls-2" d="M148.13,129.17a4.2,4.2,0,0,1-2.09-.56,4.25,4.25,0,1,1,3.23.4A4.08,4.08,0,0,1,148.13,129.17Zm0-7.5a3.25,3.25,0,1,0,.86,6.38,3.17,3.17,0,0,0,2-1.53,3.24,3.24,0,0,0-1.22-4.43A3.17,3.17,0,0,0,148.14,121.67Z"/></svg>