<svg id="Layer_1" data-name="Layer 1" xmlns="http://www.w3.org/2000/svg" viewBox="0 0 286 68.34"><defs><style>.cls-1{fill:#53555f;}.cls-2{fill:#fdb809;}</style></defs><title>logo</title><path class="cls-1" d="M65.8,23c-7.92,0-13,3.3-15.65,7.45a2.93,2.93,0,0,0-.47,1.6,2.73,2.73,0,0,0,2.73,2.73,3.06,3.06,0,0,0,2.45-1.32c2.92-3.3,5.94-4.8,10.94-4.8,6.88,0,11.12,4,11.12,10.37v2.54H63.63c-10.18,0-16.5,5-16.5,13.29,0,8.67,6.32,13.48,16.31,13.48,5.66,0,11.12-2.35,13.48-6.79V65a2.92,2.92,0,0,0,5.84,0V39C82.76,29.41,76.73,23,65.8,23ZM76.92,50.81c0,8-6.32,12.06-12.91,12.06-7.36,0-10.75-3.11-10.75-8,0-5.47,4.24-8,10.37-8H76.92Z"/><path class="cls-1" d="M34.78,0a3,3,0,0,0-3,3V29.13A16,16,0,0,0,19,23C6.79,23,0,30.16,0,45.62S7.16,68.34,19.32,68.34c10.75,0,18.48-6.13,18.48-18.57V3A3,3,0,0,0,34.78,0Zm-3,49.77c0,9-5.19,13.1-12.45,13.1C10.65,62.87,6,57.41,6,45.62,6,34,10.75,28.47,19.32,28.47c8.87,0,12.45,8.29,12.45,8.29Z"/><path class="cls-1" d="M108.59,30a2.83,2.83,0,0,0,0-5.66h-6.12v-9.9a3,3,0,0,0-3-3,3.1,3.1,0,0,0-3,3v9.9H92.76a2.83,2.83,0,1,0,0,5.66h3.67V56c0,6.88,4.06,11.88,11.5,11.88a2.83,2.83,0,1,0,0-5.66c-3.2,0-5.46-2.16-5.46-6.22V30Z"/><path class="cls-1" d="M136.12,23c-7.92,0-13,3.3-15.65,7.45a2.93,2.93,0,0,0-.47,1.6,2.73,2.73,0,0,0,2.73,2.73,3.06,3.06,0,0,0,2.45-1.32c2.93-3.3,5.94-4.8,10.94-4.8,6.88,0,11.12,4,11.12,10.37v2.54H134c-10.18,0-16.5,5-16.5,13.29,0,8.67,6.32,13.48,16.31,13.48,5.66,0,11.13-2.35,13.48-6.79V65a2.93,2.93,0,0,0,5.85,0V39C153.09,29.41,147.05,23,136.12,23Zm11.12,27.81c0,8-6.31,12.06-12.91,12.06-7.36,0-10.75-3.11-10.75-8,0-5.47,4.24-8,10.37-8h13.29Z"/><path class="cls-2" d="M286,41.38C286,35,283.08,23,268,23c-12.26,0-19.42,8.11-19.42,22.62,0,15.84,7.82,22.72,20.36,22.72,8.39,0,13.29-3.86,14.7-5.28a2.8,2.8,0,0,0,1-2.16A2.74,2.74,0,0,0,282,58.16a2.62,2.62,0,0,0-1.7.57,17.35,17.35,0,0,1-11.31,4.05c-8.86,0-14.24-6-14.24-15.36h27.53C286,47.42,286,44.12,286,41.38Zm-31.3.76c.57-8.39,5.09-13.67,13.3-13.67,9.7,0,12.06,6.88,12.06,13.67Z"/><path class="cls-2" d="M193.71,58.16a2.82,2.82,0,0,0-1.79.66,17.15,17.15,0,0,1-10.93,4c-8.67,0-13.29-5.46-13.29-17.25,0-11.59,4.62-17.15,13.29-17.15,6.22,0,8.77,2.83,10.18,4.43A2.82,2.82,0,0,0,193.43,34a2.68,2.68,0,0,0,2.74-2.73,2.8,2.8,0,0,0-.66-1.79C194,27.43,189.38,23,181,23c-12.16,0-19.42,7.16-19.42,22.62S168.83,68.34,181,68.34a21.47,21.47,0,0,0,14.23-5.09,2.92,2.92,0,0,0,1.23-2.35A2.74,2.74,0,0,0,193.71,58.16Z"/><path class="cls-2" d="M237.17,23.57a3.05,3.05,0,0,0-3.11,3V51.19c0,6.12-2,11.4-11.5,11.4s-11.5-5.28-11.5-11.4V26.58a3,3,0,0,0-3-3,3,3,0,0,0-3,3V51.19c0,9,3,17.15,17.53,17.15s17.53-8.2,17.53-17.15V26.58A3,3,0,0,0,237.17,23.57Z"/></svg>