<svg id="Layer_1" data-name="Layer 1" xmlns="http://www.w3.org/2000/svg" viewBox="0 0 214.98 200"><defs><style>.cls-1{fill:#fdb809;}</style></defs><title>stars-icon</title><path class="cls-1" d="M108.18,63.41a2.11,2.11,0,0,0-2.11,2.11V67.2a2.11,2.11,0,1,0,4.22,0V65.52A2.11,2.11,0,0,0,108.18,63.41Z"/><path class="cls-1" d="M108.18,121.86a2.11,2.11,0,0,0-2.11,2.1v3.44a2.11,2.11,0,1,0,4.22,0V124A2.11,2.11,0,0,0,108.18,121.86Z"/><path class="cls-1" d="M108.18,133.9a2.11,2.11,0,0,0-2.11,2.1v3.44a2.11,2.11,0,0,0,4.22,0V136A2.11,2.11,0,0,0,108.18,133.9Z"/><path class="cls-1" d="M108.18,109.82a2.11,2.11,0,0,0-2.11,2.1v3.44a2.11,2.11,0,1,0,4.22,0v-3.44A2.11,2.11,0,0,0,108.18,109.82Z"/><path class="cls-1" d="M108.18,170a2.11,2.11,0,0,0-2.11,2.11v3.44a2.11,2.11,0,0,0,4.22,0v-3.44A2.11,2.11,0,0,0,108.18,170Z"/><path class="cls-1" d="M108.18,97.78a2.11,2.11,0,0,0-2.11,2.1v3.44a2.11,2.11,0,0,0,4.22,0V99.88A2.11,2.11,0,0,0,108.18,97.78Z"/><path class="cls-1" d="M108.18,73.7a2.11,2.11,0,0,0-2.11,2.1v3.44a2.11,2.11,0,1,0,4.22,0V75.8A2.11,2.11,0,0,0,108.18,73.7Z"/><path class="cls-1" d="M108.18,145.94a2.11,2.11,0,0,0-2.11,2.1v3.45a2.11,2.11,0,0,0,4.22,0V148A2.11,2.11,0,0,0,108.18,145.94Z"/><path class="cls-1" d="M108.18,85.74a2.11,2.11,0,0,0-2.11,2.1v3.44a2.11,2.11,0,1,0,4.22,0V87.84A2.11,2.11,0,0,0,108.18,85.74Z"/><path class="cls-1" d="M108.18,158a2.11,2.11,0,0,0-2.11,2.11v3.44a2.11,2.11,0,0,0,4.22,0v-3.44A2.11,2.11,0,0,0,108.18,158Z"/><path class="cls-1" d="M108.18,182.06a2.11,2.11,0,0,0-2.11,2.11v3.44a2.11,2.11,0,0,0,4.22,0v-3.44A2.11,2.11,0,0,0,108.18,182.06Z"/><path class="cls-1" d="M108.18,194.1a2.11,2.11,0,0,0-2.11,2.11v1.68a2.11,2.11,0,1,0,4.22,0v-1.68A2.11,2.11,0,0,0,108.18,194.1Z"/><path class="cls-1" d="M124.48,31.18a3.88,3.88,0,0,0-3.15-2.66l-6.67-1-3-6a3.9,3.9,0,0,0-7,0l-3,6-6.67,1a3.9,3.9,0,0,0-2.16,6.66l4.82,4.7-1.14,6.64a3.91,3.91,0,0,0,5.67,4.12l6-3.14,6,3.14a4,4,0,0,0,1.82.45,3.85,3.85,0,0,0,2.29-.75,3.89,3.89,0,0,0,1.56-3.82l-1.14-6.64,4.82-4.7A3.89,3.89,0,0,0,124.48,31.18ZM115.61,37a3.88,3.88,0,0,0-1.12,3.45l1.05,6.18L110,43.69a4,4,0,0,0-3.64,0l-5.55,2.92,1.06-6.18A3.88,3.88,0,0,0,100.75,37L96.26,32.6l6.21-.9a3.88,3.88,0,0,0,2.93-2.14l2.78-5.62L111,29.57a3.92,3.92,0,0,0,2.94,2.13l6.21.9Z"/><path class="cls-1" d="M133.22,62.9l-2.81-16.35a2.23,2.23,0,0,1,.64-2L142.93,33a6.43,6.43,0,0,0-3.56-11,2.11,2.11,0,0,0-.61,4.18A2.2,2.2,0,0,1,140,30L128.1,41.57a6.44,6.44,0,0,0-1.84,5.69l2.8,16.35a2.2,2.2,0,0,1-3.2,2.33l-14.69-7.72a6.45,6.45,0,0,0-6,0L90.5,65.94a2.2,2.2,0,0,1-3.2-2.33l2.8-16.35a6.41,6.41,0,0,0-1.84-5.68L76.37,30a2.21,2.21,0,0,1,1.23-3.76L94,23.84a6.41,6.41,0,0,0,4.83-3.51L106.2,5.45a2.21,2.21,0,0,1,4,0l7.34,14.88a6.44,6.44,0,0,0,4.84,3.51,2.11,2.11,0,0,0,.61-4.17,2.25,2.25,0,0,1-1.67-1.21L113.94,3.58a6.42,6.42,0,0,0-11.52,0L95.08,18.46a2.25,2.25,0,0,1-1.67,1.21L77,22.05a6.43,6.43,0,0,0-3.56,11L85.31,44.59a2.23,2.23,0,0,1,.64,2L83.14,62.9a6.43,6.43,0,0,0,9.33,6.78L107.15,62a2.27,2.27,0,0,1,2.06,0l14.68,7.73a6.55,6.55,0,0,0,3,.74,6.44,6.44,0,0,0,6.33-7.52Z"/><circle class="cls-1" cx="131.03" cy="22.75" r="1.9"/><path class="cls-1" d="M157.27,77.61l9.64.38a.37.37,0,0,1,.32.19l5.15,8.15a4.58,4.58,0,0,0,3.89,2.15,4.18,4.18,0,0,0,.5,0,4.61,4.61,0,0,0,3.85-3l3.34-9a.37.37,0,0,1,.28-.25l9.34-2.38a4.62,4.62,0,0,0,1.73-8.1A2.11,2.11,0,1,0,192.69,69a.39.39,0,0,1,.15.4.4.4,0,0,1-.3.31l-9.34,2.37A4.63,4.63,0,0,0,180,75L176.66,84a.39.39,0,0,1-.71.07l-5.15-8.15a4.63,4.63,0,0,0-3.72-2.15l-9.64-.38a.37.37,0,0,1-.35-.24.38.38,0,0,1,0-.42l6.17-7.42a4.62,4.62,0,0,0,.89-4.2l-2.61-9.29a.4.4,0,0,1,.53-.48l9,3.57a4.62,4.62,0,0,0,4.28-.45l8-5.35a.36.36,0,0,1,.42,0,.38.38,0,0,1,.2.38l-.63,9.62A4.65,4.65,0,0,0,185.12,63a2.11,2.11,0,1,0,2.61-3.31.4.4,0,0,1-.15-.34l.63-9.63A4.62,4.62,0,0,0,181,45.61L173,51a.42.42,0,0,1-.38,0l-9-3.58A4.62,4.62,0,0,0,157.53,53l2.62,9.28a.42.42,0,0,1-.08.36L153.9,70a4.63,4.63,0,0,0,3.37,7.57Z"/><path class="cls-1" d="M189.41,66a1.9,1.9,0,1,0-.69-2.59A1.88,1.88,0,0,0,189.41,66Z"/><path class="cls-1" d="M213.89,122.78a2.11,2.11,0,0,0-3.23,2.71.36.36,0,0,1,.06.42.37.37,0,0,1-.35.24l-9.63.43a4.61,4.61,0,0,0-3.71,2.17l-5.11,8.18a.38.38,0,0,1-.38.19.39.39,0,0,1-.33-.26l-3.39-9a4.66,4.66,0,0,0-3.21-2.86l-9.36-2.33a.39.39,0,0,1-.15-.7l7.54-6a4.63,4.63,0,0,0,1.72-3.94l-.68-9.62a.37.37,0,0,1,.2-.37.36.36,0,0,1,.43,0l8.05,5.31a4.6,4.6,0,0,0,4.27.43l8.94-3.62a.38.38,0,0,1,.42.07.39.39,0,0,1,.12.41l-2.57,9.3a4.61,4.61,0,0,0,.92,4.19,2.11,2.11,0,1,0,3.23-2.71.37.37,0,0,1-.08-.36l2.56-9.3a4.62,4.62,0,0,0-6.18-5.51l-8.94,3.62a.38.38,0,0,1-.37,0l-8.05-5.31a4.62,4.62,0,0,0-7.15,4.18l.68,9.62a.4.4,0,0,1-.15.34l-7.54,6a4.63,4.63,0,0,0,1.76,8.1l9.36,2.32a.41.41,0,0,1,.28.25l3.39,9a4.57,4.57,0,0,0,3.86,3l.47,0a4.58,4.58,0,0,0,3.91-2.18l5.11-8.18a.42.42,0,0,1,.32-.19l9.63-.43a4.62,4.62,0,0,0,3.33-7.58Z"/><path class="cls-1" d="M207.91,119.16a1.9,1.9,0,1,0,2.68-.15A1.91,1.91,0,0,0,207.91,119.16Z"/><path class="cls-1" d="M132.59,194.11a2.11,2.11,0,0,0-2,2.26c.08,1.12.14,1.72.14,1.72a2.1,2.1,0,0,0,2.09,1.91h.21a2.11,2.11,0,0,0,1.89-2.3s-.05-.58-.13-1.63A2.1,2.1,0,0,0,132.59,194.11Z"/><path class="cls-1" d="M144.44,109.19a2.11,2.11,0,0,0-2.76,1.14c-.45,1.09-.89,2.22-1.32,3.35a2.1,2.1,0,0,0,1.23,2.71,1.91,1.91,0,0,0,.74.14,2.11,2.11,0,0,0,2-1.36c.41-1.09.84-2.18,1.28-3.23A2.11,2.11,0,0,0,144.44,109.19Z"/><path class="cls-1" d="M132.2,177.17h0a2.11,2.11,0,0,0,2.11-2.07c0-1.14.05-2.3.09-3.5a2.11,2.11,0,0,0-4.21-.14c0,1.22-.07,2.41-.09,3.56A2.1,2.1,0,0,0,132.2,177.17Z"/><path class="cls-1" d="M136.94,132.7a2.11,2.11,0,0,0-2.49,1.63c-.25,1.17-.48,2.33-.7,3.5a2.12,2.12,0,0,0,1.69,2.46,2.58,2.58,0,0,0,.39,0,2.12,2.12,0,0,0,2.07-1.72c.21-1.14.44-2.28.67-3.41A2.11,2.11,0,0,0,136.94,132.7Z"/><path class="cls-1" d="M140.12,120.77a2.11,2.11,0,0,0-2.62,1.42c-.34,1.14-.66,2.29-1,3.45a2.1,2.1,0,0,0,1.48,2.58,2.13,2.13,0,0,0,2.59-1.49c.3-1.11.61-2.23.94-3.34A2.09,2.09,0,0,0,140.12,120.77Z"/><path class="cls-1" d="M157.5,88.34a2.11,2.11,0,0,0-3,.25c-.77.92-1.53,1.88-2.27,2.85a2.11,2.11,0,0,0,.42,3,2.07,2.07,0,0,0,1.26.43,2.12,2.12,0,0,0,1.69-.84c.69-.91,1.4-1.81,2.13-2.67A2.11,2.11,0,0,0,157.5,88.34Z"/><path class="cls-1" d="M150.14,98.24a2.13,2.13,0,0,0-2.89.76c-.59,1-1.18,2.09-1.75,3.17a2.1,2.1,0,0,0,.88,2.84,2.08,2.08,0,0,0,1,.25,2.11,2.11,0,0,0,1.86-1.13c.54-1,1.1-2,1.67-3A2.12,2.12,0,0,0,150.14,98.24Z"/><path class="cls-1" d="M134.69,144.84a2.11,2.11,0,0,0-2.38,1.79c-.16,1.19-.32,2.36-.46,3.54a2.1,2.1,0,0,0,1.83,2.34,1.18,1.18,0,0,0,.26,0,2.1,2.1,0,0,0,2.09-1.85c.14-1.15.29-2.3.46-3.46A2.1,2.1,0,0,0,134.69,144.84Z"/><path class="cls-1" d="M132.3,189.52h.07a2.11,2.11,0,0,0,2-2.17c0-1.1-.06-2.26-.08-3.5a2.09,2.09,0,0,0-2.1-2.07h0a2.1,2.1,0,0,0-2.08,2.14c0,1.25,0,2.44.08,3.55A2.1,2.1,0,0,0,132.3,189.52Z"/><path class="cls-1" d="M133.21,157.1a2.11,2.11,0,0,0-2.27,1.93c-.1,1.19-.19,2.38-.27,3.55a2.1,2.1,0,0,0,2,2.24h.15a2.11,2.11,0,0,0,2.1-2c.07-1.15.16-2.31.26-3.49A2.11,2.11,0,0,0,133.21,157.1Z"/><path class="cls-1" d="M162.21,81c-.45.38-.9.76-1.33,1.14a2.11,2.11,0,0,0,2.78,3.17l1.23-1.06A2.11,2.11,0,1,0,162.21,81Z"/><path class="cls-1" d="M160.29,194.1a2.11,2.11,0,0,0-2,2.16c0,1.13.06,1.76.06,1.76a2.11,2.11,0,0,0,2.1,2h.13a2.11,2.11,0,0,0,2-2.23s0-.59-.06-1.61A2.1,2.1,0,0,0,160.29,194.1Z"/><path class="cls-1" d="M164.78,160.24a2.1,2.1,0,0,0-2.58,1.49c-.29,1.08-.56,2.16-.81,3.23a2.1,2.1,0,0,0,1.57,2.53,2,2,0,0,0,.48.06,2.11,2.11,0,0,0,2.05-1.63c.24-1,.5-2.06.78-3.1A2.11,2.11,0,0,0,164.78,160.24Z"/><path class="cls-1" d="M168.74,149.54a2.1,2.1,0,0,0-2.76,1.11c-.43,1-.85,2.06-1.24,3.12a2.1,2.1,0,1,0,3.94,1.48c.38-1,.77-2,1.18-2.95A2.1,2.1,0,0,0,168.74,149.54Z"/><path class="cls-1" d="M174.5,139.69a2.11,2.11,0,0,0-2.93.56c-.62.92-1.23,1.89-1.81,2.87a2.11,2.11,0,1,0,3.63,2.14c.54-.91,1.1-1.8,1.67-2.65A2.1,2.1,0,0,0,174.5,139.69Z"/><path class="cls-1" d="M160.76,182.7a2.1,2.1,0,0,0-2.24,2c-.08,1.16-.14,2.26-.19,3.31a2.1,2.1,0,0,0,2,2.19h.09a2.12,2.12,0,0,0,2.11-2c0-1,.1-2.08.17-3.21A2.1,2.1,0,0,0,160.76,182.7Z"/><path class="cls-1" d="M162.21,171.37a2.1,2.1,0,0,0-2.41,1.75c-.17,1.12-.33,2.21-.47,3.29a2.11,2.11,0,0,0,1.82,2.36l.27,0a2.11,2.11,0,0,0,2.09-1.84c.14-1,.29-2.1.46-3.17A2.11,2.11,0,0,0,162.21,171.37Z"/><path class="cls-1" d="M178.18,132.39c-.43.41-.85.82-1.26,1.24a2.1,2.1,0,0,0,1.51,3.58,2.07,2.07,0,0,0,1.51-.64c.37-.38.75-.75,1.14-1.12a2.11,2.11,0,1,0-2.9-3.06Z"/><path class="cls-1" d="M21.4,73.79l9.34,2.38a.39.39,0,0,1,.28.25l3.34,9a4.59,4.59,0,0,0,3.85,3,4.1,4.1,0,0,0,.49,0,4.59,4.59,0,0,0,3.9-2.15l5.15-8.15a.37.37,0,0,1,.32-.19l9.64-.38A4.63,4.63,0,0,0,61.08,70l-6.17-7.41a.45.45,0,0,1-.08-.37L57.45,53a4.63,4.63,0,0,0-6.16-5.55l-9,3.58A.44.44,0,0,1,42,51l-8-5.36a4.62,4.62,0,0,0-7.17,4.14l.63,9.63a.4.4,0,0,1-.15.34A2.11,2.11,0,0,0,29.86,63,4.62,4.62,0,0,0,31.6,59.1L31,49.48a.38.38,0,0,1,.2-.38.36.36,0,0,1,.42,0l8,5.35a4.62,4.62,0,0,0,4.28.45l9-3.57a.4.4,0,0,1,.53.48l-2.61,9.29a4.59,4.59,0,0,0,.89,4.2l6.16,7.42a.36.36,0,0,1,.06.42.38.38,0,0,1-.35.24l-9.64.38a4.6,4.6,0,0,0-3.72,2.15L39,84.08a.37.37,0,0,1-.38.19.38.38,0,0,1-.33-.26L35,75a4.59,4.59,0,0,0-3.19-2.88l-9.35-2.37a.41.41,0,0,1-.15-.71,2.11,2.11,0,0,0-2.61-3.31,4.62,4.62,0,0,0,1.73,8.1Z"/><path class="cls-1" d="M25.57,66A1.9,1.9,0,1,0,23,65.26,1.89,1.89,0,0,0,25.57,66Z"/><path class="cls-1" d="M44.14,123.24a4.58,4.58,0,0,0-1.63-4.6l-7.54-6a.4.4,0,0,1-.15-.34l.68-9.62a4.62,4.62,0,0,0-7.15-4.18l-8,5.31a.38.38,0,0,1-.37,0L11,100.22a4.62,4.62,0,0,0-6.19,5.51L7.37,115a.37.37,0,0,1-.08.36,2.11,2.11,0,0,0,3.23,2.71,4.59,4.59,0,0,0,.91-4.2l-2.56-9.29A.36.36,0,0,1,9,104.2a.38.38,0,0,1,.42-.07l8.94,3.62a4.6,4.6,0,0,0,4.27-.43L30.67,102a.36.36,0,0,1,.43,0,.35.35,0,0,1,.19.37L30.62,112a4.61,4.61,0,0,0,1.72,3.94l7.54,6a.37.37,0,0,1,.14.4.36.36,0,0,1-.29.3L30.37,125a4.66,4.66,0,0,0-3.21,2.86l-3.39,9a.39.39,0,0,1-.33.26.4.4,0,0,1-.39-.19L18,128.75a4.63,4.63,0,0,0-3.71-2.17l-9.64-.43a.39.39,0,0,1-.35-.24.4.4,0,0,1,.06-.42,2.1,2.1,0,1,0-3.22-2.71,4.61,4.61,0,0,0,3.32,7.58l9.64.43a.42.42,0,0,1,.32.19l5.11,8.18a4.58,4.58,0,0,0,3.9,2.18,3.59,3.59,0,0,0,.47,0,4.57,4.57,0,0,0,3.87-3l3.39-9a.39.39,0,0,1,.28-.25l9.36-2.32A4.59,4.59,0,0,0,44.14,123.24Z"/><path class="cls-1" d="M6.91,121.84a1.89,1.89,0,1,0-2.68-.15A1.91,1.91,0,0,0,6.91,121.84Z"/><path class="cls-1" d="M82.39,194.11a2.11,2.11,0,0,0-2.25,1.95c-.08,1.05-.13,1.62-.13,1.63A2.1,2.1,0,0,0,81.9,200h.21a2.1,2.1,0,0,0,2.09-1.91s.06-.6.14-1.72A2.11,2.11,0,0,0,82.39,194.11Z"/><path class="cls-1" d="M82.78,181.78h0a2.11,2.11,0,0,0-2.11,2.07c0,1.24,0,2.4-.07,3.5a2.11,2.11,0,0,0,2,2.17h.06a2.1,2.1,0,0,0,2.11-2.05c0-1.11.06-2.3.08-3.55A2.1,2.1,0,0,0,82.78,181.78Z"/><path class="cls-1" d="M80.54,171.6c0,1.2.07,2.36.09,3.5a2.11,2.11,0,0,0,2.1,2.07h0A2.1,2.1,0,0,0,84.84,175c0-1.15,0-2.34-.09-3.56a2.11,2.11,0,0,0-4.21.14Z"/><path class="cls-1" d="M69.48,102.17c-.57-1.08-1.16-2.14-1.76-3.17a2.11,2.11,0,1,0-3.64,2.12c.57,1,1.13,2,1.67,3a2.09,2.09,0,0,0,1.86,1.13,2,2,0,0,0,1-.25A2.1,2.1,0,0,0,69.48,102.17Z"/><path class="cls-1" d="M79.54,140.29a2.1,2.1,0,0,0,1.68-2.46c-.21-1.17-.45-2.33-.69-3.5a2.11,2.11,0,0,0-4.13.87c.24,1.13.47,2.27.68,3.41a2.12,2.12,0,0,0,2.07,1.72A2.58,2.58,0,0,0,79.54,140.29Z"/><path class="cls-1" d="M74.62,113.68c-.43-1.13-.87-2.26-1.33-3.35a2.11,2.11,0,1,0-3.89,1.61c.44,1,.86,2.14,1.28,3.23a2.1,2.1,0,0,0,2,1.36,1.91,1.91,0,0,0,.74-.14A2.1,2.1,0,0,0,74.62,113.68Z"/><path class="cls-1" d="M77,128.22a2.1,2.1,0,0,0,1.48-2.58c-.31-1.16-.63-2.31-1-3.45a2.11,2.11,0,0,0-4,1.2c.34,1.11.65,2.23.95,3.34A2.13,2.13,0,0,0,77,128.22Z"/><path class="cls-1" d="M81.3,152.52a2.12,2.12,0,0,0,1.83-2.35c-.14-1.18-.3-2.35-.46-3.54a2.11,2.11,0,0,0-4.18.59c.16,1.16.32,2.31.46,3.46A2.1,2.1,0,0,0,81,152.53Z"/><path class="cls-1" d="M60.44,88.59a2.11,2.11,0,0,0-3.22,2.72c.72.86,1.44,1.76,2.13,2.67a2.12,2.12,0,0,0,1.69.84,2.07,2.07,0,0,0,1.26-.43,2.11,2.11,0,0,0,.42-3C62,90.47,61.22,89.51,60.44,88.59Z"/><path class="cls-1" d="M82.2,164.83h.15a2.1,2.1,0,0,0,2-2.24c-.08-1.17-.17-2.36-.27-3.55a2.11,2.11,0,0,0-4.2.34c.1,1.18.18,2.34.26,3.49A2.12,2.12,0,0,0,82.2,164.83Z"/><path class="cls-1" d="M49.8,81.24a2.11,2.11,0,0,0,.28,3l1.24,1.06a2.09,2.09,0,0,0,1.39.52,2.11,2.11,0,0,0,1.39-3.69L52.77,81A2.11,2.11,0,0,0,49.8,81.24Z"/><path class="cls-1" d="M54.71,194.1a2.11,2.11,0,0,0-2.16,2.06c0,1,0,1.59,0,1.61a2.11,2.11,0,0,0,2,2.23h.12a2.12,2.12,0,0,0,2.11-2s0-.62.06-1.75A2.11,2.11,0,0,0,54.71,194.1Z"/><path class="cls-1" d="M53.84,178.77a2.11,2.11,0,0,0,1.82-2.37c-.14-1.07-.3-2.17-.47-3.28a2.11,2.11,0,0,0-4.17.66c.17,1.07.33,2.13.46,3.17a2.12,2.12,0,0,0,2.09,1.84Z"/><path class="cls-1" d="M54.56,190.17h.09a2.11,2.11,0,0,0,2-2.2c-.05-1-.11-2.14-.19-3.31a2.11,2.11,0,0,0-4.21.29q.12,1.69.18,3.21A2.12,2.12,0,0,0,54.56,190.17Z"/><path class="cls-1" d="M52,167.49A2.1,2.1,0,0,0,53.6,165c-.25-1.07-.52-2.15-.81-3.23a2.11,2.11,0,0,0-4.07,1.09c.28,1,.54,2.07.78,3.1a2.1,2.1,0,0,0,2,1.63A2,2,0,0,0,52,167.49Z"/><path class="cls-1" d="M50.25,153.77c-.4-1.06-.82-2.11-1.25-3.12a2.11,2.11,0,0,0-3.88,1.65c.41,1,.81,1.95,1.18,2.95a2.11,2.11,0,0,0,4-1.48Z"/><path class="cls-1" d="M45.22,143.12c-.58-1-1.19-2-1.81-2.87a2.11,2.11,0,0,0-3.49,2.36c.57.85,1.13,1.74,1.67,2.65a2.1,2.1,0,0,0,1.82,1,2.21,2.21,0,0,0,1.07-.29A2.12,2.12,0,0,0,45.22,143.12Z"/><path class="cls-1" d="M36.8,132.39a2.11,2.11,0,1,0-2.9,3.06c.38.37.76.74,1.13,1.12a2.11,2.11,0,0,0,1.52.64,2.09,2.09,0,0,0,1.46-.59,2.12,2.12,0,0,0,.05-3C37.65,133.21,37.22,132.8,36.8,132.39Z"/></svg>