<svg id="Layer_1" data-name="Layer 1" xmlns="http://www.w3.org/2000/svg" viewBox="0 0 293.52 350"><defs><style>.cls-1{fill:#0a1a2b;}.cls-2{fill:#c14242;}.cls-3{fill:#f6ada4;}.cls-4{fill:#d39c89;}.cls-5{fill:#e55f5e;}.cls-6{fill:#b7806e;}.cls-7{fill:#0f223b;}.cls-8{fill:#0a4860;}.cls-9{fill:#07384f;}.cls-10{fill:#d89391;}.cls-11{fill:#fff;opacity:0.3;}</style></defs><title>supergirl-layouts-1-2-3</title><path class="cls-1" d="M172.06,130.24s-10.75.71-24.47-11.55-26.53,6-26.53,6,0-11.39,14.28-28.7,18.84-29.28,18.84-29.28S186.12,58.39,204.43,77s15.21,25.19,15.21,25.19a11.11,11.11,0,0,1-.56,3.86c-.62,1.18-11.05-8.32-20.06,10.77S172.06,130.24,172.06,130.24Z"/><path class="cls-2" d="M183,126.19a185.4,185.4,0,0,1-22.38,1.1c-11.73-.19-33.15-4-44.47,14.38s-5.53,26.55-37.55,36.56S-5.28,200.9.44,241.18c0,0,27.24-11.71,35,15.84S65.69,269.67,81,267.08s36.46.77,42.9,11.87c0,0,30.66-16.76,38.72-25.18S208.11,150,208,133.34,183,126.19,183,126.19Z"/><path class="cls-3" d="M227,148a18.55,18.55,0,0,1-10.54-.56c-9-3.44-10.65-12.69-10.85-17.65-1.08,11.49-8.32,13.2-8.32,13.2-.16-1.33.87-10.12.11-13.6s-29.48-.27-29.48-.27a95,95,0,0,1,2.38,12.28c.3,4.25-2.29,4.67-2.29,4.67-1.19-2.15-13.57-13.22-13.57-13.22-16.23.82-19.5,7.89-19.5,7.89l-.92.39,10.8,21.4-6.9,30.51h0a3.84,3.84,0,0,1,1.25-.34c7-.49,11.53,24.49,12.68,31.57,7.5-3.2,25.23-9.56,45.57-8.29,1.39-2.3,1.55-9.72,1.55-9.72l0-2.63c14.52-3,20.62-15.19,21.45-18.68s.39-27,.39-27Z"/><path class="cls-4" d="M265,47.44l-14.27-2.27s-10.57,46.41-14,51.76S214,110.11,205.65,126.57a17.07,17.07,0,0,1,0,2.48c0,.27,0,.52-.06.77h0c.2,5,1.83,14.21,10.85,17.65A18.55,18.55,0,0,0,227,148s7.89-16.14,12.74-20.8,14.91-16.28,15.75-20.36,1.72-10.85,3.26-20.49S264.08,49.16,265,47.44Z"/><path class="cls-5" d="M17.48,231.39S9.83,211.51,33.78,197,88,179.92,101.4,175.52s9.95-21.78,20.72-34.9,30.52-8.86,32.3-7.74c0,0,12.38,11.07,13.57,13.22,0,0,2.59-.42,2.29-4.67a82.26,82.26,0,0,0-2.13-11.28s28.48-4.21,29.23-.73-.27,12.27-.11,13.6c0,0,7.56-1.78,8.38-14a17.07,17.07,0,0,0,0-2.48c-6.19-6.68-22.68-.38-22.68-.38a185.4,185.4,0,0,1-22.38,1.1c-11.73-.19-33.15-4-44.47,14.38s-5.53,26.55-37.55,36.56S-5.28,200.9.44,241.18C.44,241.18,7.8,233.58,17.48,231.39Z"/><path class="cls-4" d="M149.38,82s0,6,1.54,9.62.84,6.15.43,8.74,9.24,27.23,30.61,28.39c0,0,14.67-7.74,15.86-27.56,0,0,4.68-.38,4.73-6.81s-1.45-18.14-1.45-18.14-29.5-27.91-44-11.34A48.11,48.11,0,0,0,149.38,82Z"/><path class="cls-6" d="M170.6,94.59s4.37,4.2,3.1,8.19-2.95,6.67,0,7.42,5.16-2.53,5.16-2.53S181.25,97.13,170.6,94.59Z"/><path class="cls-6" d="M197.82,101.17s4.68-.38,4.73-6.81-1.45-18.14-1.45-18.14-10.88-10.3-22.67-14.67c-.67-.22-4.94,14.89-4.94,14.89S192.15,92,196.38,93.52C196.38,93.52,196.84,94.15,197.82,101.17Z"/><path class="cls-6" d="M155.58,106.34c-3.65-6.88,1.26-13.24,1.26-13.24,4.48-11.24,1.94-22.43.1-27.95A47.84,47.84,0,0,0,149.38,82s0,6,1.54,9.62.84,6.15.43,8.74,9.24,27.23,30.61,28.39A81,81,0,0,1,169,122.19C162.93,118.28,159.24,113.22,155.58,106.34Z"/><ellipse class="cls-7" cx="185.25" cy="93.1" rx="1.41" ry="1.89" transform="matrix(1, -0.09, 0.09, 1, -7.88, 17.71)"/><path class="cls-1" d="M178,87.58s0-3.17,2.44-4c0,0,1,1,1.4.91s4.05-1.15,6.73.29a11.64,11.64,0,0,1,4.19,4.29S184.11,84.42,178,87.58Z"/><path class="cls-1" d="M165.6,90s-2-2.63-4.33-2.51a8.74,8.74,0,0,1-1.64,1.36,5.19,5.19,0,0,0-3.87,2.32,12.15,12.15,0,0,0-2.08,5.49S159.4,89.25,165.6,90Z"/><path class="cls-1" d="M179.06,93.28s5.57-3.73,9.06-.31a7.56,7.56,0,0,0,4-2,4.29,4.29,0,0,1-3.69-.26C186.13,89.66,181.12,88.85,179.06,93.28Z"/><ellipse class="cls-7" cx="164.26" cy="97.29" rx="1.89" ry="1.41" transform="translate(66.28 261.14) rotate(-89.76)"/><path class="cls-1" d="M167.87,95.8s-7.05-1.36-9.06,3.64c0,0-2.86.71-4.75-.3,0,0,1.73.17,3.53-1.89S164,92.19,167.87,95.8Z"/><path class="cls-2" d="M171.27,116s3.63,1.47,7.38,2.59c4.11,1.24,9.29-6.79,8.92-8.88-4.2,1.15-5.52,3.17-7.37,4.67C179.14,113.8,171.5,114.6,171.27,116Z"/><path class="cls-5" d="M180.75,115.54a43.41,43.41,0,0,1-9.47.46h0l.12.08c.67.26,3.91,1.54,7.25,2.54,4.11,1.24,9.29-6.79,8.92-8.88C187.26,110.42,182.14,115.4,180.75,115.54Z"/><path class="cls-4" d="M198,129.52s1.19-28-.2-28.35C196.63,121,182,128.73,182,128.73a28.4,28.4,0,0,1-15.3-5.55c2.43,4.76,4.86,10.16,4.94,12.86.16,5.44,5.74,23.12,14.72,28.28C186.32,164.32,198.83,156.05,198,129.52Z"/><path class="cls-8" d="M65.08,348.51s8.36,5.63,11.86-5,7.45-14.3,11-14.3,6.41-6.26,5.73-7.86-3.14-7.22-1.68-10.53,3.28-12.35,10.53-19.22,14.87-17.23,13.32-26.25c0,0,35.77-31.25,36.29-39.19,0,0-4.85-34-13-33.42s-22,35.4-27.29,55.37c0,0-6.54,1.2-9.5,14s-9.89,12.05-18.86,50C83.5,312.07,67.41,328,65.08,348.51Z"/><path class="cls-9" d="M152.12,226.15s-4.85-34-13-33.42c-1.42.11-3,1.27-4.74,3.23,3,4.13,7.84,13.07,6.32,26.7,0,0-14.24,12.1-25.15,40.78,0,0-5-7.15-6.68-5s-.09,15.84-9.84,30.15-10.7,23.86-10.7,23.86,3.48,8.58,0,11.76-12.43,6.6-18.44,18.52a3.18,3.18,0,0,1-4.23,1.9c-.25,1.27-.45,2.56-.6,3.86,0,0,8.36,5.63,11.86-5s7.45-14.3,11-14.3,6.41-6.26,5.73-7.86-3.14-7.22-1.68-10.53,3.28-12.35,10.53-19.22,14.87-17.23,13.32-26.25C115.83,265.34,151.6,234.09,152.12,226.15Z"/><path class="cls-6" d="M185,137.89s9.5-10.25,13.4-20c.17-7.73.2-16.48-.58-16.68C196.63,121,182,128.73,182,128.73a28.4,28.4,0,0,1-15.3-5.55A42.6,42.6,0,0,0,185,137.89Z"/><path class="cls-8" d="M197.4,216s.52,16.69-3.3,25.41-38.61,32.67-62.27,36a31.73,31.73,0,0,1-2.56,16s-.31,3.13-2.39,4.48-10.4,6.74-12.12,8.14-7.5,1.42-5.39-3.66,5.6-5.82,5.6-5.82a76.87,76.87,0,0,0,0-10.27c-.44-3.06-.82-16-.08-19.42s5-5.06,5-5.06,11.72-25.88,28.22-35.75C148,226.06,170.43,214.32,197.4,216Z"/><path class="cls-9" d="M194.1,241.42c2.87-6.55,3.68-20.25,3.3-25.41C195,225.4,172,255.37,153.46,262.63c-16.15,6.32-28.09,9.64-31.68,8.7,0,0-1.39,14.64-4.75,14.17-1-.14-1.83-1.53-2.43-3.38.09,1.84.2,3.35.32,4.17a76.87,76.87,0,0,1,0,10.27s-3.48.75-5.6,5.82,3.68,5.07,5.39,3.66,10-6.8,12.12-8.14,2.39-4.48,2.39-4.48a31.73,31.73,0,0,0,2.56-16C155.49,274.09,190.29,250.14,194.1,241.42Z"/><path class="cls-10" d="M147.65,200s4.31-2.43,12.79,1.44c0,0-5.25-10.07-4.46-20.3s-4.09-23.56-11.4-22.44a2.46,2.46,0,0,0-1.36.74l1.58,3.12-4.06,18c.26,5.33.77,10.35,1.11,13.31,5.44,4.85,9,24.35,10,30.47a68.16,68.16,0,0,0-2-19.37Z"/><path class="cls-10" d="M172.24,202s-.58,7.93,26.45,8.34c.22-2.18.26-4.09.26-4.09l0-2.63A98.25,98.25,0,0,1,172.24,202Z"/><path class="cls-5" d="M203.15,174.94c-9.63-6.3-27.16-2.09-27.16-2.09-2.19.89-1.86,4.09-1.46,5.32.85,2.41,6.5,11.29,9.86,14.35,3.57,3.24,8.27,1.47,8.84,1.08.91-.62,7-8.36,9.91-13.16C205.75,176.2,203.15,174.94,203.15,174.94Zm-4.79,6.2a66.83,66.83,0,0,1-6.72,8.93,5.57,5.57,0,0,1-6-.73A40.33,40.33,0,0,1,179,179.6c-.27-.83-.49-3,1-3.6,0,0,11.89-2.85,18.42,1.41C198.37,177.41,200.13,178.27,198.36,181.14Z"/><path class="cls-10" d="M216.44,147.47a15.34,15.34,0,0,1-5-3.07c-.22,4,.64,8,1,11,.54,4.12,5.57,7.59,8.46,9.27,0-3.87-.09-6.72-.09-6.72L227,148A18.55,18.55,0,0,1,216.44,147.47Z"/><path class="cls-6" d="M239.72,127.23c4.85-4.67,14.91-16.28,15.75-20.36s1.72-10.85,3.26-20.49,5.35-37.22,6.28-38.94l-9.67-1.54a71.91,71.91,0,0,1,2.06,24.22C256,85.76,252,89.79,247.66,97.3s-.85,7.7-2.1,13.2-23.16,17.68-29.73,23.78a14.21,14.21,0,0,0-4.4,10.12,15.34,15.34,0,0,0,5,3.07A18.55,18.55,0,0,0,227,148S234.87,131.89,239.72,127.23Z"/><path class="cls-6" d="M226.5,40.37s7.34,6.59,21.67,1a26.27,26.27,0,0,0,4,6.23c2.38,2.62,17.2.4,18.87-1.29s7.3-10.69,7.81-13.31,3.34-6.37,3.34-6.37-10.47-9.79-22-7.8A64.89,64.89,0,0,0,249.57,32a30.36,30.36,0,0,0-8,4.26C238.5,38.83,227.28,34.25,226.5,40.37Z"/><path class="cls-4" d="M241.61,36.25c-3.11,2.58-14.33-2-15.11,4.12,0,0,7.34,6.59,21.67,1a26.27,26.27,0,0,0,4,6.23c2.38,2.62,17.2.4,18.87-1.29-4.58-.54-9.43-4.11-10.45-9.41s-11-4.94-11-4.94A30.36,30.36,0,0,0,241.61,36.25Z"/><path class="cls-6" d="M271.73.08S263.62,17,260.15,18.86c0,0-2.76,3.85-.62,3.91s9.31-2.23,12.29-10.35C271.82,12.42,276.6-1.19,271.73.08Z"/><path class="cls-6" d="M283.41,1.61s-12.86,16-16.77,17.18c0,0-3.81,3.43-1.77,4s9.66-.17,14.95-8.08C279.82,14.71,288.49,1.4,283.41,1.61Z"/><path class="cls-6" d="M292.36,11.23S276,21.45,272,21.19c0,0-4.5,1.83-2.74,3s9.1,3.1,16.21-2.3C285.44,21.93,297.18,12.76,292.36,11.23Z"/><path class="cls-6" d="M274.57,23.86s3.84,7.19,8.7,8.9,9.58.78,9.47-.26c0,0-.2-1.67-5.73-3.86s-6.35-5-6.35-5Z"/><path class="cls-7" d="M156.73,74.61s1.42,21.13-12.4,29.37-22.69,18.29-16.48,29.7c0,0-7.17-3-10.63-8.26,0,0-4.52,3,.8,10.39a14.27,14.27,0,0,1-14.38-7.14s-14.28-8.8-8.14-21.54c0,0-8.53-24.94,18.35-29.72,0,0,15.24,2.74,24.78-.9,0,0,0-16,14.66-22.79,0,0,4-1.8,6.72.32a26.86,26.86,0,0,1,25.58-10.48c17.07,2.35,12.2,11.84,20.59,15.41s28.41,3.22,28.34,14.22-4.05,26.1-7.39,30c0,0,.33,12-8,18.72,0,0,1.1-25.31-7.76-27.84,0,0,8.07,11.84,3.17,21.51,0,0,1.41-22.92-17.84-27.38s-13.88,1.55-26.91-4.29S156.73,74.61,156.73,74.61Z"/><path class="cls-1" d="M113.85,77.41c-23.1,4.11-20,23.1-18.74,28.36-.41-2.71.42-9,14.47-14.41,18.49-7.13,27.71-7.39,29.05-14.85C129.09,80.15,113.85,77.41,113.85,77.41Z"/><path class="cls-1" d="M138.63,76.51a9.1,9.1,0,0,0,.13-1.89C138.63,75.8,138.63,76.51,138.63,76.51Z"/><path class="cls-1" d="M94,114.06c.38,8.89,9.65,14.61,9.65,14.61s-5.16-12.16,7.41-21.94C111.05,106.73,95.9,105.43,94,114.06Z"/><path class="cls-1" d="M206.64,59.15c2.67,3,2.46,5.49,1.43,5.53,0,0,16.76-3.3,23.52,3.75s-9.94,11.11-9.94,11.11c8.69,5.67,5.48,23.61,5.48,23.61,3.34-3.86,7.32-19,7.39-30C234.59,62.38,215.27,62.53,206.64,59.15Z"/><path class="cls-11" d="M183.88,50.38s-17.93,2-13.58,14.49,9.55-.51,18.38,2.61,3.55,11.51,8.17,11.7,10.53-11.62,7.69-16.69S190.39,47.78,183.88,50.38Z"/><path class="cls-11" d="M132.86,92.55s1.95,6.44-1.85,9.11,6.41,4.43,12-4.06,15.08-28.8,9.59-31.21-4.91.86-8.26,10.07S128.54,87.16,132.86,92.55Z"/><path class="cls-1" d="M127.07,96.38s-22.8,6.46-11.55,34a5,5,0,0,1,1.7-5S112,105.48,127.07,96.38Z"/><path class="cls-4" d="M134.92,140.77s-17.16,5.82-5.52,27.64c0,0,5.1,17.24,8.08,18.46,0,0-20.72,1.18-27.23,10.41s-1.49,15.25-1.49,15.25,10.7-7.07,19.69-7.5,24.74-11.37,24.74-11.37-.05-24.26-8.62-35C144.57,158.7,138.23,141.11,134.92,140.77Z"/><path class="cls-4" d="M112.78,207.19s4.73,7.2,4.33,13.2c0,0-5.62,7.78-10.82,7.05S87.84,215.54,88.12,212s.21-10.7,8.64-16.17c0,0,.09-3.72,6-4.73S112.78,207.19,112.78,207.19Z"/><path class="cls-6" d="M106.3,227.44a10.63,10.63,0,0,0-3.34-3.71c-2.74-1.55-11.36-9.62-12.3-14.74-.41-2.21-.64-4.09-.78-5.51A23.28,23.28,0,0,0,88.12,212c-.28,3.5,13,14.66,18.17,15.4Z"/><path class="cls-6" d="M98.05,198.88s5.52,9.09,8.12,11.37c0,0-8.93-6.28-9.45-8.88S98.05,198.88,98.05,198.88Z"/><path class="cls-6" d="M141.3,187.62s1.12,6.75-9.57,11.91c-12.61,6.07-19.51,6.64-19.51,6.64l1.08,3.74c3.94-2.06,9.84-4.63,15.15-4.88,9-.44,24.74-11.37,24.74-11.37s-.05-24.26-8.61-35C144.58,158.7,155.37,187.57,141.3,187.62Z"/><path class="cls-6" d="M112.78,207.19s-2.2-9.15-5.7-13.65c.14,1.67-.64,4.81.15,7.45s3.6,5.46,2.06,7.61-3.12,1.65-3.12,1.65,2,1,1.68,2.13c0,0,3.26,1.17,3.73,3.49a2.37,2.37,0,0,1,2.14,1.83s-.76,1.54-.41,6.78a26.87,26.87,0,0,0,3.8-4.09C117.51,214.39,112.78,207.19,112.78,207.19Z"/><path class="cls-4" d="M273.86,1.88c-.17-1.34-.77-2.15-2.13-1.8,0,0-8.11,16.91-11.58,18.78a18.17,18.17,0,0,0,8.94-7.48A83.48,83.48,0,0,0,273.86,1.88Z"/><path class="cls-4" d="M284.22,1.73a1.8,1.8,0,0,0-.81-.12s-12.58,15.66-16.63,17.13a1.16,1.16,0,0,0,.71.27c5,.39,12.34-10,14.93-13.12A9.38,9.38,0,0,0,284.22,1.73Z"/><path class="cls-4" d="M273.58,21.07s4.52.51,11.58-2.34,7.2-7.5,7.2-7.5-12.76,7.94-18.5,9.64Z"/><path class="cls-4" d="M287,28.64c-5.53-2.18-6.1-4.21-6.1-4.21l-2.24,1.21c1.32,4.27,14.07,6.86,14.07,6.86S292.54,30.83,287,28.64Z"/><path class="cls-10" d="M196.11,147.81c-.08.31-.17.6-.25.89a26,26,0,0,1,2.79-1.44S197.62,147.46,196.11,147.81Z"/><path class="cls-10" d="M174.91,148.52a123.51,123.51,0,0,0-12.59-.75,66.63,66.63,0,0,1,13.62,3.15C175.58,150.12,175.24,149.32,174.91,148.52Z"/><path class="cls-6" d="M185.79,151.51s-1.7-1.89-10.88-3c.33.8.67,1.6,1,2.4,4.32,1.56,8.49,3.8,10.51,7a25.84,25.84,0,0,1,9.41-9.21c.08-.29.17-.58.25-.89C193.09,148.53,188.14,149.88,185.79,151.51Z"/></svg>