<svg id="Layer_1" data-name="Layer 1" xmlns="http://www.w3.org/2000/svg" viewBox="0 0 358.33 350"><defs><style>.cls-1,.cls-14{fill:#fff;}.cls-2{fill:none;}.cls-3{fill:#acc3d1;}.cls-4{fill:#0a1a2b;}.cls-5{fill:#c14242;}.cls-6{fill:#f6ada4;}.cls-7{fill:#d39c89;}.cls-8{fill:#e55f5e;}.cls-9{fill:#b7806e;}.cls-10{fill:#0f223b;}.cls-11{fill:#0a4860;}.cls-12{fill:#07384f;}.cls-13{fill:#d89391;}.cls-14{opacity:0.3;}.cls-15{fill:#c4def2;}</style></defs><title>supergirl-layouts-4-5</title><path class="cls-1" d="M284.26,252.46C318.62,225.59,399.17,153,333,117.34c-62.56-33.73-60.74-27.16-43.7-50.44s-108.22-44.64-164-20.22S23.87,159.6,39.89,183.31s45.21,45.88,30.53,65.35S112.93,375.93,284.26,252.46Z"/><path class="cls-2" d="M171.82,63.46c0,3.43-2.37,5.6-7.52,5.6-4.62,0-9-2.83-9-8.44V57.85h9.3C168.85,57.85,171.82,59.63,171.82,63.46Z"/><path class="cls-2" d="M163.11,45c5.74,0,8.91,3.69,9.3,9.56H154.67C154.67,49.8,156.32,45,163.11,45Z"/><path class="cls-3" d="M237.51,18.74c-20.53-1.35-27.68.44-30.91,4.1a3.51,3.51,0,0,0-.91-.25,3.06,3.06,0,0,0-1.79-1.32,8.62,8.62,0,0,1,4-7.73c6.3-3.82,9.74-.17,9.74-.17s1.54-3.61,3.58-2.77c0,0,3.92-8.29,10.13-5.06s4.56,5.9,4.56,5.9,2.59-1.83,4.21.06a2.74,2.74,0,0,1,4,2.16s2.75-5.44,7.18-3.1c0,0,3.6-1.92,6.45.77s1,7.63,1,7.63a3.3,3.3,0,0,1,4.4,1.31c1.66,2.73.52,4.66.52,4.66s1.73-2.74,4.55-.2c0,0,4.1-4.39,7.38-1.34s2.11,5.52,2.11,5.52,3,2.06.64,4.22c0,0,2.87-1.87,4.55.5s.35,3.44.35,3.44,5.2,8.33,11.12,16C294.29,53.05,263.52,20.44,237.51,18.74Z"/><path class="cls-3" d="M59.26,201.64s-.79-1.34-2.22-3.48A28,28,0,0,0,59.26,201.64Z"/><path class="cls-3" d="M12.7,166.33c3.28-.42,7.62.21,13.27,2.43,14,5.5,26.22,22.12,31.07,29.4-4-7.32-7.34-18.57-7.34-18.57-.24-5.73-3.62-5.63-3.62-5.63s2.87-5.32-1.61-9.29-11.58-2.25-11.58-2.25c1.34-4.42-4.19-6.25-4.19-6.25s-.42-5.3-7.72-6.6-10.46,6.3-10.46,6.3C.07,162,3.33,172.8,3.33,172.8S8.88,165.27,12.7,166.33Z"/><path class="cls-3" d="M304.46,200.33s25.45-38.85-68.21-82.54c0,0-5.05-6.08.62-11.08,0,0,1.14-9.84,12.14-9.07S259.06,110,259.06,110s5.34.93,3.64,6.74c0,0-.95-2.73,5.66-2.54s7.84,9.13,5.9,12.16c0,0,6.88.93,5,8.11,0,0,1-9.41,10.65-5.18,0,0,5.18-6.9,12-1.39s3.14,19.17-4.3,19.44c0,0,6.71-.16,7.4,5.85,0,0,6.64-3.5,8.72,2.56s-3.22,9.79-3.22,9.79S319.47,174.3,304.46,200.33Z"/><path class="cls-3" d="M110.51,39.78c-20.53-1.35-27.67.44-30.91,4.1a3.51,3.51,0,0,0-.91-.25,3,3,0,0,0-1.78-1.32c0-2.67.82-5.82,4-7.73,6.3-3.82,9.74-.17,9.74-.17s1.53-3.61,3.57-2.77c0,0,3.93-8.29,10.13-5.06s4.56,5.9,4.56,5.9,2.6-1.83,4.22.06a2.74,2.74,0,0,1,4,2.16s2.74-5.44,7.17-3.1c0,0,3.61-1.92,6.46.76s1,7.64,1,7.64a3.31,3.31,0,0,1,4.41,1.31c1.65,2.73.52,4.66.52,4.66s1.73-2.74,4.55-.2c0,0,4.09-4.39,7.38-1.34S150.64,50,150.64,50s3,2.06.64,4.22c0,0,2.87-1.87,4.55.5s.34,3.44.34,3.44,5.21,8.33,11.12,16C167.29,74.09,136.53,41.48,110.51,39.78Z"/><path class="cls-4" d="M190.61,119s-9.82.65-22.35-10.55S144,113.92,144,113.92s-.05-10.4,13-26.22S174.28,61,174.28,61s29.17-7.63,45.9,9.35,13.89,23,13.89,23a10,10,0,0,1-.51,3.52c-.57,1.08-10.09-7.59-18.33,9.84S190.61,119,190.61,119Z"/><path class="cls-5" d="M200.57,115.26a168.25,168.25,0,0,1-20.44,1c-10.71-.17-30.27-3.63-40.61,13.14s-5.06,24.25-34.3,33.4-76.59,20.69-71.37,57.49c0,0,24.88-10.69,32,14.47s27.64,11.56,41.66,9.19,33.29.7,39.18,10.84c0,0,28-15.31,35.36-23s41.52-94.81,41.39-110S200.57,115.26,200.57,115.26Z"/><path class="cls-6" d="M240.78,135.21a17,17,0,0,1-9.64-.51c-8.23-3.14-9.72-11.59-9.91-16.12-1,10.49-7.59,12-7.59,12-.15-1.21.79-9.25.1-12.42s-26.93-.24-26.93-.24A86.19,86.19,0,0,1,189,129.18c.28,3.88-2.08,4.27-2.08,4.27-1.1-2-12.4-12.07-12.4-12.07-14.82.74-17.81,7.2-17.81,7.2l-.85.36,9.87,19.54-6.3,27.87h0a3.36,3.36,0,0,1,1.14-.31c6.37-.45,10.53,22.37,11.58,28.83,6.85-2.92,23-8.73,41.63-7.57,1.27-2.1,1.41-8.87,1.41-8.87l0-2.41C228.47,183.3,234,172.15,234.8,169s.35-24.67.35-24.67Z"/><path class="cls-7" d="M275.51,43.33l-13-2.07s-9.65,42.38-12.81,47.27-20.72,12-28.37,27.07a15.74,15.74,0,0,1,0,2.28c0,.24,0,.47-.06.7h0c.19,4.53,1.68,13,9.91,16.12a17,17,0,0,0,9.64.51s7.2-14.74,11.63-19,13.62-14.87,14.38-18.6,1.58-9.91,3-18.72S274.66,44.9,275.51,43.33Z"/><path class="cls-8" d="M49.42,211.35s-7-18.16,14.88-31.38,49.54-15.63,61.77-19.65,9.09-19.9,18.93-31.88,27.87-8.09,29.5-7.06c0,0,11.3,10.1,12.4,12.07,0,0,2.36-.39,2.08-4.27A75,75,0,0,0,187,118.87s26-3.84,26.7-.66-.25,11.21-.1,12.42c0,0,6.9-1.62,7.65-12.75a15.74,15.74,0,0,0,0-2.28c-5.65-6.09-20.72-.34-20.72-.34a168.25,168.25,0,0,1-20.44,1c-10.71-.17-30.27-3.63-40.61,13.14s-5.06,24.25-34.3,33.4-76.59,20.69-71.37,57.49C33.85,220.29,40.58,213.35,49.42,211.35Z"/><path class="cls-7" d="M169.89,74.87s0,5.5,1.41,8.8.77,5.61.39,8,8.44,24.87,28,25.93c0,0,13.4-7.07,14.49-25.17,0,0,4.28-.35,4.32-6.22s-1.33-16.57-1.33-16.57S190.19,44.13,177,59.26A43.85,43.85,0,0,0,169.89,74.87Z"/><path class="cls-9" d="M189.28,86.4s4,3.83,2.83,7.48-2.69,6.09,0,6.78,4.71-2.32,4.71-2.32S199,88.72,189.28,86.4Z"/><path class="cls-9" d="M214.14,92.41s4.28-.35,4.32-6.22-1.33-16.57-1.33-16.57-9.94-9.41-20.7-13.4c-.61-.2-4.51,13.6-4.51,13.6S209,84,212.83,85.42C212.83,85.42,213.25,86,214.14,92.41Z"/><path class="cls-9" d="M175.56,97.13C172.22,90.84,176.71,85,176.71,85c4.09-10.27,1.77-20.49.09-25.53a43.74,43.74,0,0,0-6.91,15.36s0,5.5,1.41,8.8.77,5.61.39,8,8.44,24.87,28,25.93a74.22,74.22,0,0,1-11.82-6C182.27,108,178.9,103.41,175.56,97.13Z"/><ellipse class="cls-10" cx="202.66" cy="85.04" rx="1.29" ry="1.73" transform="translate(-7.06 19.3) rotate(-5.36)"/><path class="cls-4" d="M196,80s0-2.9,2.23-3.65c0,0,.87.89,1.28.83s3.7-1.05,6.15.27a10.6,10.6,0,0,1,3.83,3.91S201.61,77.11,196,80Z"/><path class="cls-4" d="M184.71,82.22s-1.81-2.39-4-2.29a8.05,8.05,0,0,1-1.49,1.24,4.8,4.8,0,0,0-3.54,2.12,11,11,0,0,0-1.9,5S179.05,81.52,184.71,82.22Z"/><path class="cls-4" d="M197,85.2s5.08-3.41,8.27-.28a6.92,6.92,0,0,0,3.62-1.83,3.9,3.9,0,0,1-3.37-.25C203.46,81.89,198.88,81.16,197,85.2Z"/><ellipse class="cls-10" cx="183.48" cy="88.87" rx="1.73" ry="1.29" transform="translate(93.85 271.98) rotate(-89.76)"/><path class="cls-4" d="M186.78,87.5s-6.43-1.24-8.27,3.33c0,0-2.61.65-4.34-.28a4.12,4.12,0,0,0,3.22-1.72C179,87,183.25,84.21,186.78,87.5Z"/><path class="cls-5" d="M189.89,106s3.31,1.34,6.74,2.37c3.76,1.12,8.48-6.21,8.15-8.11-3.84,1-5,2.89-6.73,4.26C197.07,104,190.1,104.67,189.89,106Z"/><path class="cls-8" d="M198.55,105.53a39.84,39.84,0,0,1-8.65.43h0l.11.07c.61.25,3.56,1.41,6.62,2.33,3.76,1.12,8.48-6.21,8.15-8.11C204.5,100.85,199.82,105.4,198.55,105.53Z"/><path class="cls-7" d="M214.32,118.3s1.09-25.56-.18-25.89c-1.09,18.1-14.49,25.17-14.49,25.17a26,26,0,0,1-14-5.07c2.22,4.35,4.44,9.28,4.51,11.75.15,5,5.25,21.12,13.44,25.83C203.63,150.09,215.06,142.54,214.32,118.3Z"/><path class="cls-11" d="M92.89,318.33s7.64,5.14,10.84-4.58,6.8-13.07,10-13.06,5.85-5.72,5.23-7.18-2.87-6.59-1.53-9.62,3-11.28,9.61-17.56,13.59-15.73,12.17-24c0,0,32.67-28.54,33.15-35.8,0,0-4.43-31-11.85-30.52s-20.12,32.33-24.93,50.57c0,0-6,1.1-8.68,12.77s-9,11-17.22,45.66C109.72,285,95,299.58,92.89,318.33Z"/><path class="cls-12" d="M172.4,206.56s-4.43-31-11.85-30.52c-1.3.09-2.77,1.16-4.33,2.94,2.76,3.78,7.16,12,5.78,24.39,0,0-13,11-23,37.25,0,0-4.59-6.53-6.1-4.55s-.08,14.47-9,27.55-9.78,21.79-9.78,21.79,3.18,7.84,0,10.74-11.36,6-16.84,16.92a2.9,2.9,0,0,1-3.86,1.73c-.23,1.16-.42,2.33-.56,3.53,0,0,7.64,5.14,10.84-4.58s6.8-13.07,10-13.06,5.85-5.72,5.23-7.18-2.87-6.59-1.53-9.62,3-11.28,9.61-17.56,13.59-15.73,12.17-24C139.25,242.36,171.92,213.82,172.4,206.56Z"/><path class="cls-9" d="M202.42,126s8.68-9.37,12.24-18.31c.16-7,.19-15-.52-15.23-1.09,18.1-14.49,25.17-14.49,25.17a26,26,0,0,1-14-5.07A38.9,38.9,0,0,0,202.42,126Z"/><path class="cls-11" d="M213.76,197.3s.47,15.24-3,23.21-35.26,29.84-56.88,32.87A29.1,29.1,0,0,1,151.53,268s-.28,2.85-2.18,4.08-9.51,6.16-11.08,7.45-6.85,1.29-4.92-3.35,5.11-5.32,5.11-5.32a70.08,70.08,0,0,0,0-9.38c-.41-2.79-.75-14.61-.07-17.74s4.53-4.62,4.53-4.62,10.71-23.63,25.78-32.65C168.66,206.48,189.12,195.76,213.76,197.3Z"/><path class="cls-12" d="M210.74,220.51c2.62-6,3.36-18.5,3-23.21-2.21,8.58-23.21,35.95-40.14,42.58-14.75,5.78-25.66,8.81-28.93,8,0,0-1.28,13.37-4.34,12.94-.95-.13-1.67-1.4-2.22-3.09.08,1.69.18,3.07.29,3.81a70.08,70.08,0,0,1,0,9.38s-3.18.69-5.11,5.32,3.36,4.63,4.92,3.35,9.17-6.21,11.08-7.45,2.18-4.08,2.18-4.08a29.1,29.1,0,0,0,2.33-14.63C175.48,250.35,207.26,228.48,210.74,220.51Z"/><path class="cls-13" d="M168.32,182.68s3.93-2.22,11.68,1.31c0,0-4.8-9.2-4.08-18.54s-3.73-21.52-10.41-20.49a2.15,2.15,0,0,0-1.24.67l1.44,2.85L162,164.88c.24,4.87.71,9.46,1,12.16,5,4.43,8.21,22.24,9.12,27.83a62.16,62.16,0,0,0-1.85-17.69Z"/><path class="cls-13" d="M190.78,184.54s-.53,7.25,24.15,7.62c.2-2,.24-3.73.24-3.73l0-2.41A89.63,89.63,0,0,1,190.78,184.54Z"/><path class="cls-8" d="M219,159.78c-8.8-5.74-24.81-1.9-24.81-1.9-2,.81-1.7,3.73-1.34,4.86.78,2.2,5.94,10.31,9,13.11,3.25,3,7.55,1.34,8.06,1,.84-.57,6.35-7.64,9.05-12C221.38,160.93,219,159.78,219,159.78Zm-4.38,5.67a60.54,60.54,0,0,1-6.14,8.16,5.08,5.08,0,0,1-5.47-.67,36.85,36.85,0,0,1-6.11-8.89c-.24-.76-.45-2.75.91-3.3,0,0,10.85-2.6,16.82,1.3C214.64,162.05,216.25,162.83,214.63,165.45Z"/><path class="cls-13" d="M231.14,134.7a13.82,13.82,0,0,1-4.57-2.81c-.2,3.64.58,7.29.94,10.07.49,3.76,5.08,6.93,7.73,8.47,0-3.54-.09-6.14-.09-6.14l5.63-9.08A17,17,0,0,1,231.14,134.7Z"/><path class="cls-9" d="M252.41,116.21c4.43-4.26,13.62-14.87,14.38-18.6s1.58-9.91,3-18.72,4.89-34,5.74-35.56l-8.83-1.41A66,66,0,0,1,268.56,64c-1.25,14.29-4.91,18-8.9,24.83s-.78,7-1.92,12.06-21.15,16.14-27.15,21.72a13,13,0,0,0-4,9.24,13.82,13.82,0,0,0,4.57,2.81,17,17,0,0,0,9.64.51S248,120.47,252.41,116.21Z"/><path class="cls-9" d="M240.33,36.88s6.71,6,19.79.93a24.12,24.12,0,0,0,3.61,5.69c2.18,2.39,15.71.37,17.24-1.17s6.66-9.77,7.13-12.16,3.06-5.82,3.06-5.82-9.57-8.94-20.09-7.12a59.14,59.14,0,0,0-9.66,12,27.6,27.6,0,0,0-7.27,3.89C251.29,35.47,241.05,31.28,240.33,36.88Z"/><path class="cls-7" d="M254.14,33.11c-2.85,2.36-13.09-1.83-13.81,3.77,0,0,6.71,6,19.79.93a24.12,24.12,0,0,0,3.61,5.69c2.18,2.39,15.71.37,17.24-1.17a11.18,11.18,0,0,1-9.54-8.6c-.94-4.83-10-4.51-10-4.51A27.6,27.6,0,0,0,254.14,33.11Z"/><path class="cls-9" d="M281.64.08s-7.4,15.44-10.57,17.15c0,0-2.52,3.52-.57,3.57s8.51-2,11.22-9.45C281.72,11.35,286.09-1.09,281.64.08Z"/><path class="cls-9" d="M292.31,1.47S280.57,16.1,277,17.16c0,0-3.48,3.14-1.62,3.66s8.83-.16,13.66-7.38C289,13.44,297,1.28,292.31,1.47Z"/><path class="cls-9" d="M300.49,10.26s-15,9.33-18.62,9.09c0,0-4.12,1.68-2.51,2.78S287.68,25,294.17,20C294.17,20,304.89,11.66,300.49,10.26Z"/><path class="cls-9" d="M284.24,21.8s3.51,6.56,7.95,8.12,8.75.72,8.64-.24c0,0-.18-1.52-5.23-3.52s-5.8-4.54-5.8-4.54Z"/><path class="cls-10" d="M176.61,68.15S177.9,87.44,165.28,95s-20.73,16.7-15.06,27.12c0,0-6.54-2.78-9.7-7.54,0,0-4.13,2.75.73,9.49a13.06,13.06,0,0,1-13.14-6.53s-13-8-7.43-19.67c0,0-7.79-22.78,16.76-27.15,0,0,13.92,2.51,22.63-.82,0,0,0-14.6,13.39-20.81,0,0,3.61-1.64,6.14.29A24.53,24.53,0,0,1,203,39.79c15.6,2.14,11.15,10.81,18.81,14.07s25.95,2.94,25.89,13-3.7,23.84-6.75,27.37c0,0,.3,11-7.32,17.09,0,0,1-23.12-7.1-25.42,0,0,7.38,10.81,2.9,19.64,0,0,1.29-20.93-16.29-25s-12.68,1.42-24.58-3.91S176.61,68.15,176.61,68.15Z"/><path class="cls-4" d="M137.44,70.7c-21.1,3.76-18.31,21.1-17.11,25.91-.38-2.47.38-8.22,13.21-13.16,16.89-6.52,25.31-6.75,26.53-13.57C151.36,73.21,137.44,70.7,137.44,70.7Z"/><path class="cls-4" d="M160.07,69.88a8.21,8.21,0,0,0,.13-1.72C160.08,69.23,160.07,69.88,160.07,69.88Z"/><path class="cls-4" d="M119.3,104.18c.35,8.12,8.81,13.34,8.81,13.34s-4.71-11.1,6.77-20C134.88,97.49,121.05,96.3,119.3,104.18Z"/><path class="cls-4" d="M222.19,54c2.44,2.71,2.25,5,1.31,5,0,0,15.31-3,21.49,3.42s-9.09,10.15-9.09,10.15c7.94,5.18,5,21.57,5,21.57,3.05-3.53,6.68-17.32,6.75-27.37C247.72,57,230.08,57.12,222.19,54Z"/><path class="cls-14" d="M201.41,46S185,47.82,189,59.25s8.73-.47,16.79,2.39,3.24,10.51,7.46,10.68,9.62-10.61,7-15.24S207.35,43.64,201.41,46Z"/><path class="cls-14" d="M154.8,84.54s1.79,5.87-1.69,8.32,5.86,4,10.93-3.71,13.78-26.31,8.76-28.51-4.48.78-7.54,9.2S150.86,79.61,154.8,84.54Z"/><path class="cls-4" d="M149.51,88s-20.82,5.9-10.54,31.09a4.52,4.52,0,0,1,1.55-4.57S135.77,96.35,149.51,88Z"/><path class="cls-7" d="M156.69,128.58s-15.67,5.32-5,25.25c0,0,4.65,15.74,7.37,16.85,0,0-18.92,1.08-24.87,9.51s-1.36,13.93-1.36,13.93,9.77-6.46,18-6.85,22.59-10.38,22.59-10.38-.05-22.17-7.87-31.93C165.5,145,159.71,128.89,156.69,128.58Z"/><path class="cls-7" d="M136.46,189.25s4.32,6.57,4,12.05c0,0-5.14,7.11-9.89,6.44s-16.84-10.87-16.59-14.07.19-9.77,7.89-14.76c0,0,.08-3.4,5.49-4.33S136.46,189.25,136.46,189.25Z"/><path class="cls-9" d="M130.55,207.74a9.84,9.84,0,0,0-3.06-3.39c-2.5-1.42-10.37-8.79-11.23-13.46-.38-2-.59-3.73-.71-5a21.06,21.06,0,0,0-1.61,7.81c-.25,3.2,11.84,13.39,16.59,14.07Z"/><path class="cls-9" d="M123,181.65s5,8.31,7.41,10.39c0,0-8.15-5.73-8.62-8.11S123,181.65,123,181.65Z"/><path class="cls-9" d="M162.51,171.37s1,6.17-8.74,10.88c-11.52,5.55-17.82,6.07-17.82,6.07l1,3.41c3.6-1.89,9-4.23,13.84-4.46,8.22-.4,22.59-10.38,22.59-10.38s-.05-22.17-7.86-31.93C165.51,145,175.37,171.33,162.51,171.37Z"/><path class="cls-9" d="M136.46,189.25s-2-8.37-5.21-12.48c.14,1.53-.57,4.4.15,6.81s3.28,5,1.87,6.95-2.85,1.51-2.85,1.51,1.88.89,1.54,2c0,0,3,1.07,3.41,3.18a2.15,2.15,0,0,1,1.95,1.68s-.69,1.4-.37,6.19a24.56,24.56,0,0,0,3.47-3.74C140.78,195.82,136.46,189.25,136.46,189.25Z"/><path class="cls-7" d="M283.59,1.72c-.15-1.23-.7-2-1.95-1.64,0,0-7.4,15.44-10.57,17.15a16.61,16.61,0,0,0,8.16-6.84A74.83,74.83,0,0,0,283.59,1.72Z"/><path class="cls-7" d="M293.06,1.58a1.86,1.86,0,0,0-.75-.11s-11.49,14.31-15.19,15.65a1.07,1.07,0,0,0,.65.24c4.54.36,11.27-9.16,13.64-12A8.62,8.62,0,0,0,293.06,1.58Z"/><path class="cls-7" d="M283.33,19.24s4.14.47,10.59-2.14,6.57-6.84,6.57-6.84-11.65,7.25-16.9,8.8Z"/><path class="cls-7" d="M295.6,26.16c-5.05-2-5.57-3.85-5.57-3.85l-2,1.11c1.21,3.9,12.85,6.26,12.85,6.26S300.65,28.16,295.6,26.16Z"/><path class="cls-13" d="M212.58,135l-.24.81a27.61,27.61,0,0,1,2.55-1.32S214,134.69,212.58,135Z"/><path class="cls-13" d="M193.22,135.66a111.29,111.29,0,0,0-11.51-.69,61.23,61.23,0,0,1,12.45,2.88C193.82,137.12,193.51,136.39,193.22,135.66Z"/><path class="cls-9" d="M203.15,138.38s-1.55-1.72-9.93-2.72c.29.73.6,1.46.94,2.19,3.94,1.42,7.75,3.47,9.6,6.38a23.6,23.6,0,0,1,8.58-8.41l.24-.81C209.82,135.66,205.3,136.9,203.15,138.38Z"/><path class="cls-15" d="M99.93,321.21c11.32,5.62,10.76,7.19,24.86,12.61s39.28,12.79,56.68,12.63c14,4.48,27.51,4.9,40.85.23a53.48,53.48,0,0,1,7.06,0c5.16.21,17-1,23.07-3.59,6.08-1.11,11.56-2.2,17.14-4.46a25.81,25.81,0,0,0,9.54-4c5.83-2.76,10.78-6.73,16.34-9.92-4.32,2-8.28,4.59-12.8,6.15a8.3,8.3,0,0,0-8.64-1.51,8.42,8.42,0,0,0-5.66,5.42c-2.34-1.62-5.17-1.49-7.84-1s-5,1.36-5.5,4.25c-2.17-3.35-4.7-3.89-8.49-3.19-3.32-6.65-5.79-6.49-12-3.27-2.47-1.18-4-.33-5.78,1.48-3.15-5.42-6.89-8.48-13.59-7.59s-9.15,5.6-8.39,12.08c-3-1.94-5.64-3.16-9.35-2.93a12.36,12.36,0,0,0-9,4.79c-2.1-2.38-4.41-2.09-7.26-1.27-.93-2-2.35-2.44-4.43-2.33.69-2.1,1.53-3.58.51-5.85s-3.71-3-6.14-2.74c.22-4.26,1.19-8.55-4.67-6.9-3.77-5.09-9.24-7-15.2-5.05s-8.47,6-7.63,11.93c-1.61-3.25-4.8-6.23-8.51-5.85s-4.64,2.73-5.05,5.87c-3.07-2.14-5.53-2.35-8.62-.14A55.61,55.61,0,0,1,99.93,321.21Z"/><path class="cls-15" d="M106.44,184.92s-70-37.47-66.2-83.25c0,0-4.85-9.08,6.21-9.54,0,0,4.5-7.3,9.55-3.87S59.52,98,59.52,98s5.29,7.16-.52,9.51c0,0,2.52,3.92.24,5.66,0,0,4.8-3,9.34,2S65,123.74,65,123.74s4,3.3-.77,9.36c0,0,7.82,5.05,5.79,11.62,0,0,4.67,3.61,1.25,7.83,0,0,11.13,1.52,12.24,9.86C83.54,162.41,86.85,172.26,106.44,184.92Z"/><path class="cls-15" d="M153.27,260.46s40.24,37.86,78.2,40.33A26.18,26.18,0,0,0,254,302.33s13.53,5,24.65-.68c0,0,16.48-.7,22.14-10.54,0,0,4.62-9.49-1.55-10.21,0,0-2.5-4.5-10.87-1.74s-5.15,11.46-5.15,11.46-1.05-3-5.94-1.2c0,0-5.09-9.76-11.75-6.48s-5.46,7-5.46,7-4.62.11-5,3.89a4.77,4.77,0,0,0-3.68-4.17s.42-5.81-6.49-7.42-8.49,2-8.49,2-7.84,1.05-9.13,6c0,0-2.11-4.43-10.24-3.16,0,0,.11-2.29-4.84-3.33a25.36,25.36,0,0,0-16.49-4S183.49,277.8,153.27,260.46Z"/><path class="cls-15" d="M252.82,56.58S270.71,77.31,288,77.86a9.7,9.7,0,0,0,10.27.37s6.12,2.53,11.29-.94c0,0,7.54-.77,10.26-6.52,0,0,2.24-5.53-.57-5.8,0,0-1.08-2.52-4.94-.75s-2.51,6.66-2.51,6.66-.45-1.68-2.71-.55c0,0-2.19-5.46-5.28-3.43s-2.59,4.1-2.59,4.1a2.58,2.58,0,0,0-2.33,2.34s-.06-1.92-1.62-2.3c0,0,.27-3.33-2.87-4.09s-3.91,1.31-3.91,1.31-3.6.78-4.26,3.62c0,0-.9-2.49-4.63-1.58,0,0,.08-1.31-2.17-1.79A9.41,9.41,0,0,0,272,66.6S266.4,65.81,252.82,56.58Z"/><path class="cls-15" d="M97.5,289.4s-51.66-21-71.76-51.57c0,0-11.11-4.28-12-18.1,0,0-11.28-8.26-10.76-21.34,0,0-6.94-14.43.34-25.59,0,0,7.41-10.06,11-5.3,0,0,5.69-.79,6.79,8.1s-3.55,10.57-3.55,10.57,1.86,0,2.34,5.25a5.35,5.35,0,0,1,6.14,4.42c1.39,5.6-3.6,8.46-3.6,8.46s3,6.25-.64,9c0,0,3.49-2,5.91.43,0,0,5.66-4.11,10.48.7s2,8.48,2,8.48,2.58,7.33-1.76,11.6c0,0,5.43-1.07,7.93,6.64,0,0,2.25-1.57,5.6,2,0,0,8.47,2.71,11.67,11.41C63.6,254.5,67.21,270.07,97.5,289.4Z"/><path class="cls-3" d="M285.43,240.26c13.06,23.61,15.15,33.36,13,39.72a3.93,3.93,0,0,1,.79.92,3.41,3.41,0,0,1,2.44,1.22,12.44,12.44,0,0,0,6.14-10c.59-10.13-5.31-11.75-5.31-11.75s3.05-4.29,1-6.15c0,0,6.78-10.34-.23-15.55s-9-1.43-9-1.43.52-4.35-2.44-5c0,0-.26-4.82-4.59-3.29,0,0,4.35-7-.69-10.68,0,0,0-5.61-4.48-7.19s-8.82,4-8.82,4,0-4.26-3.91-4.37a5.79,5.79,0,0,0-5.35,2.56,3.87,3.87,0,0,0-2.35-5.57s2.45-7.88-2.71-9.73-7.19,1.24-7.19,1.24-3.92-2.16-4.94,2.11c0,0,.41-4.7-3.11-5.09s-3.92,1.93-3.92,1.93-12-.55-23.61-2.4C216.15,195.82,268.89,210.36,285.43,240.26Z"/><path class="cls-15" d="M151.06,140.5s-40.76-15.88-57.74-42A24,24,0,0,1,83.2,83S74.51,75,73.64,65.24c0,0-6.23-11.95-2.17-19.28,0,0,4.25-6.47,7.22-2.33,0,0,3.92.27,5.53,7.14s-5.31,7.51-5.31,7.51S81.26,58,82.1,62.1c0,0,8.36.34,8.94,6.18s-2.29,6.22-2.29,6.22,1.8,3.32-.5,4.84a3.75,3.75,0,0,1,4.18,1.22s3.59-2.25,7.43,2.11S102,89.38,102,89.38s2.5,5.92-.15,8.49c0,0,3.72,0,6.2,6.21,0,0,1.43-.85,4.11,2.32a23.3,23.3,0,0,1,9.26,10.38S127.61,124.85,151.06,140.5Z"/></svg>