<svg xmlns="http://www.w3.org/2000/svg" viewBox="0 0 380.5 200.5">
  <path d="M380.25 200.5H.25a.25.25 0 01-.25-.25V.25A.25.25 0 01.25 0h380a.25.25 0 01.25.25v200a.25.25 0 01-.25.25zM.5 200H380V.5H.5z"/>
  <path d="M138.43 57v3.6h-1.23V57l-3.34-5.48h1.08a.4.4 0 01.26.08.64.64 0 01.16.2l2.09 3.55q.12.22.21.42c.06.12.12.26.17.39a2.66 2.66 0 01.16-.39c0-.13.12-.27.19-.42l2.08-3.55a.7.7 0 01.16-.19.39.39 0 01.26-.09h1.09zM144 54.05a3.44 3.44 0 011.28.23 2.73 2.73 0 011 .67 2.9 2.9 0 01.62 1 4.24 4.24 0 01.21 1.37 4.15 4.15 0 01-.21 1.37 2.9 2.9 0 01-.62 1 2.58 2.58 0 01-1 .66 3.25 3.25 0 01-1.28.23 3.28 3.28 0 01-1.28-.23 2.62 2.62 0 01-1-.66 3 3 0 01-.61-1 4.14 4.14 0 01-.22-1.37 4.23 4.23 0 01.22-1.37 3 3 0 01.61-1 2.76 2.76 0 011-.67 3.47 3.47 0 011.28-.23zm0 5.75a1.65 1.65 0 001.43-.64 3 3 0 00.47-1.78 3 3 0 00-.47-1.8 1.65 1.65 0 00-1.43-.64 2.17 2.17 0 00-.84.16 1.66 1.66 0 00-.6.48 2.18 2.18 0 00-.35.77 4 4 0 00-.12 1 3 3 0 00.47 1.78 1.68 1.68 0 001.44.67zM153.8 54.15v6.45h-.67a.3.3 0 01-.31-.24l-.09-.69a3.31 3.31 0 01-.94.74 2.47 2.47 0 01-1.19.29 2.28 2.28 0 01-.94-.18A1.74 1.74 0 01149 60a2 2 0 01-.41-.77 3.14 3.14 0 01-.14-1v-4.08h1.13v4.11a1.66 1.66 0 00.34 1.13 1.24 1.24 0 001 .4 2 2 0 00.94-.23 3.06 3.06 0 00.8-.66v-4.75zM158.85 60.6v-6.45h.69a.27.27 0 01.29.24l.09.66a3.21 3.21 0 01.8-.72 1.87 1.87 0 011-.28 1.52 1.52 0 011.05.36 2 2 0 01.58 1 2.51 2.51 0 01.36-.6 2 2 0 01.5-.42 2 2 0 01.58-.24 2.18 2.18 0 01.63-.08 2.29 2.29 0 01.9.16 1.93 1.93 0 01.68.47 2.28 2.28 0 01.42.77 3.35 3.35 0 01.15 1v4.13h-1.14v-4.11a1.75 1.75 0 00-.33-1.15 1.19 1.19 0 00-1-.39 1.61 1.61 0 00-.53.1 1.28 1.28 0 00-.74.77 1.75 1.75 0 00-.11.67v4.11h-1.14v-4.11a1.8 1.8 0 00-.32-1.16 1.11 1.11 0 00-.91-.38 1.42 1.42 0 00-.77.23 2.51 2.51 0 00-.66.61v4.81zM170.76 52.13a.67.67 0 01-.07.31.72.72 0 01-.18.25 1 1 0 01-.26.18.81.81 0 01-.31.06.78.78 0 01-.31-.06.94.94 0 01-.25-.18.85.85 0 01-.17-.25.67.67 0 01-.07-.31.71.71 0 01.07-.32.9.9 0 01.17-.26.74.74 0 01.25-.17.64.64 0 01.31-.07.67.67 0 01.31.07.78.78 0 01.26.17.76.76 0 01.18.26.71.71 0 01.07.32zm-.24 2v6.47h-1.14v-6.45zM177.81 54.41v.42c0 .14-.08.22-.26.26l-.73.1a2.05 2.05 0 01.21.93 2 2 0 01-.18.85 1.93 1.93 0 01-.5.66 2.33 2.33 0 01-.76.42 3 3 0 01-1 .15 3.35 3.35 0 01-.85-.11.93.93 0 00-.31.27.44.44 0 00-.11.29.39.39 0 00.19.35 1.41 1.41 0 00.49.16 4.47 4.47 0 00.7.07h.8a7 7 0 01.8.1 2.22 2.22 0 01.7.23 1.29 1.29 0 01.49.44 1.28 1.28 0 01.19.72 1.65 1.65 0 01-.21.8 2.17 2.17 0 01-.6.69 2.93 2.93 0 01-1 .49 4.1 4.1 0 01-1.27.18 5 5 0 01-1.23-.14 3 3 0 01-.88-.38 1.57 1.57 0 01-.52-.54 1.28 1.28 0 01-.18-.65 1.14 1.14 0 01.3-.8 2 2 0 01.82-.53 1.22 1.22 0 01-.45-.34.89.89 0 01-.17-.58.77.77 0 010-.29.88.88 0 01.16-.3 1.6 1.6 0 01.61-.52 1.9 1.9 0 01-.75-.71 2 2 0 01-.26-1 2 2 0 01.18-.86 1.89 1.89 0 01.5-.65 2.25 2.25 0 01.78-.42 3.05 3.05 0 011-.15 3.21 3.21 0 01.78.09 2.62 2.62 0 01.66.28zM176.66 61a.56.56 0 00-.13-.39.92.92 0 00-.36-.22 2 2 0 00-.53-.12c-.19 0-.41 0-.63-.06h-.68l-.66-.07a1.7 1.7 0 00-.58.42.86.86 0 00-.23.59.72.72 0 00.12.4.9.9 0 00.34.33 1.89 1.89 0 00.57.21 3.93 3.93 0 00.82.08 4.07 4.07 0 00.82-.08 1.9 1.9 0 00.61-.24 1.14 1.14 0 00.39-.36.82.82 0 00.13-.49zm-2-3.5a1.79 1.79 0 00.6-.1 1.09 1.09 0 00.44-.27 1 1 0 00.27-.41 1.46 1.46 0 00.09-.52 1.24 1.24 0 00-.36-.94 1.74 1.74 0 00-2.09 0 1.24 1.24 0 00-.36.94 1.46 1.46 0 00.1.52 1 1 0 00.27.41 1.09 1.09 0 00.44.27 1.79 1.79 0 00.56.05zM180.13 55a3.4 3.4 0 01.92-.7 2.5 2.5 0 011.15-.26 2.46 2.46 0 01.94.17 1.87 1.87 0 01.67.5 2.1 2.1 0 01.41.77 3.5 3.5 0 01.14 1v4.12h-1.14v-4.11a1.73 1.73 0 00-.33-1.13 1.24 1.24 0 00-1-.41 1.93 1.93 0 00-.94.24 3.27 3.27 0 00-.8.66v4.75H179v-9.38h1.14zM188 60.7a1.52 1.52 0 01-1.17-.43 1.66 1.66 0 01-.43-1.27v-3.9h-.78a.25.25 0 01-.17-.06.22.22 0 01-.07-.19v-.45l1.06-.14.26-2a.28.28 0 01.08-.15.26.26 0 01.18-.06h.57v2.22h1.86v.82h-1.86V59a.82.82 0 00.2.6.69.69 0 00.51.2.9.9 0 00.3-.05l.23-.1.16-.11a.28.28 0 01.12 0 .21.21 0 01.16.11l.33.54a2 2 0 01-.71.43 2.25 2.25 0 01-.83.08zM193.66 55.06a3.69 3.69 0 011.15-.77 3.56 3.56 0 011.37-.25 2.61 2.61 0 011 .17 2 2 0 01.7.5 2.16 2.16 0 01.44.77 3.43 3.43 0 01.14 1v4.12h-.5a.42.42 0 01-.25-.06.39.39 0 01-.15-.21l-.12-.61a5.66 5.66 0 01-.5.41 2.25 2.25 0 01-.51.31 2.73 2.73 0 01-.57.19 3.36 3.36 0 01-.67.07 2.28 2.28 0 01-.7-.11 1.54 1.54 0 01-.58-.31 1.62 1.62 0 01-.39-.53 2 2 0 01-.14-.76 1.43 1.43 0 01.21-.74 2 2 0 01.68-.63 4.26 4.26 0 011.23-.44 8.57 8.57 0 011.85-.2v-.51a1.68 1.68 0 00-.32-1.13 1.17 1.17 0 00-1-.39 2 2 0 00-.7.11 3.22 3.22 0 00-.49.23l-.36.24a.51.51 0 01-.29.1.32.32 0 01-.2-.06.67.67 0 01-.14-.15zm3.65 2.63a9.2 9.2 0 00-1.33.13 3.59 3.59 0 00-.9.26 1.26 1.26 0 00-.5.37.86.86 0 00-.15.49 1 1 0 00.08.43.72.72 0 00.23.31.86.86 0 00.33.17 1.86 1.86 0 00.42 0 2.38 2.38 0 00.55-.06 2.29 2.29 0 00.46-.17 2.36 2.36 0 00.42-.28 2.19 2.19 0 00.39-.36zM201.32 51.22v9.38h-1.14v-9.38zM206.9 55.21a.24.24 0 01-.23.14.4.4 0 01-.22-.07l-.29-.15a2.85 2.85 0 00-.42-.16 1.91 1.91 0 00-.57-.08 1.62 1.62 0 00-.52.08 1.2 1.2 0 00-.39.2.81.81 0 00-.25.3.74.74 0 00-.09.36.58.58 0 00.15.41 1.16 1.16 0 00.38.29 2.93 2.93 0 00.53.21l.62.2.61.23a2.14 2.14 0 01.53.32 1.42 1.42 0 01.53 1.13 2.23 2.23 0 01-.16.83 1.9 1.9 0 01-.47.65 2.32 2.32 0 01-.77.44 3.29 3.29 0 01-1 .16 3.36 3.36 0 01-1.22-.22 3.24 3.24 0 01-.93-.56l.27-.44a.28.28 0 01.12-.12.29.29 0 01.17 0 .45.45 0 01.25.09l.3.2a2.77 2.77 0 00.45.19 2 2 0 00.65.09 1.91 1.91 0 00.57-.08 1.39 1.39 0 00.42-.23.88.88 0 00.24-.34.94.94 0 00.08-.41.65.65 0 00-.14-.44 1.15 1.15 0 00-.38-.3 3.37 3.37 0 00-.54-.22l-.61-.19-.62-.23a2.44 2.44 0 01-.54-.33 1.44 1.44 0 01-.38-.49 1.62 1.62 0 01-.14-.7 1.74 1.74 0 01.15-.71 1.64 1.64 0 01.45-.6 2.09 2.09 0 01.72-.41 2.91 2.91 0 011-.15 3.13 3.13 0 011.14.2 2.73 2.73 0 01.88.55zM211.38 54.05a3.42 3.42 0 011.27.23 2.76 2.76 0 011 .67 3 3 0 01.61 1 4.24 4.24 0 01.21 1.37 4.15 4.15 0 01-.21 1.37 3 3 0 01-.61 1 2.62 2.62 0 01-1 .66 3.23 3.23 0 01-1.27.23 3.3 3.3 0 01-1.29-.23 2.62 2.62 0 01-1-.66 3 3 0 01-.61-1 4.15 4.15 0 01-.21-1.37 4.24 4.24 0 01.21-1.37 3 3 0 01.61-1 2.76 2.76 0 011-.67 3.49 3.49 0 011.29-.23zm0 5.75a1.64 1.64 0 001.42-.64 3 3 0 00.47-1.78 3 3 0 00-.47-1.8 1.64 1.64 0 00-1.42-.64 2.18 2.18 0 00-.85.16 1.66 1.66 0 00-.6.48 2.38 2.38 0 00-.35.77 4 4 0 00-.12 1 3 3 0 00.47 1.78 1.68 1.68 0 001.45.67zM220.3 51.22v9.38h-1.13v-9.38zM223.57 52.13a.81.81 0 01-.06.31 1.14 1.14 0 01-.18.25 1.2 1.2 0 01-.26.18.87.87 0 01-.32.06.81.81 0 01-.31-.06 1.14 1.14 0 01-.25-.18.85.85 0 01-.17-.25.81.81 0 01-.06-.31.87.87 0 01.06-.32.9.9 0 01.17-.26.85.85 0 01.25-.17.67.67 0 01.31-.07.71.71 0 01.32.07.9.9 0 01.26.17 1.2 1.2 0 01.18.26.87.87 0 01.06.32zm-.24 2v6.47h-1.13v-6.45zM226.33 51.22v5.52h.29a.62.62 0 00.21 0 .6.6 0 00.18-.15l2-2.18a.75.75 0 01.19-.17.48.48 0 01.26-.06h1l-2.38 2.53a1.28 1.28 0 01-.37.33.91.91 0 01.21.18l.18.22 2.52 3.19h-1a.66.66 0 01-.25-.05.39.39 0 01-.18-.18l-2.12-2.64a.43.43 0 00-.19-.17.66.66 0 00-.28 0h-.32v3.01h-1.14v-9.38zM236.52 59.69a2.11 2.11 0 01-.5.44 3.07 3.07 0 01-.63.31 3.88 3.88 0 01-.69.18 3.37 3.37 0 01-.7.06 3.33 3.33 0 01-1.24-.22 2.7 2.7 0 01-1-.66 3 3 0 01-.64-1.08 4.47 4.47 0 01-.23-1.48 3.7 3.7 0 01.21-1.26 3 3 0 01.59-1 2.85 2.85 0 01.95-.68 3.15 3.15 0 011.26-.24 2.87 2.87 0 011.07.19 2.51 2.51 0 01.86.56 2.69 2.69 0 01.56.91 3.51 3.51 0 01.2 1.22.91.91 0 01-.05.36.24.24 0 01-.22.09H232a3.68 3.68 0 00.17 1.06 2.09 2.09 0 00.42.75 1.56 1.56 0 00.63.45 2.23 2.23 0 00.83.15 2.73 2.73 0 00.74-.09 3.86 3.86 0 00.53-.22 3 3 0 00.37-.21.45.45 0 01.26-.1.25.25 0 01.21.11zm-.92-3a2.09 2.09 0 00-.11-.72 1.59 1.59 0 00-.32-.57 1.5 1.5 0 00-.52-.37 1.88 1.88 0 00-.69-.13 1.71 1.71 0 00-1.29.48 2.19 2.19 0 00-.59 1.31zM237.82 59.9a.87.87 0 01.06-.32.82.82 0 01.16-.25.88.88 0 01.57-.24.82.82 0 01.31.07.74.74 0 01.25.17.88.88 0 01.18.25.87.87 0 01.06.32.78.78 0 01-.06.31.76.76 0 01-.18.25.74.74 0 01-.25.17.81.81 0 01-.31.06.81.81 0 01-.57-.23.72.72 0 01-.16-.25.78.78 0 01-.06-.31zm3.27 0a.87.87 0 01.06-.32 1.07 1.07 0 01.16-.25.88.88 0 01.57-.24.82.82 0 01.31.07.74.74 0 01.25.17.88.88 0 01.18.25.87.87 0 01.06.32.78.78 0 01-.06.31.76.76 0 01-.18.25.74.74 0 01-.25.17.81.81 0 01-.31.06.81.81 0 01-.57-.23.89.89 0 01-.16-.25.78.78 0 01-.06-.31zm3.28 0a.87.87 0 01.06-.32.82.82 0 01.16-.25.85.85 0 01.25-.17.82.82 0 01.31-.07.88.88 0 01.32.07.81.81 0 01.42.42.88.88 0 01.07.32.78.78 0 01-.07.31.74.74 0 01-.17.25.85.85 0 01-.25.17.87.87 0 01-.32.06.81.81 0 01-.31-.06.85.85 0 01-.25-.17.72.72 0 01-.16-.25.78.78 0 01-.06-.31zM22.23 116.56L11 105.36a.24.24 0 010-.35l11.2-11.2.35.35-11 11 11 11zM358.27 116.56l-.35-.35 11-11-11-11 .35-.35 11.2 11.2a.24.24 0 010 .35zM91.35 134h-57a.25.25 0 01-.25-.25V76.66a.25.25 0 01.25-.25h57a.25.25 0 01.25.25v57.05a.25.25 0 01-.25.29zm-56.8-.5H91.1V76.91H34.55zM155.06 134H98a.25.25 0 01-.25-.25V76.66a.25.25 0 01.25-.25h57.05a.25.25 0 01.25.25v57.05a.25.25 0 01-.24.29zm-56.8-.5h56.55V76.91H98.26zM218.78 134h-57.06a.25.25 0 01-.25-.25V76.66a.25.25 0 01.25-.25h57.06a.25.25 0 01.25.25v57.05a.25.25 0 01-.25.29zm-56.81-.5h56.56V76.91H162zM282.49 134h-57.05a.25.25 0 01-.25-.25V76.66a.25.25 0 01.25-.25h57.05a.25.25 0 01.25.25v57.05a.25.25 0 01-.25.29zm-56.8-.5h56.55V76.91h-56.55zM346.2 134h-57.05a.25.25 0 01-.25-.25V76.66a.25.25 0 01.25-.25h57.05a.25.25 0 01.25.25v57.05a.25.25 0 01-.25.29zm-56.8-.5H346V76.91h-56.6zM34.3 139.71h57.05v3.57H34.3zM98.01 139.71h57.05v3.57H98.01zM161.72 139.71h57.05v3.57h-57.05zM225.44 139.71h57.05v3.57h-57.05zM289.15 139.71h57.05v3.57h-57.05zM34.3 147.26h57.05v3.57H34.3zM98.01 147.26h57.05v3.57H98.01zM161.72 147.26h57.05v3.57h-57.05zM225.44 147.26h57.05v3.57h-57.05zM289.15 147.26h57.05v3.57h-57.05z"/>
  <path d="M72.71 101.67a4.28 4.28 0 001.25-3 4.32 4.32 0 00-7.85-2.5 10.75 10.75 0 00-2.49-.46v-1.66h1.59v-1.59h-4.77v1.59H62v1.63a10.75 10.75 0 00-2.49.46 4.32 4.32 0 10-6.6 5.53 11.07 11.07 0 001.35 12.24l-2 2.73 1.27 1 1.9-2.53a11 11 0 0014.81 0l1.9 2.53 1.27-1-2-2.73a11.07 11.07 0 001.35-12.24zm-3.08-5.77a2.74 2.74 0 012.74 2.74 2.71 2.71 0 01-.53 1.62 11.21 11.21 0 00-4.19-3.5 2.74 2.74 0 011.98-.86zm-16.35 2.74A2.75 2.75 0 0156 95.9a2.7 2.7 0 012 .86 11.21 11.21 0 00-4.19 3.5 2.73 2.73 0 01-.53-1.62zm9.55 17.68a9.55 9.55 0 119.54-9.55 9.56 9.56 0 01-9.54 9.55zm.79-9.55H70v1.6h-8V102h1.59zM137.35 112.79l-2.5-5-5 2.5.71 1.42 3-1.49a7.16 7.16 0 01-6.23 5.7v-12h2.39v-1.62h-2.39v-1.67a4 4 0 10-1.59 0v1.67h-2.39v1.59h2.39v12a7.14 7.14 0 01-6.22-5.7l3 1.49.71-1.42-5-2.5-2.5 5 1.42.71 1-2.06a8.75 8.75 0 0016.71 0l1 2zm-13.19-16.06a2.39 2.39 0 112.39 2.39 2.39 2.39 0 01-2.39-2.39zM197.41 98v-3.78a2.59 2.59 0 00-2.62-2.56h-9.06a2.59 2.59 0 00-2.61 2.56V98h-4.8v20.7h23.86V98zm-12.7-3.81a1 1 0 011-1h9.06a1 1 0 011 1V98h-11.06zm15.88 22.89h-20.68v-12.69h20.68zm0-14.31h-20.68v-3.15h3.21v1h1.59v-1h11.11v1h1.59v-1h3.18zM265.82 94.32l-10.34 15.11-1.31-.9 10.34-15.11zm-11 19.42a3.18 3.18 0 01-3.18 3.18h-9.53l7.24-5.46a4.82 4.82 0 012.29-.93 3.18 3.18 0 013.18 3.21zm-1.59 0a1.59 1.59 0 00-1.59-1.59 3.47 3.47 0 00-1.36.63l-3.42 2.58h4.78a1.59 1.59 0 001.59-1.62zM313.63 96.44v-1.59H309v1.59h-4.84v19.08h27V96.44zm16 17.49h-23.89V102.8h10.43A6.35 6.35 0 10328 106a6.27 6.27 0 00-.88-3.18h2.47zm-3.18-8a4.77 4.77 0 11-4.77-4.77 4.78 4.78 0 014.74 4.84zm-.6-4.77a6.25 6.25 0 00-8.33 0h-11.78V98h23.86v3.18z"/>
</svg>
