<svg xmlns="http://www.w3.org/2000/svg" viewBox="0 0 380.5 200.5">
  <path d="M380.25 200.5H.25a.25.25 0 01-.25-.25V.25A.25.25 0 01.25 0h380a.25.25 0 01.25.25v200a.25.25 0 01-.25.25zM.5 200H380V.5H.5z"/>
  <path d="M138.43 21.77v3.63h-1.23v-3.63l-3.34-5.49h1.08a.4.4 0 01.26.08 1.2 1.2 0 01.17.21l2.08 3.54q.12.23.21.42c.06.13.12.26.17.39a3.2 3.2 0 01.16-.39c0-.13.12-.27.19-.42l2.08-3.54a1 1 0 01.16-.2.39.39 0 01.26-.09h1.09zM144 18.86a3.23 3.23 0 011.27.23 2.73 2.73 0 011 .67 2.9 2.9 0 01.62 1 4.15 4.15 0 01.21 1.37 4.19 4.19 0 01-.21 1.37 2.77 2.77 0 01-.62 1 2.73 2.73 0 01-1 .67 3.42 3.42 0 01-1.27.23 3.49 3.49 0 01-1.29-.23 2.76 2.76 0 01-1-.67 2.89 2.89 0 01-.61-1 4.19 4.19 0 01-.21-1.37 4.15 4.15 0 01.21-1.37 3 3 0 01.61-1 2.76 2.76 0 011-.67 3.3 3.3 0 011.29-.23zm0 5.75a1.66 1.66 0 001.42-.64 3 3 0 00.47-1.79 3 3 0 00-.47-1.79 1.64 1.64 0 00-1.42-.64 2 2 0 00-.85.16 1.56 1.56 0 00-.6.48 2.13 2.13 0 00-.35.76 4.1 4.1 0 00-.12 1 3 3 0 00.47 1.79 1.71 1.71 0 001.45.67zM153.8 19v6.4h-.67a.3.3 0 01-.31-.23l-.09-.7a3.38 3.38 0 01-.94.75 2.43 2.43 0 01-1.19.28 2.29 2.29 0 01-.94-.17 1.85 1.85 0 01-.67-.49 2 2 0 01-.41-.77 3.22 3.22 0 01-.14-1V19h1.13v4.11a1.69 1.69 0 00.34 1.13 1.24 1.24 0 001 .4 2 2 0 00.94-.24 3.06 3.06 0 00.8-.66V19zM158.86 25.4V19h.68a.27.27 0 01.29.23l.09.66a3 3 0 01.8-.71 1.87 1.87 0 011-.28 1.52 1.52 0 011.05.36 2 2 0 01.58 1 2.4 2.4 0 01.36-.61 2 2 0 01.5-.42 2 2 0 01.58-.24 2.65 2.65 0 01.63-.07 2.29 2.29 0 01.9.16 1.81 1.81 0 01.68.47 2.19 2.19 0 01.42.77 3.3 3.3 0 01.15 1v4.1h-1.14V21.3a1.73 1.73 0 00-.33-1.15 1.19 1.19 0 00-1-.39 1.39 1.39 0 00-.53.1 1.28 1.28 0 00-.74.77 1.71 1.71 0 00-.11.67v4.1h-1.14v-4.1a1.8 1.8 0 00-.32-1.16 1.1 1.1 0 00-.9-.38 1.42 1.42 0 00-.78.22 2.74 2.74 0 00-.66.62v4.8zM170.76 16.93a.64.64 0 01-.07.31.76.76 0 01-.18.26.78.78 0 01-.26.17.82.82 0 01-.31.07.78.78 0 01-.31-.07.85.85 0 01-.25-.17.9.9 0 01-.17-.26.64.64 0 01-.07-.31.67.67 0 01.07-.31.78.78 0 01.17-.26.88.88 0 01.25-.18.78.78 0 01.31-.06.81.81 0 01.31.06.81.81 0 01.26.18.83.83 0 01.25.57zm-.24 2v6.47h-1.14V19zM177.81 19.21v.42c0 .14-.08.23-.26.27l-.73.09a2.05 2.05 0 01.21.93 2 2 0 01-.18.86 2.14 2.14 0 01-.5.66 2.33 2.33 0 01-.76.42 3.53 3.53 0 01-1.82 0 .93.93 0 00-.31.27.42.42 0 00-.11.28.38.38 0 00.19.35 1.23 1.23 0 00.46.24 4.57 4.57 0 00.7.06h.8a7 7 0 01.8.09 2.88 2.88 0 01.7.23 1.48 1.48 0 01.49.44 1.34 1.34 0 01.19.73 1.68 1.68 0 01-.21.8 2.17 2.17 0 01-.6.69 2.92 2.92 0 01-1 .48 4.08 4.08 0 01-1.26.18 4.55 4.55 0 01-1.24-.14 2.74 2.74 0 01-.88-.37 1.59 1.59 0 01-.52-.55 1.24 1.24 0 01-.18-.64 1.16 1.16 0 01.3-.81 2 2 0 01.82-.53 1 1 0 01-.45-.34.9.9 0 01-.17-.57.74.74 0 010-.29 1.1 1.1 0 01.16-.3 1.32 1.32 0 01.25-.28 1.88 1.88 0 01.36-.24 2 2 0 01-.83-2.59 1.84 1.84 0 01.51-.66 2.28 2.28 0 01.77-.42 3.41 3.41 0 011-.14 3.21 3.21 0 01.78.09 2.29 2.29 0 01.66.27zm-1.15 6.54a.55.55 0 00-.13-.38.93.93 0 00-.36-.23 3 3 0 00-.53-.12L175 25h-.68c-.22 0-.45 0-.66-.06a2 2 0 00-.58.41.87.87 0 00-.22.59.74.74 0 00.11.41.88.88 0 00.34.32 2.19 2.19 0 00.57.22 3.93 3.93 0 00.82.08 3.37 3.37 0 00.82-.09 1.89 1.89 0 00.61-.23 1.14 1.14 0 00.39-.36.85.85 0 00.14-.54zm-2-3.5a1.8 1.8 0 00.6-.09 1.37 1.37 0 00.44-.27 1 1 0 00.27-.41A1.47 1.47 0 00176 21a1.27 1.27 0 00-.36-.94 1.74 1.74 0 00-2.09 0 1.27 1.27 0 00-.36.94 1.47 1.47 0 00.1.53 1 1 0 00.27.41 1.37 1.37 0 00.44.27 1.8 1.8 0 00.62.04zM180.13 19.82a3.21 3.21 0 01.92-.7 2.39 2.39 0 011.16-.26 2.27 2.27 0 01.93.17 1.76 1.76 0 01.67.5 2.1 2.1 0 01.41.77 3.45 3.45 0 01.14 1v4.1h-1.14v-4.1a1.76 1.76 0 00-.33-1.14 1.24 1.24 0 00-1-.4 1.87 1.87 0 00-.93.24 2.94 2.94 0 00-.81.66v4.74H179V16h1.14zM188 25.5a1.55 1.55 0 01-1.17-.42 1.74 1.74 0 01-.41-1.23v-4h-.78a.25.25 0 01-.17-.06.21.21 0 01-.07-.18v-.41l1.06-.13.26-2a.3.3 0 01.08-.16.26.26 0 01.18-.06h.57v2.22h1.86v.82h-1.86v3.87a.84.84 0 00.2.61.69.69 0 00.51.19.87.87 0 00.3 0 1 1 0 00.23-.11l.16-.1a.28.28 0 01.12-.05.21.21 0 01.16.11l.33.54a2.17 2.17 0 01-.71.43 2.41 2.41 0 01-.85.12zM193.66 19.87a3.52 3.52 0 011.15-.77 3.56 3.56 0 011.37-.26 2.42 2.42 0 011 .18 1.87 1.87 0 01.7.5 2 2 0 01.44.77 3.43 3.43 0 01.14 1v4.11h-.5a.52.52 0 01-.25 0 .37.37 0 01-.14-.22l-.13-.61a5.87 5.87 0 01-.5.42 3.3 3.3 0 01-.51.31 3.18 3.18 0 01-.57.19 3.4 3.4 0 01-.67.06 2.28 2.28 0 01-.7-.1 1.55 1.55 0 01-.58-.32 1.52 1.52 0 01-.39-.53 1.94 1.94 0 01-.14-.76 1.4 1.4 0 01.21-.73 1.82 1.82 0 01.68-.63 4.55 4.55 0 011.23-.45 10 10 0 011.85-.2v-.5a1.72 1.72 0 00-.32-1.14 1.18 1.18 0 00-1-.38 2 2 0 00-.7.1 2.49 2.49 0 00-.49.24l-.36.23a.53.53 0 01-.29.11.32.32 0 01-.2-.06.67.67 0 01-.14-.15zm3.65 2.63a11.08 11.08 0 00-1.33.12 4.37 4.37 0 00-.89.26 1.24 1.24 0 00-.51.38.81.81 0 00-.15.48 1.15 1.15 0 00.08.44.76.76 0 00.23.3.74.74 0 00.33.17 1.42 1.42 0 00.42.06 2.38 2.38 0 00.55-.06 1.83 1.83 0 00.46-.18 1.88 1.88 0 00.42-.27 3.33 3.33 0 00.39-.36zM201.32 16v9.4h-1.13V16zM206.9 20a.25.25 0 01-.23.14.4.4 0 01-.22-.07l-.29-.16c-.12-.05-.26-.11-.42-.16a2.34 2.34 0 00-.57-.07 2 2 0 00-.52.07 1.22 1.22 0 00-.39.21.86.86 0 00-.25.29.91.91 0 00-.08.37.59.59 0 00.14.41 1.16 1.16 0 00.38.29 2.93 2.93 0 00.53.21l.62.2a6.37 6.37 0 01.61.23 1.87 1.87 0 01.53.32 1.3 1.3 0 01.38.46 1.41 1.41 0 01.15.67 2.18 2.18 0 01-.16.82 1.94 1.94 0 01-.47.66 2.3 2.3 0 01-.77.43 3 3 0 01-1 .16 3.16 3.16 0 01-1.22-.22 2.85 2.85 0 01-.93-.56l.27-.43a.3.3 0 01.12-.13.29.29 0 01.17 0 .45.45 0 01.25.09l.3.19a2.1 2.1 0 00.45.2 2 2 0 00.65.09 1.62 1.62 0 00.57-.09 1.06 1.06 0 00.42-.23.88.88 0 00.24-.34.9.9 0 00.08-.4.67.67 0 00-.14-.45 1.27 1.27 0 00-.38-.29 2.25 2.25 0 00-.54-.22l-.61-.19a6.62 6.62 0 01-.62-.24 2.08 2.08 0 01-.54-.32 1.46 1.46 0 01-.52-1.19A1.71 1.71 0 01203 20a1.76 1.76 0 01.45-.6 2.09 2.09 0 01.72-.41 3.28 3.28 0 012.11 0 2.57 2.57 0 01.88.55zM211.38 18.86a3.23 3.23 0 011.27.23 2.76 2.76 0 011 .67 3 3 0 01.61 1 4.15 4.15 0 01.21 1.37 4.19 4.19 0 01-.21 1.37 2.89 2.89 0 01-.61 1 2.76 2.76 0 01-1 .67 3.42 3.42 0 01-1.27.23 3.49 3.49 0 01-1.29-.23 2.76 2.76 0 01-1-.67 2.89 2.89 0 01-.61-1 4.19 4.19 0 01-.21-1.37 4.15 4.15 0 01.21-1.37 3 3 0 01.61-1 2.76 2.76 0 011-.67 3.3 3.3 0 011.29-.23zm0 5.75a1.66 1.66 0 001.42-.61 2.93 2.93 0 00.47-1.79 2.93 2.93 0 00-.47-1.79 1.64 1.64 0 00-1.42-.64 2 2 0 00-.85.16 1.46 1.46 0 00-.59.48 2.14 2.14 0 00-.36.76 4.1 4.1 0 00-.12 1 2.93 2.93 0 00.48 1.79 1.68 1.68 0 001.44.64zM220.3 16v9.4h-1.13V16zM223.57 16.93a.78.78 0 01-.06.31 1.2 1.2 0 01-.18.26.9.9 0 01-.26.17.88.88 0 01-.32.07.82.82 0 01-.31-.07.85.85 0 01-.25-.17.9.9 0 01-.17-.26.78.78 0 01-.06-.31.81.81 0 01.06-.31.78.78 0 01.17-.26.88.88 0 01.25-.18.81.81 0 01.31-.06.87.87 0 01.32.06.93.93 0 01.26.18 1 1 0 01.18.26.81.81 0 01.06.31zm-.24 2v6.47h-1.13V19zM226.33 16v5.52h.29a.56.56 0 00.21 0 .44.44 0 00.18-.14l2-2.18a.6.6 0 01.19-.17.48.48 0 01.26-.06h1l-2.38 2.52a1.27 1.27 0 01-.36.34l.2.17.18.23 2.52 3.18h-1a.51.51 0 01-.25 0 .42.42 0 01-.18-.17l-2.12-2.64a.51.51 0 00-.18-.18 1 1 0 00-.29 0h-.32v2.98h-1.14V16zM236.52 24.5a2.11 2.11 0 01-.5.44 2.84 2.84 0 01-.63.31 3.88 3.88 0 01-.69.18 4.23 4.23 0 01-.7.06 3.33 3.33 0 01-1.24-.22 2.86 2.86 0 01-1-.67 3.08 3.08 0 01-.64-1.07 4.47 4.47 0 01-.23-1.48 3.7 3.7 0 01.21-1.26 3 3 0 01.59-1 2.82 2.82 0 01.95-.67 3.15 3.15 0 011.26-.24 2.83 2.83 0 011.07.19 2.37 2.37 0 01.86.56 2.55 2.55 0 01.56.9 3.6 3.6 0 01.2 1.23.85.85 0 01-.05.35.24.24 0 01-.22.09H232a3.62 3.62 0 00.17 1.06 2.06 2.06 0 00.42.76 1.66 1.66 0 00.63.45 2.23 2.23 0 00.83.15 2.32 2.32 0 00.74-.1 3.9 3.9 0 00.53-.21l.37-.21a.45.45 0 01.31-.1.24.24 0 01.21.1zm-.91-3a2.11 2.11 0 00-.12-.73 1.64 1.64 0 00-.32-.56 1.5 1.5 0 00-.52-.37 1.7 1.7 0 00-.69-.13 1.75 1.75 0 00-1.29.47 2.25 2.25 0 00-.59 1.32zM237.82 24.7a.81.81 0 01.06-.31.72.72 0 01.16-.25.93.93 0 01.26-.18.78.78 0 01.31-.06.81.81 0 01.31.06 1 1 0 01.43.43.81.81 0 01.06.31.83.83 0 01-.06.32.88.88 0 01-.18.25.74.74 0 01-.25.17.81.81 0 01-.31.06.78.78 0 01-.31-.06.9.9 0 01-.26-.17.82.82 0 01-.22-.57zm3.27 0a.81.81 0 01.06-.31.89.89 0 01.16-.25.81.81 0 01.26-.18.78.78 0 01.31-.06.81.81 0 01.31.06.93.93 0 01.26.18.92.92 0 01.17.25.81.81 0 01.06.31.83.83 0 01-.06.32 1.1 1.1 0 01-.17.25.9.9 0 01-.26.17.81.81 0 01-.31.06.81.81 0 01-.57-.23 1.07 1.07 0 01-.16-.25.83.83 0 01-.06-.32zm3.28 0a.81.81 0 01.06-.31.72.72 0 01.16-.25.88.88 0 01.25-.18.81.81 0 01.31-.06.83.83 0 01.32.06.88.88 0 01.25.18.74.74 0 01.17.25.67.67 0 01.07.31.68.68 0 01-.07.32.81.81 0 01-.42.42.83.83 0 01-.32.06.81.81 0 01-.31-.06.85.85 0 01-.25-.17.82.82 0 01-.22-.57zM123.21 95.75h-57a.25.25 0 01-.25-.25v-57a.25.25 0 01.25-.25h57.05a.25.25 0 01.25.25v57a.25.25 0 01-.3.25zm-56.8-.5H123V38.7H66.41zM186.92 95.75h-57a.25.25 0 01-.25-.25v-57a.25.25 0 01.25-.25h57a.25.25 0 01.25.25v57a.25.25 0 01-.25.25zm-56.8-.5h56.55V38.7h-56.55zM250.63 95.75h-57a.25.25 0 01-.25-.25v-57a.25.25 0 01.25-.25h57a.25.25 0 01.25.25v57a.25.25 0 01-.25.25zm-56.8-.5h56.55V38.7h-56.55zM314.34 95.75h-57a.25.25 0 01-.25-.25v-57a.25.25 0 01.25-.25h57a.25.25 0 01.25.25v57a.25.25 0 01-.25.25zm-56.8-.5h56.55V38.7h-56.55zM186.92 175.64h-57a.25.25 0 01-.25-.25v-57a.25.25 0 01.25-.25h57a.25.25 0 01.25.25v57a.25.25 0 01-.25.25zm-56.8-.5h56.55v-56.55h-56.55zM250.63 175.64h-57a.25.25 0 01-.25-.25v-57a.25.25 0 01.25-.25h57a.25.25 0 01.25.25v57a.25.25 0 01-.25.25zm-56.8-.5h56.55v-56.55h-56.55zM314.34 175.64h-57a.25.25 0 01-.25-.25v-57a.25.25 0 01.25-.25h57a.25.25 0 01.25.25v57a.25.25 0 01-.25.25zm-56.8-.5h56.55v-56.55h-56.55zM123.21 175.64h-57a.25.25 0 01-.25-.25v-57a.25.25 0 01.25-.25h57.05a.25.25 0 01.25.25v57a.25.25 0 01-.3.25zm-56.8-.5H123v-56.55H66.41zM66.16 101.36h57.05v4.77H66.16zM129.87 101.36h57.05v4.77h-57.05zM193.58 101.36h57.05v4.77h-57.05zM257.29 101.36h57.05v4.77h-57.05zM129.87 181.25h57.05v4.77h-57.05zM193.58 181.25h57.05v4.77h-57.05zM257.29 181.25h57.05v4.77h-57.05zM66.16 181.25h57.05v4.77H66.16z"/>
  <path d="M104.57 63.46a4.28 4.28 0 001.25-3A4.32 4.32 0 0098 57.93a10.84 10.84 0 00-2.49-.46v-1.63h1.59v-1.59h-4.8v1.59h1.59v1.63a10.83 10.83 0 00-2.5.46 4.32 4.32 0 10-6.59 5.53 11.07 11.07 0 001.35 12.24l-2.05 2.73 1.28.95 1.89-2.53a11.06 11.06 0 0014.82 0l1.9 2.53 1.27-.95-2-2.73a11.07 11.07 0 001.35-12.24zm-3.09-5.77a2.75 2.75 0 012.75 2.75 2.71 2.71 0 01-.54 1.61 11.18 11.18 0 00-4.18-3.5 2.7 2.7 0 011.97-.86zm-16.34 2.75a2.75 2.75 0 012.74-2.75 2.7 2.7 0 012 .86 11.25 11.25 0 00-4.18 3.5 2.7 2.7 0 01-.56-1.61zm9.54 17.67a9.55 9.55 0 119.55-9.54 9.55 9.55 0 01-9.55 9.54zm.8-9.54h6.36v1.59h-8v-6.37h1.59zM169.2 74.58l-2.49-5-5 2.5.72 1.42 3-1.49a7.14 7.14 0 01-6.22 5.7v-12h2.38v-1.62h-2.39v-1.67a4 4 0 10-1.59 0v1.67h-2.39v1.59h2.39v12a7.15 7.15 0 01-6.23-5.68l3 1.48.72-1.42-5-2.5-2.5 5 1.43.71 1-2.06a8.75 8.75 0 0016.72 0l1 2zM156 58.53a2.39 2.39 0 112.38 2.38 2.39 2.39 0 01-2.38-2.38zM229.26 59.82V56a2.58 2.58 0 00-2.61-2.55h-9.06A2.59 2.59 0 00215 56v3.81h-4.79V80.5H234V59.82zM216.56 56a1 1 0 011-1h9.06a1 1 0 011 1v3.81h-11.06zm15.89 22.9h-20.68V66.18h20.68zm0-14.32h-20.68v-3.17H215v1h1.59v-1h11.11v1h1.59v-1h3.19zM297.67 56.11l-10.33 15.11-1.34-.89 10.34-15.12zm-11 19.42a3.18 3.18 0 01-3.18 3.18H274l7.24-5.46a5 5 0 012.3-.93 3.19 3.19 0 013.14 3.21zm-1.59 0a1.6 1.6 0 00-1.59-1.59 3.56 3.56 0 00-1.36.63l-3.42 2.58h4.78a1.59 1.59 0 001.6-1.62zM90.64 138.12v-1.59H86v1.59h-4.84v19.09h27v-19.09zm16 17.5H82.75v-11.14h10.43a6.27 6.27 0 00-.88 3.18 6.36 6.36 0 0012.72 0 6.28 6.28 0 00-.89-3.18h2.48zm-3.18-8a4.77 4.77 0 11-4.77-4.77 4.78 4.78 0 014.74 4.81zm-.61-4.77a6.25 6.25 0 00-8.33 0H82.75v-3.18h23.86v3.18zM168.83 142.28l1.12-1.12-2.76-2.76 1.21-1.2-1.12-1.13-13 12.9a4.69 4.69 0 00-2.71-.85 4.8 4.8 0 103.84 2l8.37-8.33 2.77 2.77 1.12-1.13-2.67-2.8 1.12-1.11zm-17.22 13.79a3.18 3.18 0 113.18-3.18 3.18 3.18 0 01-3.18 3.18zM213.36 134.14v10.34l8.69 15.11 8.8-15.11v-10.34zm8.7 22.27zm.05-12.72a1.59 1.59 0 111.59-1.59 1.59 1.59 0 01-1.59 1.59zm7.15.36L222.9 155v-9.8a3.19 3.19 0 10-1.59 0v9.94L215 144.05v-8.32h14.31zM285.32 139.71h8.95l-5.74-6.36h-11.16v6.36h6.36v5.92h-1.79v14.76h5.17v-14.76h-1.79zm-6.32-4.77h8.86l2.87 3.18H279zm6.56 23.86h-2v-11.58h2z"/>
</svg>
