<svg xmlns="http://www.w3.org/2000/svg" viewBox="0 0 663.04 200.5">
  <defs/>
  <path d="M662.79 200.5H.25a.25.25 0 01-.25-.25V.25A.25.25 0 01.25 0h662.54a.25.25 0 01.25.25v200a.25.25 0 01-.25.25zM.5 200h662V.5H.5z"/>
  <path d="M34.23 34.88v5.84h-2v-5.84l-5.37-8.81h1.74a.6.6 0 01.42.13 1 1 0 01.26.33l3.36 5.7.34.67a4.78 4.78 0 01.26.62c.08-.21.16-.42.26-.62s.2-.44.31-.67l3.35-5.7a1.07 1.07 0 01.25-.32.64.64 0 01.42-.14h1.77zM43.19 30.2a5.26 5.26 0 012 .38 4.39 4.39 0 011.56 1.07 4.81 4.81 0 011 1.69 7.32 7.32 0 010 4.41 4.72 4.72 0 01-1 1.67 4.26 4.26 0 01-1.56 1.07 5.26 5.26 0 01-2 .38 5.4 5.4 0 01-2.06-.38 4.26 4.26 0 01-1.56-1.07 4.72 4.72 0 01-1-1.67 7.32 7.32 0 010-4.41 4.81 4.81 0 011-1.69 4.39 4.39 0 011.56-1.07 5.4 5.4 0 012.06-.38zm0 9.24a2.66 2.66 0 002.29-1 4.8 4.8 0 00.76-2.87 4.79 4.79 0 00-.76-2.88 2.65 2.65 0 00-2.29-1 3.2 3.2 0 00-1.36.27 2.56 2.56 0 00-1 .77 3.5 3.5 0 00-.57 1.23 6.39 6.39 0 00-.19 1.65 4.8 4.8 0 00.76 2.87 2.71 2.71 0 002.36.96zM58.94 30.36v10.36h-1.09a.46.46 0 01-.49-.38l-.14-1.11a5.59 5.59 0 01-1.52 1.2 4 4 0 01-1.92.46 3.93 3.93 0 01-1.5-.28 3 3 0 01-1.08-.8 3.17 3.17 0 01-.66-1.23 5.45 5.45 0 01-.22-1.58v-6.64h1.82V37a2.76 2.76 0 00.53 1.82 2 2 0 001.64.64 3 3 0 001.51-.38 4.74 4.74 0 001.3-1.08v-7.64zM67.05 40.72V30.36h1.1a.45.45 0 01.48.38l.13 1.07a5.23 5.23 0 011.29-1.16 3.06 3.06 0 011.66-.45 2.48 2.48 0 011.69.58 3.32 3.32 0 01.93 1.58 3.42 3.42 0 01.58-1 3.21 3.21 0 01.8-.68 3.82 3.82 0 01.93-.39 4.29 4.29 0 011-.12 3.87 3.87 0 011.45.26 3 3 0 011.09.76 3.45 3.45 0 01.68 1.24 5.31 5.31 0 01.23 1.67v6.59h-1.82v-6.56a2.78 2.78 0 00-.53-1.85 1.88 1.88 0 00-1.53-.63 2.48 2.48 0 00-.86.16 2.1 2.1 0 00-.71.47 2.2 2.2 0 00-.48.77 3 3 0 00-.16 1.08v6.59h-1.85v-6.59a2.93 2.93 0 00-.5-1.86 1.78 1.78 0 00-1.46-.62 2.23 2.23 0 00-1.25.37 4.4 4.4 0 00-1.06 1v7.72zM86.19 27.11a1.18 1.18 0 01-.11.5 1.46 1.46 0 01-.29.41 1.34 1.34 0 01-.42.28 1.24 1.24 0 01-.5.1 1.18 1.18 0 01-.5-.1A1.26 1.26 0 0184 28a1.42 1.42 0 01-.28-.41 1.18 1.18 0 01-.1-.5 1.24 1.24 0 01.1-.5 1.34 1.34 0 01.28-.42 1.12 1.12 0 01.4-.28 1.18 1.18 0 01.5-.11 1.25 1.25 0 01.5.11 1.19 1.19 0 01.42.28 1.37 1.37 0 01.29.42 1.25 1.25 0 01.08.52zm-.39 3.25v10.36H84V30.36zM97.52 30.77v.68c0 .22-.14.37-.42.43l-1.18.12a3.39 3.39 0 01.08 2.9 3.37 3.37 0 01-.83 1.1 3.52 3.52 0 01-1.22.67 4.9 4.9 0 01-1.56.24 5.09 5.09 0 01-1.39-.22 2 2 0 00-.5.44.73.73 0 00-.17.46.62.62 0 00.3.56 2 2 0 00.79.27 7.28 7.28 0 001.12.1l1.29.07a10.82 10.82 0 011.29.16 3.78 3.78 0 011.12.37 2.13 2.13 0 01.79.7 2.07 2.07 0 01.3 1.17 2.75 2.75 0 01-.33 1.29 3.56 3.56 0 01-1 1.11 4.77 4.77 0 01-1.53.77 6.44 6.44 0 01-2 .3 7.8 7.8 0 01-2-.23 4.6 4.6 0 01-1.41-.6 2.59 2.59 0 01-.84-.88 2 2 0 01-.29-1 1.81 1.81 0 01.49-1.29 3.28 3.28 0 011.31-.85A2 2 0 0189 39a1.47 1.47 0 01-.27-.93 1.54 1.54 0 01.08-.46 2.21 2.21 0 01.25-.48 3 3 0 01.42-.46 2.33 2.33 0 01.57-.37 3.29 3.29 0 01-1.2-1.14 3.23 3.23 0 01-.42-1.66 3.09 3.09 0 01.29-1.37 3 3 0 01.81-1 3.61 3.61 0 011.24-.67 5 5 0 011.58-.24 5.06 5.06 0 011.26.15 4 4 0 011.06.43zm-1.85 10.52a.9.9 0 00-.21-.62 1.42 1.42 0 00-.58-.37 3.72 3.72 0 00-.84-.19L93 40h-1.07c-.37 0-.72-.06-1.06-.11a2.9 2.9 0 00-.94.67 1.39 1.39 0 00-.36.95 1.25 1.25 0 00.18.65 1.54 1.54 0 00.55.52 3.16 3.16 0 00.92.35 6.27 6.27 0 001.32.13 5.72 5.72 0 001.31-.16 3.2 3.2 0 001-.38 1.74 1.74 0 00.62-.58 1.36 1.36 0 00.2-.75zm-3.28-5.63a2.86 2.86 0 001-.15 2 2 0 00.71-.43 1.93 1.93 0 00.43-.66 2.55 2.55 0 00.14-.84 2 2 0 00-.58-1.52 2.31 2.31 0 00-1.67-.56 2.35 2.35 0 00-1.68.56 2 2 0 00-.58 1.52 2.32 2.32 0 00.15.84 1.82 1.82 0 00.44.66 2 2 0 00.7.43 2.86 2.86 0 00.94.15zM101.25 31.75a5.26 5.26 0 011.47-1.13 4 4 0 011.86-.42 3.72 3.72 0 011.5.28 3 3 0 011.08.8 3.51 3.51 0 01.66 1.24 5.44 5.44 0 01.23 1.61v6.59h-1.83v-6.59a2.79 2.79 0 00-.54-1.83 2 2 0 00-1.63-.65 3.06 3.06 0 00-1.51.39 4.88 4.88 0 00-1.29 1.05v7.63h-1.83V25.66h1.83zM113.86 40.89a2.48 2.48 0 01-1.86-.69 2.73 2.73 0 01-.66-2v-6.31h-1.25a.36.36 0 01-.27-.1.35.35 0 01-.12-.3v-.73l1.7-.21.42-3.2a.44.44 0 01.14-.25.37.37 0 01.28-.1h.92v3.57h3v1.32h-3v6.22a1.29 1.29 0 00.32 1 1.09 1.09 0 00.81.31 1.51 1.51 0 00.5-.07 2 2 0 00.36-.17 2.36 2.36 0 00.26-.17.41.41 0 01.19-.08c.1 0 .18.06.26.18l.53.87a3.46 3.46 0 01-1.13.69 4.06 4.06 0 01-1.4.22zM123 31.83a5.63 5.63 0 011.85-1.24 5.73 5.73 0 012.19-.41 4 4 0 011.55.29 3.07 3.07 0 011.13.79 3.51 3.51 0 01.7 1.24 5.12 5.12 0 01.23 1.6v6.62h-.8a.87.87 0 01-.41-.08.63.63 0 01-.23-.35l-.2-1a9.17 9.17 0 01-.8.67 4 4 0 01-.82.49 3.91 3.91 0 01-.91.31 5.2 5.2 0 01-1.08.11 3.88 3.88 0 01-1.14-.17 2.49 2.49 0 01-1.55-1.36 3.05 3.05 0 01-.23-1.22 2.36 2.36 0 01.34-1.19 3 3 0 011.1-1 6.68 6.68 0 012-.72 15 15 0 013-.33v-.8a2.76 2.76 0 00-.52-1.83 1.87 1.87 0 00-1.52-.62 3.32 3.32 0 00-1.13.17 4.15 4.15 0 00-.79.38l-.57.38a.85.85 0 01-.48.17.55.55 0 01-.31-.1.76.76 0 01-.23-.24zm5.87 4.23a15 15 0 00-2.14.2 6.3 6.3 0 00-1.44.41 2 2 0 00-.81.61 1.33 1.33 0 00-.25.77 1.7 1.7 0 00.14.71 1.28 1.28 0 00.36.49 1.52 1.52 0 00.54.27 2.41 2.41 0 00.67.09 3.49 3.49 0 00.88-.1 3.06 3.06 0 00.75-.28 4.15 4.15 0 00.68-.44 5.55 5.55 0 00.62-.58zM135.3 25.66v15.06h-1.82V25.66zM144.27 32.07a.39.39 0 01-.37.23.67.67 0 01-.35-.12l-.48-.25a5 5 0 00-.67-.25 3.11 3.11 0 00-.92-.12 2.73 2.73 0 00-.83.12 1.91 1.91 0 00-.65.32 1.39 1.39 0 00-.4.48 1.16 1.16 0 00-.14.58 1 1 0 00.23.67 1.85 1.85 0 00.61.46 5.31 5.31 0 00.86.34l1 .32c.34.11.67.24 1 .37a3.83 3.83 0 01.86.51 2.61 2.61 0 01.61.75 2.38 2.38 0 01.23 1.07 3.43 3.43 0 01-.26 1.33 2.89 2.89 0 01-.76 1 3.55 3.55 0 01-1.22.7 5.53 5.53 0 01-3.64-.1 4.83 4.83 0 01-1.5-.9l.43-.7a.64.64 0 01.2-.2.49.49 0 01.28-.07.69.69 0 01.39.14c.14.1.3.2.5.32a3.67 3.67 0 00.71.31 3.13 3.13 0 001 .15 2.84 2.84 0 00.93-.14 2 2 0 00.67-.37 1.5 1.5 0 00.39-.55 1.57 1.57 0 00.13-.65 1.1 1.1 0 00-.23-.71 1.86 1.86 0 00-.61-.48 5.3 5.3 0 00-.86-.35l-1-.31c-.33-.11-.66-.23-1-.37a3.55 3.55 0 01-.86-.53 2.35 2.35 0 01-.61-.78 2.59 2.59 0 01-.23-1.13 2.63 2.63 0 01.25-1.14 2.67 2.67 0 01.71-1 3.45 3.45 0 011.16-.66 4.4 4.4 0 011.56-.25 5.11 5.11 0 011.84.32 4.3 4.3 0 011.4.89zM151.46 30.2a5.35 5.35 0 012 .38 4.44 4.44 0 011.55 1.07 4.81 4.81 0 011 1.69 7.32 7.32 0 010 4.41 4.72 4.72 0 01-1 1.67 4.31 4.31 0 01-1.55 1.07 5.75 5.75 0 01-4.11 0 4.26 4.26 0 01-1.56-1.07 4.56 4.56 0 01-1-1.67 7.12 7.12 0 010-4.41 4.64 4.64 0 011-1.69 4.39 4.39 0 011.56-1.07 5.4 5.4 0 012.11-.38zm0 9.24a2.66 2.66 0 002.29-1 4.73 4.73 0 00.76-2.87 4.72 4.72 0 00-.76-2.88 2.65 2.65 0 00-2.29-1 3.13 3.13 0 00-1.35.27 2.42 2.42 0 00-1 .77 3.34 3.34 0 00-.58 1.23 6.86 6.86 0 00-.19 1.65 4.73 4.73 0 00.77 2.87 2.69 2.69 0 002.35.96zM165.81 25.66v15.06H164V25.66zM171.06 27.11a1.18 1.18 0 01-.1.5 1.69 1.69 0 01-.29.41 1.34 1.34 0 01-.42.28 1.25 1.25 0 01-.51.1 1.16 1.16 0 01-.49-.1 1.3 1.3 0 01-.41-.28 1.62 1.62 0 01-.27-.41 1.18 1.18 0 01-.1-.5 1.24 1.24 0 01.1-.5 1.51 1.51 0 01.27-.42 1.15 1.15 0 01.41-.28 1.17 1.17 0 01.49-.11 1.26 1.26 0 01.51.11 1.19 1.19 0 01.42.28 1.57 1.57 0 01.29.42 1.24 1.24 0 01.1.5zm-.39 3.25v10.36h-1.82V30.36zM175.49 25.66v8.87h.51a.83.83 0 00.34-.06.81.81 0 00.29-.23l3.28-3.51a1.27 1.27 0 01.3-.27.84.84 0 01.42-.1h1.65l-3.82 4.06a2.16 2.16 0 01-.59.55 1.48 1.48 0 01.33.28 2.17 2.17 0 01.29.36l4 5.11h-1.62a1 1 0 01-.41-.07.8.8 0 01-.29-.29l-3.4-4.24a.77.77 0 00-.3-.28 1.26 1.26 0 00-.46-.07h-.52v4.95h-1.83V25.66zM191.87 39.27a3.28 3.28 0 01-.81.71 5.19 5.19 0 01-1 .5 7 7 0 01-1.11.29 7.42 7.42 0 01-1.14.1 5.36 5.36 0 01-2-.37 4.28 4.28 0 01-1.56-1.06 5 5 0 01-1-1.73 7.21 7.21 0 01-.37-2.38 5.83 5.83 0 01.34-2 4.8 4.8 0 01.95-1.63 4.55 4.55 0 011.52-1.09 5.07 5.07 0 012-.39 4.82 4.82 0 011.72.31 3.89 3.89 0 011.37.9 4.12 4.12 0 01.91 1.45 5.54 5.54 0 01.32 2 1.25 1.25 0 01-.09.58.38.38 0 01-.34.14h-6.93a6.13 6.13 0 00.27 1.71 3.62 3.62 0 00.67 1.21 2.75 2.75 0 001 .72 3.47 3.47 0 001.33.24 4.13 4.13 0 001.18-.15 5.33 5.33 0 00.85-.35 5.13 5.13 0 00.6-.34.77.77 0 01.41-.16.4.4 0 01.35.18zm-1.47-4.86a3.57 3.57 0 00-.18-1.16 2.64 2.64 0 00-.52-.91 2.46 2.46 0 00-.83-.59 2.83 2.83 0 00-1.12-.21 2.79 2.79 0 00-2.07.76 3.6 3.6 0 00-1 2.11zM194 39.6a1.35 1.35 0 01.09-.5 1.33 1.33 0 01.27-.41 1.22 1.22 0 01.91-.38 1.24 1.24 0 01.5.1 1.42 1.42 0 01.41.28 1.33 1.33 0 01.27.41 1.3 1.3 0 010 1 1.46 1.46 0 01-.27.41 1.62 1.62 0 01-.41.27 1.33 1.33 0 01-1 0 1.41 1.41 0 01-.4-.27 1.46 1.46 0 01-.27-.41 1.35 1.35 0 01-.1-.5zm5.25 0a1.35 1.35 0 01.1-.5 1 1 0 01.27-.41 1.15 1.15 0 01.4-.28 1.21 1.21 0 01.5-.1 1.18 1.18 0 01.5.1 1.3 1.3 0 01.41.28 1.2 1.2 0 01.28.41 1.3 1.3 0 010 1 1.3 1.3 0 01-.28.41 1.46 1.46 0 01-.41.27 1.35 1.35 0 01-.5.1 1.39 1.39 0 01-.5-.1 1.28 1.28 0 01-.4-.27 1.13 1.13 0 01-.27-.41 1.35 1.35 0 01-.14-.5zm5.27 0a1.18 1.18 0 01.1-.5 1.15 1.15 0 01.26-.41 1.2 1.2 0 01.41-.28 1.18 1.18 0 01.5-.1 1.24 1.24 0 01.5.1 1.42 1.42 0 01.41.28 1.33 1.33 0 01.27.41 1.19 1.19 0 010 1 1.46 1.46 0 01-.27.41 1.62 1.62 0 01-.41.27 1.44 1.44 0 01-.5.1 1.35 1.35 0 01-.5-.1 1.33 1.33 0 01-.41-.27 1.25 1.25 0 01-.26-.41 1.18 1.18 0 01-.14-.5zM630.51 153.63h-91.69a.25.25 0 01-.25-.25V61.69a.25.25 0 01.25-.25h91.69a.26.26 0 01.25.25v91.69a.25.25 0 01-.25.25zm-91.44-.5h91.19V61.94h-91.19zM538.82 162.79h91.69v7.67h-91.69z"/>
  <path d="M583.86 96h14.38L589 85.81h-17.92V96h10.23v9.51h-2.88v23.72h8.31v-23.68h-2.88zm-10.22-7.67h14.24l4.61 5.11h-18.85zm10.54 38.34H581v-18.6h3.19zM425.72 153.63H334a.25.25 0 01-.25-.25V61.69a.25.25 0 01.25-.25h91.69a.25.25 0 01.25.25v91.69a.25.25 0 01-.22.25zm-91.44-.5h91.19V61.94h-91.19zM334.03 162.79h91.69v7.67h-91.69z"/>
  <path d="M398.93 90.08l-16.61 24.28-2.11-1.44 16.61-24.28zm-17.67 31.21a5.11 5.11 0 01-5.11 5.11H360.82l11.64-8.77a8 8 0 013.69-1.49 5.11 5.11 0 015.11 5.15zm-2.56 0a2.56 2.56 0 00-2.55-2.56 5.57 5.57 0 00-2.18 1l-5.51 4.15H376.15a2.56 2.56 0 002.55-2.59zM528.11 153.63h-91.68a.25.25 0 01-.25-.25V61.69a.25.25 0 01.25-.25h91.68a.25.25 0 01.25.25v91.69a.25.25 0 01-.25.25zm-91.43-.5h91.18V61.94h-91.18zM436.43 162.79h91.69v7.67h-91.69z"/>
  <path d="M468.21 87.09v16.61l14 24.29 14.15-24.28V87.09zm14 35.79zm.07-20.45a2.56 2.56 0 112.56-2.56 2.56 2.56 0 01-2.57 2.56zm11.5.59l-10.22 17.55V104.8a5.11 5.11 0 10-2.56 0v16L470.77 103V89.65h23zM220.94 153.63h-91.69a.25.25 0 01-.25-.25V61.69a.25.25 0 01.25-.25h91.69a.25.25 0 01.25.25v91.69a.25.25 0 01-.25.25zm-91.44-.5h91.19V61.94H129.5zM129.25 162.79h91.69v7.67h-91.69zM118.55 153.63H26.86a.25.25 0 01-.25-.25V61.69a.25.25 0 01.25-.25h91.69a.26.26 0 01.25.25v91.69a.25.25 0 01-.25.25zm-91.44-.5h91.19V61.94H27.11zM26.86 162.79h91.69v7.67H26.86z"/>
  <path d="M87.38 102.32a6.36 6.36 0 001.86-4.5 6.41 6.41 0 00-11.65-3.72 16.31 16.31 0 00-3.71-.68V91h2.37v-2.36h-7.09V91h2.36v2.42a16.13 16.13 0 00-3.7.68 6.42 6.42 0 10-9.8 8.22 16.42 16.42 0 002 18.18l-3 4 1.86 1.5 2.82-3.76a16.43 16.43 0 0022 0l2.82 3.76 1.89-1.42-3-4a16.44 16.44 0 002-18.18zm-4.58-8.57a4.08 4.08 0 014.08 4.07 4.14 4.14 0 01-.79 2.41A16.62 16.62 0 0079.87 95a4 4 0 012.93-1.25zm-24.28 4.07a4.08 4.08 0 014.08-4.07A4 4 0 0165.53 95a16.58 16.58 0 00-6.21 5.2 4 4 0 01-.8-2.38zm14.18 26.26a14.18 14.18 0 1114.18-14.18 14.19 14.19 0 01-14.18 14.18zm1.18-14.18h9.45v2.36H71.52v-9.45h2.36zM84.11 61.44h34.69v15H84.11z"/>
  <path fill="white" d="M97.8 66.11a2 2 0 00-.7-.46 2.54 2.54 0 00-.94-.16 2.33 2.33 0 00-.93.17 2 2 0 00-.73.47 2.13 2.13 0 00-.48.7 2.19 2.19 0 00-.17.85 2 2 0 00.17.85 1.63 1.63 0 00.42.6 1.55 1.55 0 00.6.37 2 2 0 00.68.12 2 2 0 001.11-.3l-.14.19-.15.19-2.1 2.62h1.06a.8.8 0 00.36-.08.52.52 0 00.24-.19l1.55-2.2a5.6 5.6 0 00.31-.49 2.93 2.93 0 00.24-.51 2.39 2.39 0 00.15-.54 2.88 2.88 0 00.06-.59 2.67 2.67 0 00-.16-.91 1.84 1.84 0 00-.45-.7zm-.57 1.94a1.1 1.1 0 01-.23.37 1.08 1.08 0 01-.37.24 1.31 1.31 0 01-.5.09 1.11 1.11 0 01-.83-.3 1.19 1.19 0 01-.29-.86 1.45 1.45 0 01.08-.47 1 1 0 01.23-.36.88.88 0 01.36-.24 1.19 1.19 0 01.47-.09 1.45 1.45 0 01.47.08 1 1 0 01.36.23 1.08 1.08 0 01.24.37 1.23 1.23 0 01.08.49 1.33 1.33 0 01-.07.45zM103.83 66.33a2.09 2.09 0 00-.79-.64 2.45 2.45 0 00-1-.2 2.42 2.42 0 00-1 .2 2.07 2.07 0 00-.78.64 2.89 2.89 0 00-.52 1.07 5.45 5.45 0 00-.19 1.54 5.33 5.33 0 00.19 1.53 2.86 2.86 0 00.52 1.08 2.07 2.07 0 00.78.64 2.42 2.42 0 001 .2 2.45 2.45 0 001-.2 2.09 2.09 0 00.79-.64 3 3 0 00.52-1.08 5.33 5.33 0 00.19-1.53 5.45 5.45 0 00-.19-1.54 3.05 3.05 0 00-.52-1.07zm-.59 3.83a2.38 2.38 0 01-.28.76 1.06 1.06 0 01-.42.4 1 1 0 01-1 0 1 1 0 01-.41-.4 2.38 2.38 0 01-.28-.76 5.29 5.29 0 01-.11-1.22 5.14 5.14 0 01.11-1.21 2.35 2.35 0 01.28-.77 1 1 0 01.41-.4A1 1 0 01103 67a2.35 2.35 0 01.28.77 5.14 5.14 0 01.11 1.21 5.29 5.29 0 01-.15 1.18zM106.54 68.75a1.59 1.59 0 00.62.11 1.47 1.47 0 00.59-.11 1.43 1.43 0 00.5-.34 1.59 1.59 0 00.35-.52 1.93 1.93 0 00.13-.69 2 2 0 00-.12-.71 1.54 1.54 0 00-.33-.54 1.39 1.39 0 00-.49-.34 1.68 1.68 0 00-.63-.12 1.59 1.59 0 00-.62.12 1.39 1.39 0 00-.49.34 1.54 1.54 0 00-.33.54 2 2 0 00-.12.71 1.92 1.92 0 00.12.69 1.54 1.54 0 00.33.52 1.39 1.39 0 00.49.34zm0-2a.87.87 0 01.14-.29.46.46 0 01.21-.16.7.7 0 01.52 0 .44.44 0 01.22.16.87.87 0 01.15.29 2 2 0 010 .46 1.69 1.69 0 010 .43 1 1 0 01-.15.29.48.48 0 01-.22.15.7.7 0 01-.52 0 .51.51 0 01-.21-.15 1 1 0 01-.14-.29 1.69 1.69 0 010-.43 2 2 0 01.01-.47zM111.35 65.56a.37.37 0 00-.23.06.61.61 0 00-.15.12l-5 6.58h.86a.39.39 0 00.2 0 .44.44 0 00.15-.12l5-6.59zM112.43 70a1.63 1.63 0 00-.33-.54 1.58 1.58 0 00-2.24 0 1.8 1.8 0 00-.32.54 2 2 0 00-.12.71 1.88 1.88 0 00.12.69 1.74 1.74 0 00.32.53 1.56 1.56 0 00.5.33 1.59 1.59 0 00.62.12 1.52 1.52 0 00.59-.12 1.56 1.56 0 00.5-.33 1.63 1.63 0 00.35-.53 1.88 1.88 0 00.13-.69 2.25 2.25 0 00-.12-.71zm-.83 1.15a.67.67 0 01-.14.28.44.44 0 01-.22.16.86.86 0 01-.52 0 .46.46 0 01-.21-.16.67.67 0 01-.14-.28 1.84 1.84 0 01-.05-.44 1.87 1.87 0 01.05-.45.83.83 0 01.14-.3.54.54 0 01.21-.16.7.7 0 01.52 0 .5.5 0 01.22.16.83.83 0 01.14.3 1.87 1.87 0 01.05.45 1.84 1.84 0 01-.05.46zM90.36 68.51h2.21v.88h-2.21z"/>
  <path d="M191.54 119.1l-3.8-7.56-7.57 3.79 1.09 2.17 4.52-2.28a10.86 10.86 0 01-9.46 8.68v-18.33h3.62v-2.42h-3.62v-2.54a6.05 6.05 0 10-2.42 0v2.54h-3.63v2.42h3.63v18.33a10.88 10.88 0 01-9.47-8.66l4.5 2.26 1.09-2.17-7.57-3.79-3.8 7.56 2.16 1.09 1.58-3.14a13.31 13.31 0 0025.42 0l1.56 3.1zm-20.06-24.41a3.63 3.63 0 113.63 3.62 3.62 3.62 0 01-3.63-3.62zM186.5 61.44h34.69v15H186.5z"/>
  <path fill="white" d="M200 68.8a1.61 1.61 0 00.73-.59 1.59 1.59 0 00.25-.91 1.61 1.61 0 00-.16-.72 1.72 1.72 0 00-.43-.57 2.11 2.11 0 00-.67-.39 2.67 2.67 0 00-.86-.13 2.63 2.63 0 00-.86.13 2.11 2.11 0 00-.67.39 1.62 1.62 0 00-.59 1.29 1.67 1.67 0 00.24.91 1.59 1.59 0 00.74.59 1.66 1.66 0 00-.91.61 1.68 1.68 0 00-.3 1 1.92 1.92 0 00.17.81 2 2 0 00.48.63 2.18 2.18 0 00.74.39 2.93 2.93 0 001 .14 2.83 2.83 0 001-.14 2.09 2.09 0 00.74-.39 1.74 1.74 0 00.48-.63 1.78 1.78 0 00.17-.81 1.67 1.67 0 00-.29-1 1.7 1.7 0 00-1-.61zm-2.12-1.8a.92.92 0 01.18-.3 1.16 1.16 0 01.31-.22 1.25 1.25 0 01.45-.07 1.16 1.16 0 01.44.07.91.91 0 01.31.22.92.92 0 01.18.3 1.15 1.15 0 01.06.37 1.31 1.31 0 01-.05.39.78.78 0 01-.16.33.83.83 0 01-.31.24 1.13 1.13 0 01-.47.09 1.06 1.06 0 01-.47-.09.83.83 0 01-.35-.33.8.8 0 01-.17-.33 1.74 1.74 0 01-.05-.39 1.15 1.15 0 01.1-.28zm2 3.89a.87.87 0 01-.22.34 1 1 0 01-.36.23 1.54 1.54 0 01-.5.08 1.5 1.5 0 01-.5-.08.83.83 0 01-.36-.23.89.89 0 01-.23-.34 1.27 1.27 0 01-.07-.44 1.07 1.07 0 01.31-.84 1.19 1.19 0 01.85-.28 1.21 1.21 0 01.85.28 1.11 1.11 0 01.31.84 1.27 1.27 0 01-.06.39zM206.47 66.33a2.09 2.09 0 00-.79-.64 2.45 2.45 0 00-1-.2 2.42 2.42 0 00-1 .2 2.17 2.17 0 00-.79.64 3 3 0 00-.51 1.07 5.45 5.45 0 00-.19 1.54 5.33 5.33 0 00.19 1.53 3 3 0 00.51 1.08 2.17 2.17 0 00.79.64 2.42 2.42 0 001 .2 2.45 2.45 0 001-.2 2.09 2.09 0 00.79-.64 3 3 0 00.52-1.08 5.33 5.33 0 00.19-1.53 5.45 5.45 0 00-.18-1.54 3.05 3.05 0 00-.53-1.07zm-.59 3.83a2.38 2.38 0 01-.28.76 1.06 1.06 0 01-.42.4 1 1 0 01-1 0 1 1 0 01-.41-.4 2.16 2.16 0 01-.28-.76 6.82 6.82 0 010-2.44 2.16 2.16 0 01.28-.76 1 1 0 01.41-.4 1 1 0 011.38.4 2.38 2.38 0 01.28.76 6.82 6.82 0 010 2.44zM214 65.56a.37.37 0 00-.23.06.61.61 0 00-.15.12l-5 6.58h.86a.39.39 0 00.2 0 .44.44 0 00.15-.12l5-6.59zM215.07 70a1.63 1.63 0 00-.33-.54 1.53 1.53 0 00-1.12-.46 1.56 1.56 0 00-.62.12 1.58 1.58 0 00-.5.34 1.8 1.8 0 00-.32.54 2 2 0 00-.12.71 1.88 1.88 0 00.12.69 1.74 1.74 0 00.32.53 1.58 1.58 0 001.12.45 1.52 1.52 0 00.59-.12 1.56 1.56 0 00.5-.33 1.63 1.63 0 00.35-.53 1.88 1.88 0 00.12-.69 2.25 2.25 0 00-.11-.71zm-.83 1.15a.81.81 0 01-.14.28.48.48 0 01-.22.16.87.87 0 01-.52 0 .46.46 0 01-.21-.16.67.67 0 01-.14-.28 1.84 1.84 0 010-.44 1.87 1.87 0 010-.45.83.83 0 01.14-.3.54.54 0 01.21-.16.7.7 0 01.52 0 .57.57 0 01.22.16 1 1 0 01.14.3 1.87 1.87 0 010 .45 1.84 1.84 0 010 .46zM209.18 68.75a1.59 1.59 0 00.62.11 1.47 1.47 0 00.59-.11 1.43 1.43 0 00.5-.34 1.59 1.59 0 00.35-.52 1.93 1.93 0 00.13-.69 2 2 0 00-.12-.71 1.54 1.54 0 00-.33-.54 1.43 1.43 0 00-.5-.34 1.66 1.66 0 00-1.24 0 1.39 1.39 0 00-.49.34 1.54 1.54 0 00-.33.54 2 2 0 00-.12.71 1.92 1.92 0 00.12.69 1.54 1.54 0 00.33.52 1.39 1.39 0 00.49.34zm0-2a.87.87 0 01.14-.29.46.46 0 01.21-.16.7.7 0 01.52 0 .44.44 0 01.22.16.71.71 0 01.14.29 1.51 1.51 0 01.06.46 1.31 1.31 0 01-.06.43.78.78 0 01-.14.29.48.48 0 01-.22.15.7.7 0 01-.52 0 .51.51 0 01-.21-.15 1 1 0 01-.14-.29 1.69 1.69 0 01-.05-.43 2 2 0 01.06-.47zM192.5 68.51h2.21v.88h-2.21z"/>
  <path d="M323.33 153.63h-91.69a.25.25 0 01-.25-.25V61.69a.25.25 0 01.25-.25h91.69a.25.25 0 01.25.25v91.69a.25.25 0 01-.25.25zm-91.44-.5h91.19V61.94h-91.19zM231.64 162.79h91.69v7.67h-91.69z"/>
  <path d="M289.07 96v-6.2a4.19 4.19 0 00-4.23-4.13h-14.67A4.18 4.18 0 00266 89.8V96h-7.76v33.45h38.6V96zm-20.55-6.2a1.61 1.61 0 011.65-1.56h14.67a1.61 1.61 0 011.65 1.56V96h-18zm25.69 37h-33.45v-20.55h33.45zm0-23.16h-33.45v-5.11H266v1.66h2.57v-1.66h18v1.66h2.58v-1.66h5.14zM288.89 61.44h34.69v15h-34.69z"/>
  <path fill="white" d="M298.92 66.34a.27.27 0 00.26.27h3.23a2.35 2.35 0 00-.19.25c-.06.09-.11.19-.17.29l-2.62 5.17h.84a.61.61 0 00.39-.12.82.82 0 00.22-.27l2.56-5.28a1.3 1.3 0 00.1-.23 1.19 1.19 0 000-.36v-.5h-4.66zM308.84 66.33a2 2 0 00-.79-.64 2.5 2.5 0 00-2 0 2.07 2.07 0 00-.78.64 3.05 3.05 0 00-.52 1.07 5.84 5.84 0 00-.19 1.54 5.71 5.71 0 00.19 1.53 3 3 0 00.52 1.08 2.07 2.07 0 00.78.64 2.5 2.5 0 002 0 2 2 0 00.79-.64 3 3 0 00.53-1.08 5.71 5.71 0 00.19-1.53 5.84 5.84 0 00-.19-1.54 3.06 3.06 0 00-.53-1.07zm-.58 3.83a2.37 2.37 0 01-.29.76 1.11 1.11 0 01-.41.4 1.07 1.07 0 01-.49.12 1 1 0 01-.48-.12 1.11 1.11 0 01-.41-.4 2.38 2.38 0 01-.28-.76 5.91 5.91 0 01-.11-1.22 5.74 5.74 0 01.11-1.21 2.35 2.35 0 01.28-.77 1 1 0 01.41-.4 1 1 0 01.48-.12 1.07 1.07 0 01.49.12 1 1 0 01.41.4 2.34 2.34 0 01.29.77 5.82 5.82 0 01.1 1.21 6 6 0 01-.1 1.22zM317.44 70a1.63 1.63 0 00-.33-.54 1.54 1.54 0 00-.49-.34A1.64 1.64 0 00316 69a1.59 1.59 0 00-.62.12 1.54 1.54 0 00-.49.34 1.63 1.63 0 00-.33.54 2 2 0 00-.11.71 1.89 1.89 0 00.11.69 1.59 1.59 0 00.33.53 1.51 1.51 0 00.49.33 1.59 1.59 0 00.62.12 1.53 1.53 0 00.6-.12 1.67 1.67 0 00.5-.33 1.79 1.79 0 00.34-.53 1.88 1.88 0 00.13-.69 2 2 0 00-.13-.71zm-.83 1.15a.67.67 0 01-.14.28.46.46 0 01-.21.16.8.8 0 01-.27 0 .75.75 0 01-.26 0 .46.46 0 01-.21-.16.81.81 0 01-.14-.28 1.84 1.84 0 01-.05-.44 1.87 1.87 0 01.05-.45 1 1 0 01.14-.3.54.54 0 01.21-.16.75.75 0 01.26 0 .81.81 0 01.27 0 .54.54 0 01.21.16.83.83 0 01.14.3 1.44 1.44 0 01.06.45 1.42 1.42 0 01-.06.46zM311.55 68.75a1.59 1.59 0 00.62.11 1.47 1.47 0 001.1-.45 1.56 1.56 0 00.34-.52 1.73 1.73 0 00.13-.69 2 2 0 00-.12-.71 1.4 1.4 0 00-.33-.54 1.31 1.31 0 00-.49-.34 1.69 1.69 0 00-1.25 0 1.39 1.39 0 00-.49.34 1.54 1.54 0 00-.33.54 2.2 2.2 0 00-.11.71 2.17 2.17 0 00.11.69 1.54 1.54 0 00.33.52 1.39 1.39 0 00.49.34zm0-2a.71.71 0 01.14-.29.39.39 0 01.2-.16.58.58 0 01.26-.05.59.59 0 01.27.05.46.46 0 01.21.16.87.87 0 01.15.29 2 2 0 01.05.46 1.69 1.69 0 01-.05.43 1 1 0 01-.15.29.51.51 0 01-.21.15.76.76 0 01-.27.05.75.75 0 01-.26-.05.43.43 0 01-.2-.15.78.78 0 01-.14-.29 1.31 1.31 0 01-.06-.43 1.51 1.51 0 01.08-.47zM316.36 65.56a.37.37 0 00-.23.06.81.81 0 00-.14.12l-5 6.58h.86a.46.46 0 00.21 0 .53.53 0 00.14-.12l5-6.59zM294.91 68.51h2.21v.88h-2.21z"/>
</svg>
