<?xml version="1.0" encoding="UTF-8"?>
<svg width="383.03" height="83.482" data-name="Layer 1" version="1.1" viewBox="0 0 383.03 83.482" xmlns="http://www.w3.org/2000/svg" xmlns:cc="http://creativecommons.org/ns#" xmlns:dc="http://purl.org/dc/elements/1.1/" xmlns:rdf="http://www.w3.org/1999/02/22-rdf-syntax-ns#">
 <metadata>
  <rdf:RDF>
   <cc:Work rdf:about="">
    <dc:format>image/svg+xml</dc:format>
    <dc:type rdf:resource="http://purl.org/dc/dcmitype/StillImage"/>
    <dc:title>preview</dc:title>
   </cc:Work>
  </rdf:RDF>
 </metadata>
 <defs>
  <style>.cls-1,.cls-4{fill:#fff;}.cls-1{stroke:#b5b8bc;stroke-miterlimit:10;stroke-width:0.5px;}.cls-2{fill:#95bf47;}.cls-3{fill:#5e8e3e;}.cls-5{fill:#fdb809;}.cls-6{fill:#53555f;}.cls-7{fill:#212b36;}.cls-8{fill:none;stroke:#d0d4d8;stroke-linecap:round;stroke-linejoin:round;}.cls-9{fill:#d0d4d8;}</style>
  <clipPath id="clipPath125">
   <rect x="35.603" y="51.058" width="383.03" height="83.482"/>
  </clipPath>
 </defs>
 <title>preview</title>
 <rect class="cls-1" transform="translate(-35.603 -51.058)" x=".25" y=".25" width="460" height="150" clip-path="url(#clipPath125)" fill="#fff" stroke="#b5b8bc" stroke-miterlimit="10" stroke-width=".5px"/>
 <path class="cls-2" d="m53.727 17.032a0.44 0.44 0 0 0-0.44-0.38c-0.17 0-4-0.29-4-0.29s-2.66-2.67-3-2.93a1.23 1.23 0 0 0-1.08-0.15l-1.49 0.47c-0.91-2.61-2.46-5-5.25-5h-0.26a3.42 3.42 0 0 0-2.56-1.44c-6.44 0-9.55 8.05-10.51 12.15-2.52 0.79-4.31 1.32-4.51 1.41-1.41 0.44-1.44 0.47-1.62 1.79-0.14 1-3.8 29.32-3.8 29.32l28.44 5.33 15.46-3.34c0.07-0.06-5.35-36.67-5.38-36.94zm-11.6-2.84c-0.7 0.21-1.55 0.47-2.4 0.76v-0.52a11.26 11.26 0 0 0-0.58-3.9c1.46 0.18 2.37 1.79 3 3.66zm-4.77-3.34a12.32 12.32 0 0 1 0.64 4.34v0.29c-1.58 0.5-3.25 1-5 1.55 1-3.69 2.82-5.5 4.34-6.18zm-1.87-1.81a1.39 1.39 0 0 1 0.82 0.29c-2.08 1-4.28 3.4-5.19 8.32-1.38 0.44-2.69 0.82-3.95 1.23 1.05-3.78 3.69-9.87 8.32-9.87z" fill="#95bf47"/>
 <path class="cls-3" d="m53.287 16.592c-0.17 0-4-0.29-4-0.29s-2.66-2.67-3-2.93a0.54 0.54 0 0 0-0.38-0.18l-2.14 44.12 15.47-3.34s-5.42-36.67-5.45-36.94a0.78 0.78 0 0 0-0.5-0.44z" fill="#5e8e3e"/>
 <path class="cls-4" d="m38.467 25.192-1.82 5.61a8.8 8.8 0 0 0-3.72-0.91c-3 0-3.17 1.9-3.17 2.37 0 2.58 6.74 3.58 6.74 9.64 0 4.77-3 7.85-7.09 7.85a9.75 9.75 0 0 1-7.38-3l1.32-4.33s2.58 2.22 4.75 2.22a1.92 1.92 0 0 0 2-1.93c0-3.37-5.51-3.51-5.51-9.08 0-4.66 3.34-9.17 10.11-9.17a7.74 7.74 0 0 1 3.77 0.73z" fill="#fff"/>
 <rect class="cls-5" x="324.11" y="7.3117" width="50" height="50" rx="1.74" fill="#fdb809"/>
 <path class="cls-6" d="m346.73 18.242a1.23 1.23 0 0 0-1.25 1.21v10.74a6.57 6.57 0 0 0-5.27-2.52c-5 0-7.81 3-7.81 9.31s2.95 9.36 8 9.36c4.43 0 7.61-2.53 7.61-7.65v-19.21a1.22 1.22 0 0 0-1.21-1.24zm-1.25 20.49c0 3.69-2.13 5.4-5.12 5.4-3.57 0-5.47-2.26-5.47-7.11s1.94-7.06 5.47-7.06a5.87 5.87 0 0 1 5.12 3.41z" fill="#53555f"/>
 <path class="cls-4" d="m364.65 42.192a1.16 1.16 0 0 0-0.73 0.27 7.06 7.06 0 0 1-4.5 1.67c-3.57 0-5.47-2.26-5.47-7.11s1.9-7.06 5.47-7.06a5 5 0 0 1 4.23 1.82 1.18 1.18 0 0 0 0.93 0.47 1.11 1.11 0 0 0 1.13-1.06 1.21 1.21 0 0 0-0.27-0.74 7.33 7.33 0 0 0-6-2.67c-5 0-8 3-8 9.32s3 9.35 8 9.35a8.84 8.84 0 0 0 5.86-2.1 1.21 1.21 0 0 0 0.51-1 1.13 1.13 0 0 0-1.11-1.16z" fill="#fff"/>
 <g fill="#212b36">
  <path class="cls-7" d="m20.567-22.068 3.34-6.42h1.92l-4.41 8v4.78h-1.69v-4.76l-4.41-8h1.93z"/>
  <path class="cls-7" d="m26.227-20.538a5.67 5.67 0 0 1 0.54-2.51 4.06 4.06 0 0 1 3.77-2.33 4 4 0 0 1 3.11 1.35 5.14 5.14 0 0 1 1.2 3.57v0.12a5.61 5.61 0 0 1-0.5 2.53 4 4 0 0 1-1.52 1.72 4.22 4.22 0 0 1-2.27 0.61 4 4 0 0 1-3.13-1.33 5.17 5.17 0 0 1-1.2-3.56zm1.63 0.2a4.14 4.14 0 0 0 0.73 2.53 2.49 2.49 0 0 0 3.94 0 4.47 4.47 0 0 0 0.73-2.72 4 4 0 0 0-0.75-2.53 2.46 2.46 0 0 0-3.91 0 4.4 4.4 0 0 0-0.74 2.72z"/>
  <path class="cls-7" d="m42.787-16.628a3.45 3.45 0 0 1-2.78 1.11 3 3 0 0 1-2.36-0.88 3.8 3.8 0 0 1-0.8-2.62v-6.18h1.62v6.14c0 1.44 0.59 2.16 1.76 2.16a2.43 2.43 0 0 0 2.48-1.39v-6.91h1.63v9.51h-1.51z"/>
  <path class="cls-7" d="m57.167-15.688a3.59 3.59 0 0 1-0.23-1 3.59 3.59 0 0 1-2.7 1.18 3.36 3.36 0 0 1-2.31-0.79 2.59 2.59 0 0 1-0.9-2 2.68 2.68 0 0 1 1.13-2.31 5.37 5.37 0 0 1 3.18-0.82h1.58v-0.78a1.81 1.81 0 0 0-0.51-1.35 2 2 0 0 0-1.51-0.51 2.36 2.36 0 0 0-1.45 0.44 1.28 1.28 0 0 0-0.59 1.06h-1.64a2.22 2.22 0 0 1 0.51-1.37 3.42 3.42 0 0 1 1.37-1.05 4.58 4.58 0 0 1 1.9-0.39 3.8 3.8 0 0 1 2.58 0.82 3 3 0 0 1 1 2.27v4.37a5.24 5.24 0 0 0 0.3 2.11v0.14zm-2.7-1.24a2.78 2.78 0 0 0 1.45-0.4 2.36 2.36 0 0 0 1-1v-2h-1.27c-2 0-3 0.59-3 1.75a1.49 1.49 0 0 0 0.51 1.2 2 2 0 0 0 1.31 0.45z"/>
  <path class="cls-7" d="m65.647-23.738a5 5 0 0 0-0.8-0.07 2.14 2.14 0 0 0-2.17 1.37v6.75h-1.59v-9.51h1.56v1.1a2.53 2.53 0 0 1 2.27-1.28 1.73 1.73 0 0 1 0.72 0.12z"/>
  <path class="cls-7" d="m70.957-15.518a4.11 4.11 0 0 1-3.14-1.29 4.7 4.7 0 0 1-1.17-3.37v-0.3a5.7 5.7 0 0 1 0.54-2.53 4.28 4.28 0 0 1 1.46-1.74 3.81 3.81 0 0 1 2.11-0.63 3.56 3.56 0 0 1 2.89 1.22 5.28 5.28 0 0 1 1 3.5v0.68h-6.44a3.38 3.38 0 0 0 0.82 2.27 2.57 2.57 0 0 0 2 0.87 2.8 2.8 0 0 0 1.46-0.36 3.4 3.4 0 0 0 1-0.93l1 0.78a4 4 0 0 1-3.53 1.83zm-0.2-8.52a2.17 2.17 0 0 0-1.65 0.71 3.5 3.5 0 0 0-0.83 2h4.76v-0.12a3 3 0 0 0-0.66-1.92 2 2 0 0 0-1.62-0.67z"/>
  <path class="cls-7" d="m86.877-15.688a3.59 3.59 0 0 1-0.23-1 3.62 3.62 0 0 1-2.71 1.18 3.35 3.35 0 0 1-2.3-0.79 2.59 2.59 0 0 1-0.9-2 2.7 2.7 0 0 1 1.12-2.31 5.42 5.42 0 0 1 3.18-0.82h1.61v-0.78a1.81 1.81 0 0 0-0.51-1.35 2 2 0 0 0-1.5-0.51 2.39 2.39 0 0 0-1.46 0.44 1.3 1.3 0 0 0-0.59 1.06h-1.63a2.27 2.27 0 0 1 0.5-1.37 3.52 3.52 0 0 1 1.38-1.05 4.55 4.55 0 0 1 1.9-0.39 3.79 3.79 0 0 1 2.57 0.82 3 3 0 0 1 1 2.27v4.37a5.44 5.44 0 0 0 0.33 2.09v0.14zm-2.7-1.24a2.81 2.81 0 0 0 1.45-0.4 2.28 2.28 0 0 0 1-1v-2h-1.28c-2 0-3 0.59-3 1.75a1.49 1.49 0 0 0 0.51 1.2 2 2 0 0 0 1.32 0.45z"/>
  <path class="cls-7" d="m98.847-20.338a5.64 5.64 0 0 1-1 3.5 3.21 3.21 0 0 1-2.69 1.32 3.32 3.32 0 0 1-2.79-1.29l-0.08 1.1h-1.49v-13.48h1.62v5a3.33 3.33 0 0 1 2.72-1.22 3.24 3.24 0 0 1 2.72 1.31 5.82 5.82 0 0 1 1 3.59zm-1.63-0.19a4.36 4.36 0 0 0-0.64-2.56 2.11 2.11 0 0 0-1.84-0.91 2.39 2.39 0 0 0-2.32 1.5v4.11a2.47 2.47 0 0 0 2.33 1.49 2.11 2.11 0 0 0 1.82-0.9 4.64 4.64 0 0 0 0.65-2.73z"/>
  <path class="cls-7" d="m100.47-20.538a5.54 5.54 0 0 1 0.55-2.51 4 4 0 0 1 1.53-1.76 4.08 4.08 0 0 1 2.23-0.61 4 4 0 0 1 3.14 1.35 5.14 5.14 0 0 1 1.2 3.57v0.12a5.61 5.61 0 0 1-0.53 2.49 4 4 0 0 1-1.52 1.72 4.19 4.19 0 0 1-2.27 0.61 4 4 0 0 1-3.15-1.25 5.17 5.17 0 0 1-1.2-3.56zm1.63 0.2a4.08 4.08 0 0 0 0.74 2.54 2.48 2.48 0 0 0 3.93 0 4.47 4.47 0 0 0 0.73-2.72 4.09 4.09 0 0 0-0.74-2.53 2.37 2.37 0 0 0-2-1 2.33 2.33 0 0 0-1.94 1 4.4 4.4 0 0 0-0.72 2.71z"/>
  <path class="cls-7" d="m117.03-16.628a3.45 3.45 0 0 1-2.78 1.11 3 3 0 0 1-2.32-0.88 3.8 3.8 0 0 1-0.8-2.62v-6.18h1.62v6.14c0 1.44 0.59 2.16 1.76 2.16a2.43 2.43 0 0 0 2.48-1.39v-6.91h1.66v9.51h-1.55z"/>
  <path class="cls-7" d="m123.29-27.508v2.31h1.78v1.25h-1.78v5.91a1.32 1.32 0 0 0 0.24 0.86 1 1 0 0 0 0.81 0.28 3.84 3.84 0 0 0 0.77-0.1v1.31a5 5 0 0 1-1.25 0.17 2 2 0 0 1-1.64-0.66 2.82 2.82 0 0 1-0.55-1.87v-5.9h-1.74v-1.25h1.72v-2.31z"/>
  <path class="cls-7" d="m133.65-27.508v2.31h1.77v1.25h-1.77v5.91a1.32 1.32 0 0 0 0.24 0.86 1 1 0 0 0 0.8 0.28 3.92 3.92 0 0 0 0.78-0.1v1.31a5.07 5.07 0 0 1-1.25 0.17 2 2 0 0 1-1.64-0.66 2.82 2.82 0 0 1-0.56-1.87v-5.9h-1.73v-1.25h1.73v-2.31z"/>
  <path class="cls-7" d="m136.7-20.538a5.67 5.67 0 0 1 0.54-2.51 4.06 4.06 0 0 1 3.77-2.33 4 4 0 0 1 3.14 1.35 5.14 5.14 0 0 1 1.2 3.57v0.12a5.61 5.61 0 0 1-0.53 2.49 4 4 0 0 1-1.52 1.72 4.22 4.22 0 0 1-2.27 0.61 4 4 0 0 1-3.13-1.29 5.17 5.17 0 0 1-1.2-3.56zm1.63 0.2a4.07 4.07 0 0 0 0.73 2.54 2.49 2.49 0 0 0 3.94 0 4.47 4.47 0 0 0 0.73-2.72 4 4 0 0 0-0.75-2.53 2.46 2.46 0 0 0-3.91 0 4.4 4.4 0 0 0-0.74 2.71z"/>
  <path class="cls-7" d="m151.86-27.728a1 1 0 0 1 0.24-0.66 0.91 0.91 0 0 1 0.71-0.28 0.89 0.89 0 0 1 1 0.94 0.92 0.92 0 0 1-0.24 0.66 1 1 0 0 1-0.73 0.27 0.91 0.91 0 0 1-0.71-0.27 0.92 0.92 0 0 1-0.27-0.66zm1.75 12h-1.62v-9.47h1.66z"/>
  <path class="cls-7" d="m157.75-25.198 0.06 1.19a3.46 3.46 0 0 1 2.84-1.37c2 0 3 1.14 3.05 3.4v6.29h-1.63v-6.3a2.21 2.21 0 0 0-0.42-1.52 1.93 1.93 0 0 0-1.44-0.49 2.36 2.36 0 0 0-1.39 0.42 2.89 2.89 0 0 0-0.93 1.11v6.78h-1.62v-9.51z"/>
  <path class="cls-7" d="m171.65-18.218a1.19 1.19 0 0 0-0.49-1 4.93 4.93 0 0 0-1.73-0.63 7.65 7.65 0 0 1-2-0.63 2.87 2.87 0 0 1-1.08-0.88 2.1 2.1 0 0 1-0.34-1.21 2.47 2.47 0 0 1 1-2 3.85 3.85 0 0 1 2.52-0.81 4 4 0 0 1 2.63 0.84 2.62 2.62 0 0 1 1 2.13h-1.63a1.47 1.47 0 0 0-0.57-1.15 2.13 2.13 0 0 0-1.43-0.48 2.29 2.29 0 0 0-1.39 0.38 1.24 1.24 0 0 0-0.5 1 1 1 0 0 0 0.47 0.89 5.65 5.65 0 0 0 1.68 0.57 9.55 9.55 0 0 1 2 0.65 3.08 3.08 0 0 1 1.12 0.91 2.28 2.28 0 0 1 0.36 1.3 2.42 2.42 0 0 1-1 2 4.22 4.22 0 0 1-2.64 0.77 4.81 4.81 0 0 1-2-0.4 3.33 3.33 0 0 1-1.37-1.13 2.73 2.73 0 0 1-0.5-1.57h1.63a1.7 1.7 0 0 0 0.65 1.3 2.56 2.56 0 0 0 1.61 0.56 2.64 2.64 0 0 0 1.48-0.38 1.14 1.14 0 0 0 0.52-1.03z"/>
  <path class="cls-7" d="m177.65-27.508v2.31h1.78v1.25h-1.78v5.91a1.32 1.32 0 0 0 0.24 0.86 1 1 0 0 0 0.81 0.28 3.76 3.76 0 0 0 0.77-0.1v1.31a4.93 4.93 0 0 1-1.24 0.17 2 2 0 0 1-1.65-0.66 2.82 2.82 0 0 1-0.55-1.87v-5.9h-1.73v-1.25h1.73v-2.31z"/>
  <path class="cls-7" d="m187.18-15.688a3.59 3.59 0 0 1-0.23-1 3.61 3.61 0 0 1-2.71 1.18 3.35 3.35 0 0 1-2.3-0.79 2.59 2.59 0 0 1-0.9-2 2.68 2.68 0 0 1 1.13-2.31 5.36 5.36 0 0 1 3.17-0.82h1.58v-0.78a1.84 1.84 0 0 0-0.5-1.35 2.06 2.06 0 0 0-1.51-0.51 2.41 2.41 0 0 0-1.46 0.44 1.3 1.3 0 0 0-0.59 1.06h-1.63a2.27 2.27 0 0 1 0.5-1.37 3.52 3.52 0 0 1 1.38-1.05 4.55 4.55 0 0 1 1.9-0.39 3.79 3.79 0 0 1 2.57 0.82 2.94 2.94 0 0 1 1 2.27v4.37a5.44 5.44 0 0 0 0.33 2.09v0.14zm-2.7-1.24a2.81 2.81 0 0 0 1.45-0.4 2.28 2.28 0 0 0 1-1v-2h-1.28c-2 0-3 0.59-3 1.75a1.49 1.49 0 0 0 0.51 1.2 2 2 0 0 0 1.32 0.45z"/>
  <path class="cls-7" d="m192.87-15.688h-1.63v-13.5h1.63z"/>
  <path class="cls-7" d="m197.23-15.688h-1.58v-13.5h1.62z"/>
  <path class="cls-7" d="m204.55-15.688v-12.8h3.61a5.82 5.82 0 0 1 3 0.74 4.9 4.9 0 0 1 2 2.1 6.72 6.72 0 0 1 0.71 3.13v0.82a6.82 6.82 0 0 1-0.7 3.17 4.9 4.9 0 0 1-2 2.09 6.14 6.14 0 0 1-3 0.75zm1.68-11.42v10h1.78a3.88 3.88 0 0 0 3-1.22 5 5 0 0 0 1.08-3.45v-0.75a5.08 5.08 0 0 0-1-3.39 3.63 3.63 0 0 0-2.91-1.23z"/>
  <path class="cls-7" d="m221.97-15.688a3.27 3.27 0 0 1-0.23-1 3.62 3.62 0 0 1-2.71 1.18 3.36 3.36 0 0 1-2.31-0.79 2.59 2.59 0 0 1-0.9-2 2.7 2.7 0 0 1 1.13-2.31 5.4 5.4 0 0 1 3.18-0.82h1.58v-0.78a1.81 1.81 0 0 0-0.51-1.35 2 2 0 0 0-1.5-0.51 2.39 2.39 0 0 0-1.46 0.44 1.3 1.3 0 0 0-0.59 1.06h-1.63a2.27 2.27 0 0 1 0.5-1.37 3.56 3.56 0 0 1 1.37-1.05 4.59 4.59 0 0 1 1.91-0.39 3.79 3.79 0 0 1 2.57 0.82 3 3 0 0 1 1 2.27v4.37a5.44 5.44 0 0 0 0.28 2.11v0.14zm-2.7-1.24a2.81 2.81 0 0 0 1.45-0.4 2.28 2.28 0 0 0 1-1v-2h-1.27c-2 0-3 0.59-3 1.75a1.49 1.49 0 0 0 0.51 1.2 2 2 0 0 0 1.31 0.45z"/>
  <path class="cls-7" d="m228.09-27.508v2.31h1.78v1.25h-1.78v5.91a1.32 1.32 0 0 0 0.24 0.86 1 1 0 0 0 0.81 0.28 3.84 3.84 0 0 0 0.77-0.1v1.31a5 5 0 0 1-1.25 0.17 2 2 0 0 1-1.64-0.66 2.82 2.82 0 0 1-0.55-1.87v-5.9h-1.74v-1.25h1.74v-2.31z"/>
  <path class="cls-7" d="m237.65-15.688a3.27 3.27 0 0 1-0.23-1 3.62 3.62 0 0 1-2.71 1.18 3.33 3.33 0 0 1-2.3-0.79 2.56 2.56 0 0 1-0.91-2 2.7 2.7 0 0 1 1.15-2.34 5.42 5.42 0 0 1 3.18-0.82h1.58v-0.75a1.81 1.81 0 0 0-0.51-1.35 2 2 0 0 0-1.5-0.51 2.39 2.39 0 0 0-1.46 0.44 1.3 1.3 0 0 0-0.59 1.06h-1.7a2.27 2.27 0 0 1 0.5-1.37 3.56 3.56 0 0 1 1.37-1.05 4.59 4.59 0 0 1 1.91-0.39 3.79 3.79 0 0 1 2.57 0.82 3 3 0 0 1 1 2.27v4.37a5.44 5.44 0 0 0 0.33 2.09v0.14zm-2.7-1.24a2.81 2.81 0 0 0 1.45-0.4 2.28 2.28 0 0 0 1-1v-2h-1.27c-2 0-3 0.59-3 1.75a1.49 1.49 0 0 0 0.51 1.2 2 2 0 0 0 1.3 0.45z"/>
  <path class="cls-7" d="m251.23-19.748a4.73 4.73 0 0 1-1.5 3.13 4.89 4.89 0 0 1-3.36 1.1 4.51 4.51 0 0 1-3.63-1.62 6.57 6.57 0 0 1-1.37-4.35v-1.23a7.36 7.36 0 0 1 0.64-3.14 4.79 4.79 0 0 1 1.81-2.08 5.05 5.05 0 0 1 2.7-0.73 4.62 4.62 0 0 1 3.27 1.14 4.8 4.8 0 0 1 1.44 3.15h-1.7a3.7 3.7 0 0 0-0.95-2.22 2.9 2.9 0 0 0-2.06-0.69 3 3 0 0 0-2.53 1.2 5.5 5.5 0 0 0-0.92 3.4v1.24a5.63 5.63 0 0 0 0.87 3.32 2.81 2.81 0 0 0 2.43 1.23 3.27 3.27 0 0 0 2.16-0.63 3.6 3.6 0 0 0 1-2.22z"/>
  <path class="cls-7" d="m259.14-16.628a3.45 3.45 0 0 1-2.78 1.11 3 3 0 0 1-2.32-0.88 3.8 3.8 0 0 1-0.8-2.62v-6.18h1.62v6.14c0 1.44 0.59 2.16 1.76 2.16a2.43 2.43 0 0 0 2.48-1.39v-6.91h1.63v9.51h-1.55z"/>
  <path class="cls-7" d="m267.14-15.518a4.11 4.11 0 0 1-3.14-1.29 4.7 4.7 0 0 1-1.22-3.39v-0.3a5.7 5.7 0 0 1 0.54-2.53 4.23 4.23 0 0 1 1.52-1.74 3.75 3.75 0 0 1 2.1-0.63 3.56 3.56 0 0 1 2.88 1.22 5.28 5.28 0 0 1 1 3.5v0.68h-6.44a3.38 3.38 0 0 0 0.82 2.27 2.58 2.58 0 0 0 2 0.87 2.8 2.8 0 0 0 1.46-0.36 3.4 3.4 0 0 0 1-0.93l1 0.78a4 4 0 0 1-3.52 1.85zm-0.2-8.52a2.17 2.17 0 0 0-1.65 0.71 3.5 3.5 0 0 0-0.83 2h4.77v-0.12a3.09 3.09 0 0 0-0.67-1.92 2 2 0 0 0-1.62-0.67z"/>
  <path class="cls-7" d="m13.327 72.722 1.47-4.75h1.16l-2.54 7.32c-0.4 1.05-1 1.58-1.89 1.58h-0.2l-0.4-0.08v-0.88h0.29a1.52 1.52 0 0 0 0.86-0.22 1.62 1.62 0 0 0 0.5-0.82l0.24-0.64-2.26-6.27h1.19z"/>
  <path class="cls-7" d="m16.557 71.082a3.83 3.83 0 0 1 0.36-1.68 2.86 2.86 0 0 1 1-1.15 2.77 2.77 0 0 1 1.49-0.4 2.68 2.68 0 0 1 2.1 0.9 3.44 3.44 0 0 1 0.8 2.38v0.06a3.74 3.74 0 0 1-0.36 1.66 2.61 2.61 0 0 1-1 1.14 2.75 2.75 0 0 1-1.52 0.41 2.64 2.64 0 0 1-2.08-0.89 3.41 3.41 0 0 1-0.8-2.38zm1.09 0.11a2.69 2.69 0 0 0 0.49 1.69 1.54 1.54 0 0 0 1.3 0.64 1.57 1.57 0 0 0 1.32-0.65 3 3 0 0 0 0.48-1.81 2.69 2.69 0 0 0-0.49-1.69 1.58 1.58 0 0 0-1.32-0.65 1.55 1.55 0 0 0-1.29 0.64 2.91 2.91 0 0 0-0.49 1.83z"/>
  <path class="cls-7" d="m27.647 73.682a2.29 2.29 0 0 1-1.86 0.74 2 2 0 0 1-1.54-0.58 2.63 2.63 0 0 1-0.6-1.75v-4.12h1.1v4.09q0 1.44 1.17 1.44a1.61 1.61 0 0 0 1.65-0.92v-4.61h1.08v6.34h-1z"/>
  <path class="cls-7" d="m33.367 68.942a3.12 3.12 0 0 0-0.54 0 1.41 1.41 0 0 0-1.44 0.91v4.5h-1.09v-6.34h1.06v0.73a1.69 1.69 0 0 1 1.52-0.85 1.19 1.19 0 0 1 0.48 0.08z"/>
  <path class="cls-7" d="m36.647 71.132h-2.89v-0.89h2.89z"/>
  <path class="cls-7" d="m41.357 72.632a0.8 0.8 0 0 0-0.33-0.69 3.23 3.23 0 0 0-1.15-0.42 5 5 0 0 1-1.31-0.42 1.84 1.84 0 0 1-0.71-0.58 1.38 1.38 0 0 1-0.23-0.81 1.65 1.65 0 0 1 0.66-1.32 2.57 2.57 0 0 1 1.68-0.54 2.66 2.66 0 0 1 1.75 0.56 1.75 1.75 0 0 1 0.67 1.42h-1.09a1 1 0 0 0-0.38-0.77 1.44 1.44 0 0 0-1-0.32 1.53 1.53 0 0 0-0.93 0.26 0.8 0.8 0 0 0-0.33 0.67 0.65 0.65 0 0 0 0.31 0.59 3.62 3.62 0 0 0 1.12 0.38 6.34 6.34 0 0 1 1.32 0.44 2.11 2.11 0 0 1 0.75 0.6 1.53 1.53 0 0 1 0.24 0.87 1.62 1.62 0 0 1-0.68 1.36 2.85 2.85 0 0 1-1.76 0.51 3.19 3.19 0 0 1-1.31-0.23 2.21 2.21 0 0 1-0.92-0.75 1.81 1.81 0 0 1-0.33-1h1.08a1.12 1.12 0 0 0 0.44 0.86 1.71 1.71 0 0 0 1.08 0.32 1.7 1.7 0 0 0 1-0.25 0.76 0.76 0 0 0 0.36-0.74z"/>
  <path class="cls-7" d="m45.327 66.432v1.54h1.19v0.83h-1.19v3.94a0.83 0.83 0 0 0 0.16 0.57 0.66 0.66 0 0 0 0.54 0.19 2.33 2.33 0 0 0 0.51-0.07v0.88a3 3 0 0 1-0.83 0.11 1.31 1.31 0 0 1-1.09-0.44 1.84 1.84 0 0 1-0.37-1.24v-3.94h-1.16v-0.83h1.16v-1.54z"/>
  <path class="cls-7" d="m47.377 71.082a3.83 3.83 0 0 1 0.36-1.68 2.86 2.86 0 0 1 1-1.15 2.77 2.77 0 0 1 1.49-0.4 2.67 2.67 0 0 1 2.1 0.9 3.44 3.44 0 0 1 0.8 2.38v0.06a3.74 3.74 0 0 1-0.36 1.66 2.61 2.61 0 0 1-1 1.14 2.74 2.74 0 0 1-1.51 0.41 2.65 2.65 0 0 1-2.09-0.89 3.41 3.41 0 0 1-0.8-2.38zm1.09 0.13a2.69 2.69 0 0 0 0.49 1.69 1.55 1.55 0 0 0 1.31 0.64 1.57 1.57 0 0 0 1.31-0.65 3 3 0 0 0 0.48-1.81 2.69 2.69 0 0 0-0.49-1.69 1.58 1.58 0 0 0-1.32-0.65 1.55 1.55 0 0 0-1.29 0.64 2.91 2.91 0 0 0-0.49 1.81z"/>
  <path class="cls-7" d="m57.567 68.942a2.93 2.93 0 0 0-0.53 0 1.43 1.43 0 0 0-1.45 0.91v4.5h-1.08v-6.34h1v0.73a1.69 1.69 0 0 1 1.51-0.85 1.19 1.19 0 0 1 0.48 0.08z"/>
  <path class="cls-7" d="m61.087 74.422a2.79 2.79 0 0 1-2.1-0.84 3.15 3.15 0 0 1-0.81-2.27v-0.2a3.77 3.77 0 0 1 0.36-1.68 2.79 2.79 0 0 1 1-1.16 2.52 2.52 0 0 1 1.4-0.42 2.36 2.36 0 0 1 1.92 0.81 3.53 3.53 0 0 1 0.69 2.34v0.45h-4.28a2.21 2.21 0 0 0 0.54 1.51 1.72 1.72 0 0 0 1.34 0.58 1.86 1.86 0 0 0 1-0.24 2.41 2.41 0 0 0 0.7-0.62l0.66 0.52a2.65 2.65 0 0 1-2.42 1.22zm-0.14-5.68a1.46 1.46 0 0 0-1.1 0.48 2.29 2.29 0 0 0-0.55 1.34h3.18v-0.09a2.11 2.11 0 0 0-0.45-1.28 1.35 1.35 0 0 0-1.08-0.45z"/>
  <path class="cls-7" d="m327.29 74.312v-8.53h2.41a3.87 3.87 0 0 1 2 0.49 3.31 3.31 0 0 1 1.32 1.4 4.49 4.49 0 0 1 0.47 2.08v0.55a4.56 4.56 0 0 1-0.47 2.11 3.27 3.27 0 0 1-1.33 1.4 4.15 4.15 0 0 1-2 0.5zm1.12-7.61v6.69h1.24a2.56 2.56 0 0 0 2-0.81 3.32 3.32 0 0 0 0.73-2.31v-0.5a3.37 3.37 0 0 0-0.69-2.26 2.41 2.41 0 0 0-1.93-0.81z"/>
  <path class="cls-7" d="m338.9 74.312a2.49 2.49 0 0 1-0.15-0.67 2.41 2.41 0 0 1-1.8 0.78 2.2 2.2 0 0 1-1.54-0.53 1.71 1.71 0 0 1-0.6-1.34 1.8 1.8 0 0 1 0.75-1.54 3.59 3.59 0 0 1 2.12-0.55h1.05v-0.49a1.21 1.21 0 0 0-0.34-0.91 1.37 1.37 0 0 0-1-0.34 1.54 1.54 0 0 0-1 0.3 0.85 0.85 0 0 0-0.39 0.7h-1.09a1.5 1.5 0 0 1 0.33-0.91 2.26 2.26 0 0 1 0.92-0.7 3.07 3.07 0 0 1 1.27-0.26 2.46 2.46 0 0 1 1.71 0.55 2 2 0 0 1 0.65 1.51v2.91a3.51 3.51 0 0 0 0.22 1.39v0.1zm-1.8-0.83a2 2 0 0 0 1-0.26 1.56 1.56 0 0 0 0.66-0.69v-1.34h-0.85c-1.32 0-2 0.39-2 1.17a1 1 0 0 0 0.34 0.79 1.27 1.27 0 0 0 0.85 0.33z"/>
  <path class="cls-7" d="m342.99 66.432v1.54h1.18v0.83h-1.18v3.94a0.83 0.83 0 0 0 0.16 0.57 0.63 0.63 0 0 0 0.53 0.19 2.41 2.41 0 0 0 0.52-0.07v0.88a3.06 3.06 0 0 1-0.83 0.11 1.34 1.34 0 0 1-1.1-0.44 1.89 1.89 0 0 1-0.37-1.24v-3.94h-1.15v-0.83h1.15v-1.54z"/>
  <path class="cls-7" d="m349.35 74.312a2.49 2.49 0 0 1-0.15-0.67 2.45 2.45 0 0 1-1.81 0.78 2.19 2.19 0 0 1-1.53-0.53 1.68 1.68 0 0 1-0.61-1.34 1.81 1.81 0 0 1 0.76-1.54 3.59 3.59 0 0 1 2.12-0.55h1v-0.49a1.21 1.21 0 0 0-0.34-0.91 1.39 1.39 0 0 0-1-0.34 1.54 1.54 0 0 0-1 0.3 0.84 0.84 0 0 0-0.4 0.7h-1.09a1.51 1.51 0 0 1 0.34-0.91 2.23 2.23 0 0 1 0.91-0.7 3.13 3.13 0 0 1 1.27-0.26 2.49 2.49 0 0 1 1.72 0.55 2 2 0 0 1 0.64 1.51v2.91a3.49 3.49 0 0 0 0.23 1.39v0.1zm-1.8-0.83a2 2 0 0 0 1-0.26 1.68 1.68 0 0 0 0.66-0.69v-1.34h-0.85c-1.33 0-2 0.39-2 1.17a1 1 0 0 0 0.34 0.79 1.25 1.25 0 0 0 0.85 0.33z"/>
  <path class="cls-7" d="m358.41 71.602a3.17 3.17 0 0 1-1 2.09 3.28 3.28 0 0 1-2.24 0.73 3 3 0 0 1-2.42-1.08 4.34 4.34 0 0 1-0.91-2.9v-0.82a4.76 4.76 0 0 1 0.43-2.09 3.15 3.15 0 0 1 1.2-1.39 3.36 3.36 0 0 1 1.8-0.48 3 3 0 0 1 2.18 0.76 3.14 3.14 0 0 1 1 2.1h-1.13a2.43 2.43 0 0 0-0.64-1.48 1.89 1.89 0 0 0-1.37-0.46 2 2 0 0 0-1.69 0.8 3.68 3.68 0 0 0-0.61 2.26v0.83a3.71 3.71 0 0 0 0.58 2.21 1.87 1.87 0 0 0 1.62 0.82 2.17 2.17 0 0 0 1.44-0.42 2.33 2.33 0 0 0 0.67-1.48z"/>
  <path class="cls-7" d="m363.65 73.682a2.29 2.29 0 0 1-1.86 0.74 2 2 0 0 1-1.54-0.58 2.53 2.53 0 0 1-0.54-1.75v-4.12h1.08v4.09c0 1 0.4 1.44 1.18 1.44a1.62 1.62 0 0 0 1.65-0.92v-4.61h1.08v6.34h-1z"/>
  <path class="cls-7" d="m369.02 74.422a2.79 2.79 0 0 1-2.1-0.84 3.15 3.15 0 0 1-0.81-2.27v-0.2a3.77 3.77 0 0 1 0.36-1.68 2.79 2.79 0 0 1 1-1.16 2.53 2.53 0 0 1 1.41-0.42 2.39 2.39 0 0 1 1.92 0.81 3.59 3.59 0 0 1 0.68 2.34v0.45h-4.29a2.21 2.21 0 0 0 0.55 1.51 1.7 1.7 0 0 0 1.33 0.58 1.84 1.84 0 0 0 1-0.24 2.29 2.29 0 0 0 0.7-0.62l0.66 0.52a2.65 2.65 0 0 1-2.41 1.22zm-0.13-5.68a1.46 1.46 0 0 0-1.11 0.48 2.36 2.36 0 0 0-0.55 1.34h3.18v-0.09a2.05 2.05 0 0 0-0.45-1.28 1.35 1.35 0 0 0-1.07-0.45z"/>
 </g>
 <path class="cls-8" d="m145.35 13.312h101.8a19 19 0 0 1 0 38h-105a19 19 0 0 1-6.67-36.79" fill="none" stroke="#d0d4d8" stroke-linecap="round" stroke-linejoin="round"/>
 <path class="cls-9" d="m152.19 18.112a0.49 0.49 0 0 0-0.16-0.69l-6.45-4.11 6.45-4.12a0.49 0.49 0 0 0 0.16-0.69 0.5 0.5 0 0 0-0.69-0.16l-7.12 4.54a0.5 0.5 0 0 0 0 0.84l7.12 4.53a0.5 0.5 0 0 0 0.26 0.08 0.51 0.51 0 0 0 0.43-0.22z" fill="#d0d4d8"/>
</svg>
