<svg xmlns="http://www.w3.org/2000/svg" viewBox="0 0 200 150">
  <defs>
    <style>.cls-1{fill:#efefef;}.cls-2{fill:#fff;}.cls-3{fill:#53555f;}.cls-4{fill:#bdc1c6;}</style>
  </defs>
  <title>404</title>
  <rect class="cls-2" x="12.5" y="11.33" width="175" height="13.17"/>
  <path class="cls-3" d="M187.5,25H12.5a.5.5,0,0,1-.5-.5V11.33a.5.5,0,0,1,.5-.5h175a.5.5,0,0,1,.5.5V24.49A.5.5,0,0,1,187.5,25ZM13,24H187V11.83H13Z"/>
  <rect class="cls-2" x="12.5" y="33.58" width="175" height="60.75"/>
  <path class="cls-3" d="M187.5,94.83H12.5a.5.5,0,0,1-.5-.5V33.58a.5.5,0,0,1,.5-.5h175a.5.5,0,0,1,.5.5V94.33A.5.5,0,0,1,187.5,94.83ZM13,93.83H187V34.08H13Z"/>
  <rect class="cls-3" x="12.5" y="103.41" width="37.5" height="37.5"/>
  <rect class="cls-3" x="58.33" y="103.41" width="37.5" height="37.5"/>
  <rect class="cls-3" x="104.17" y="103.41" width="37.5" height="37.5"/>
  <rect class="cls-3" x="150" y="103.41" width="37.5" height="37.5"/>
  <ellipse class="cls-4" cx="63.64" cy="63.95" rx="15.09" ry="14.95"/>
  <path class="cls-2" d="M68.18,65.42V66.6a.43.43,0,0,1-.1.29.4.4,0,0,1-.31.12H66.68v2.91H64.91V67h-5a.55.55,0,0,1-.36-.13.57.57,0,0,1-.2-.32l-.21-1L64.75,58h1.93v7.44Zm-3.27,0v-3.9A11,11,0,0,1,65,60.3l-3.7,5.12Z"/>
  <ellipse class="cls-4" cx="136.36" cy="63.95" rx="15.09" ry="14.95"/>
  <path class="cls-2" d="M140.9,65.42V66.6a.39.39,0,0,1-.11.29.38.38,0,0,1-.3.12H139.4v2.91h-1.77V67h-5a.52.52,0,0,1-.36-.13.52.52,0,0,1-.2-.32l-.21-1L137.47,58h1.93v7.44Zm-3.27,0v-3.9a11,11,0,0,1,.07-1.22L134,65.42Z"/>
  <ellipse class="cls-4" cx="100" cy="63.95" rx="15.09" ry="14.95"/>
  <path class="cls-2" d="M104.37,64a9.9,9.9,0,0,1-.33,2.71,5.52,5.52,0,0,1-.92,1.9,3.65,3.65,0,0,1-1.4,1.12,4.25,4.25,0,0,1-3.47,0,3.59,3.59,0,0,1-1.38-1.12,5.51,5.51,0,0,1-.91-1.9,11.29,11.29,0,0,1,0-5.42,5.51,5.51,0,0,1,.91-1.9,3.68,3.68,0,0,1,1.38-1.12,4.25,4.25,0,0,1,3.47,0,3.74,3.74,0,0,1,1.4,1.12,5.52,5.52,0,0,1,.92,1.9A9.85,9.85,0,0,1,104.37,64Zm-2.1,0a9.79,9.79,0,0,0-.19-2.14,4.51,4.51,0,0,0-.51-1.36,1.8,1.8,0,0,0-.73-.7,1.85,1.85,0,0,0-.86-.21,1.8,1.8,0,0,0-.84.21,1.78,1.78,0,0,0-.72.7,4.26,4.26,0,0,0-.5,1.36A9.79,9.79,0,0,0,97.73,64a10,10,0,0,0,.19,2.15,4.2,4.2,0,0,0,.5,1.35,1.81,1.81,0,0,0,.72.71,1.92,1.92,0,0,0,.84.2,2,2,0,0,0,.86-.2,1.83,1.83,0,0,0,.73-.71,4.43,4.43,0,0,0,.51-1.35A10,10,0,0,0,102.27,64Z"/>
  <path class="cls-3" d="M183.07,20.73l-.58-1a2.82,2.82,0,0,1-.42-1.49V17.4a2.4,2.4,0,0,0-1.71-2.3v-.61a.69.69,0,1,0-1.37,0v.61a2.4,2.4,0,0,0-1.71,2.3v.86a2.92,2.92,0,0,1-.42,1.49l-.59,1a.19.19,0,0,0,0,.18.18.18,0,0,0,.15.08h6.51a.18.18,0,0,0,.15-.08A.17.17,0,0,0,183.07,20.73Z"/>
  <path class="cls-3" d="M178.6,21.33a1.18,1.18,0,0,0,2.15,0Z"/>
</svg>
