<svg xmlns="http://www.w3.org/2000/svg" viewBox="0 0 200 150">
  <defs>
    <style>.cls-1{fill:#efefef;}.cls-2{fill:#fff;}.cls-3{fill:#53555f;}.cls-4{fill:#bdc1c6;}</style>
  </defs>
  <title>cart</title>
  <rect class="cls-2" x="12.5" y="11.33" width="175" height="13.17"/>
  <path class="cls-3" d="M187.5,25H12.5a.5.5,0,0,1-.5-.5V11.33a.5.5,0,0,1,.5-.5h175a.5.5,0,0,1,.5.5V24.49A.5.5,0,0,1,187.5,25ZM13,24H187V11.83H13Z"/>
  <rect class="cls-2" x="12.5" y="33.58" width="175" height="52.43"/>
  <path class="cls-3" d="M187.5,86.5H12.5A.5.5,0,0,1,12,86V33.58a.5.5,0,0,1,.5-.5h175a.5.5,0,0,1,.5.5V86A.5.5,0,0,1,187.5,86.5ZM13,85.5H187V34.08H13Z"/>
  <rect class="cls-3" x="12.5" y="103.41" width="37.5" height="37.5"/>
  <rect class="cls-3" x="58.33" y="103.41" width="37.5" height="37.5"/>
  <rect class="cls-3" x="104.17" y="103.41" width="37.5" height="37.5"/>
  <rect class="cls-3" x="150" y="103.41" width="37.5" height="37.5"/>
  <rect class="cls-2" x="150" y="89.34" width="37.5" height="10.56"/>
  <path class="cls-3" d="M187.5,100.4H150a.5.5,0,0,1-.5-.5V89.34a.5.5,0,0,1,.5-.5h37.5a.5.5,0,0,1,.5.5V99.9A.5.5,0,0,1,187.5,100.4Zm-37-1H187V89.84H150.5Z"/>
  <rect class="cls-4" x="65.27" y="44.22" width="59.85" height="6.58"/>
  <rect class="cls-4" x="65.27" y="68.78" width="59.85" height="6.58"/>
  <rect class="cls-4" x="154" y="44.22" width="20.25" height="6.58"/>
  <rect class="cls-4" x="154" y="68.78" width="20.25" height="6.58"/>
  <path class="cls-3" d="M44.5,57.38H25.75a.5.5,0,0,1-.5-.5V38.13a.5.5,0,0,1,.5-.5H44.5a.5.5,0,0,1,.5.5V56.88A.5.5,0,0,1,44.5,57.38Zm-18.25-1H44V38.63H26.25Z"/>
  <path class="cls-3" d="M44.5,82H25.75a.5.5,0,0,1-.5-.5V62.7a.5.5,0,0,1,.5-.5H44.5a.5.5,0,0,1,.5.5V81.45A.5.5,0,0,1,44.5,82ZM26.25,81H44V63.2H26.25Z"/>
  <path class="cls-4" d="M173.08,92.09h-5.27a.22.22,0,0,0-.22.3l.84,2.44a.36.36,0,0,0,.32.24h3.46a.36.36,0,0,0,.32-.24l.73-2.5A.18.18,0,0,0,173.08,92.09Z"/>
  <circle class="cls-4" cx="168.29" cy="97.89" r="0.79"/>
  <circle class="cls-4" cx="171.63" cy="97.9" r="0.79"/>
  <path class="cls-4" d="M172.57,95.87H168l-1.85-5.31h-1.43a.45.45,0,1,0,0,.89h.8l1.85,5.32h5.24a.45.45,0,1,0,0-.9Z"/>
  <path class="cls-4" d="M42.67,52.58c-.65-.74-4.24-2-4.65-2.13a.22.22,0,0,0-.16,0,4.31,4.31,0,0,1-1.27.25,1.92,1.92,0,0,1-1.22-.36,3,3,0,0,1-.79-1.18c-.25-.58-.52-1.16-.78-1.73l-.27-.57c-.37-.8-.69-1.54-1-2.24a9.87,9.87,0,0,0-2-3.07,1,1,0,0,0-1.33-.06l-.3.26a4.9,4.9,0,0,0-1.25,1.74,5.25,5.25,0,0,0-.1,2.52v0c.1.76.16,1.54.21,2.22.07.88.12,1.76.15,2.63l0,.43c0,.3,0,.6,0,.9V53.5a.26.26,0,0,0,.26.26h1a.27.27,0,0,0,.25-.27c0-.21,0-3.11,0-4.33v-.38a3.78,3.78,0,0,1,.14-1.34,1,1,0,0,1,.3-.55.19.19,0,0,1,.11,0c.21.07.4.39.52.6a7.45,7.45,0,0,1,.5,1.05.79.79,0,0,0,.05.15A16.79,16.79,0,0,0,33,52.87a3,3,0,0,0,2.13.89h3.22c1.86,0,4.13-.17,4.38-.74A.39.39,0,0,0,42.67,52.58Z"/>
  <path class="cls-4" d="M39,65.46h3.22a.78.78,0,0,1,.78.78v6.65a0,0,0,0,1,0,0H38.25a0,0,0,0,1,0,0V66.24A.78.78,0,0,1,39,65.46Z"/>
  <rect class="cls-4" x="36.57" y="69.86" width="4.77" height="9.53" rx="2.39" transform="translate(64.17 -5.69) rotate(45)"/>
  <path class="cls-4" d="M31.37,65.46h3.22a.78.78,0,0,1,.78.78v6.65a0,0,0,0,1,0,0H30.59a0,0,0,0,1,0,0V66.24A.78.78,0,0,1,31.37,65.46Z"/>
  <rect class="cls-4" x="28.91" y="69.86" width="4.77" height="9.53" rx="2.39" transform="translate(61.93 -0.27) rotate(45)"/>
  <path class="cls-3" d="M183.07,20.73l-.58-1a2.82,2.82,0,0,1-.42-1.49V17.4a2.4,2.4,0,0,0-1.71-2.3v-.61a.69.69,0,1,0-1.37,0v.61a2.4,2.4,0,0,0-1.71,2.3v.86a2.92,2.92,0,0,1-.42,1.49l-.59,1a.19.19,0,0,0,0,.18.18.18,0,0,0,.15.08h6.51a.18.18,0,0,0,.15-.08A.17.17,0,0,0,183.07,20.73Z"/>
  <path class="cls-3" d="M178.6,21.33a1.18,1.18,0,0,0,2.15,0Z"/>
</svg>
