<svg xmlns="http://www.w3.org/2000/svg" viewBox="0 0 200 150">
  <defs>
    <style>.cls-1{fill:#efefef;}.cls-2{fill:#fff;}.cls-3{fill:#53555f;}.cls-4{fill:#bdc1c6;}</style>
  </defs>
  <title>collections</title>
  <rect class="cls-2" x="12.5" y="34.41" width="39.81" height="61.92"/>
  <path class="cls-3" d="M52.31,96.83H12.5a.5.5,0,0,1-.5-.5V34.41a.5.5,0,0,1,.5-.5H52.31a.5.5,0,0,1,.5.5V96.33A.5.5,0,0,1,52.31,96.83ZM13,95.83H51.81V34.91H13Z"/>
  <rect class="cls-2" x="12.5" y="11.33" width="175" height="13.17"/>
  <path class="cls-3" d="M187.5,25H12.5a.5.5,0,0,1-.5-.5V11.33a.5.5,0,0,1,.5-.5h175a.5.5,0,0,1,.5.5V24.49A.5.5,0,0,1,187.5,25ZM13,24H187V11.83H13Z"/>
  <rect class="cls-4" x="17.56" y="43.65" width="29.69" height="6.58"/>
  <rect class="cls-4" x="17.56" y="55.94" width="29.69" height="6.58"/>
  <rect class="cls-4" x="17.56" y="68.22" width="29.69" height="6.58"/>
  <rect class="cls-4" x="17.56" y="80.5" width="29.69" height="6.58"/>
  <rect class="cls-2" x="57.56" y="34.41" width="25" height="25"/>
  <path class="cls-3" d="M82.56,59.91h-25a.5.5,0,0,1-.5-.5v-25a.5.5,0,0,1,.5-.5h25a.5.5,0,0,1,.5.5v25A.5.5,0,0,1,82.56,59.91Zm-24.5-1h24v-24h-24Z"/>
  <rect class="cls-2" x="92.54" y="34.41" width="25" height="25"/>
  <path class="cls-3" d="M117.54,59.91h-25a.5.5,0,0,1-.5-.5v-25a.5.5,0,0,1,.5-.5h25a.5.5,0,0,1,.5.5v25A.5.5,0,0,1,117.54,59.91Zm-24.5-1h24v-24H93Z"/>
  <rect class="cls-2" x="127.52" y="34.41" width="25" height="25"/>
  <path class="cls-3" d="M152.52,59.91h-25a.5.5,0,0,1-.5-.5v-25a.5.5,0,0,1,.5-.5h25a.5.5,0,0,1,.5.5v25A.5.5,0,0,1,152.52,59.91Zm-24.5-1h24v-24H128Z"/>
  <rect class="cls-2" x="162.5" y="34.41" width="25" height="25"/>
  <path class="cls-3" d="M187.5,59.91h-25a.5.5,0,0,1-.5-.5v-25a.5.5,0,0,1,.5-.5h25a.5.5,0,0,1,.5.5v25A.5.5,0,0,1,187.5,59.91Zm-24.5-1h24v-24H163Z"/>
  <rect class="cls-2" x="57.56" y="71.33" width="25" height="25"/>
  <path class="cls-3" d="M82.56,96.83h-25a.51.51,0,0,1-.5-.5v-25a.5.5,0,0,1,.5-.5h25a.5.5,0,0,1,.5.5v25A.5.5,0,0,1,82.56,96.83Zm-24.5-1h24v-24h-24Z"/>
  <rect class="cls-2" x="92.54" y="71.33" width="25" height="25"/>
  <path class="cls-3" d="M117.54,96.83h-25a.51.51,0,0,1-.5-.5v-25a.5.5,0,0,1,.5-.5h25a.5.5,0,0,1,.5.5v25A.5.5,0,0,1,117.54,96.83Zm-24.5-1h24v-24H93Z"/>
  <rect class="cls-2" x="127.52" y="71.33" width="25" height="25"/>
  <path class="cls-3" d="M152.52,96.83h-25a.5.5,0,0,1-.5-.5v-25a.5.5,0,0,1,.5-.5h25a.5.5,0,0,1,.5.5v25A.5.5,0,0,1,152.52,96.83Zm-24.5-1h24v-24H128Z"/>
  <rect class="cls-2" x="162.5" y="71.33" width="25" height="25"/>
  <path class="cls-3" d="M187.5,96.83h-25a.5.5,0,0,1-.5-.5v-25a.5.5,0,0,1,.5-.5h25a.5.5,0,0,1,.5.5v25A.5.5,0,0,1,187.5,96.83Zm-24.5-1h24v-24H163Z"/>
  <rect class="cls-3" x="12.5" y="103.41" width="37.5" height="37.5"/>
  <rect class="cls-3" x="58.33" y="103.41" width="37.5" height="37.5"/>
  <rect class="cls-3" x="104.17" y="103.41" width="37.5" height="37.5"/>
  <rect class="cls-3" x="150" y="103.41" width="37.5" height="37.5"/>
  <path class="cls-4" d="M79.82,53.46c-.83-.94-5.48-2.56-6-2.74a.26.26,0,0,0-.21,0A5.34,5.34,0,0,1,72,51a2.44,2.44,0,0,1-1.58-.46,3.75,3.75,0,0,1-1-1.53c-.33-.75-.68-1.5-1-2.23L68,46.08c-.48-1-.89-2-1.26-2.91a12.28,12.28,0,0,0-2.6-4,1.26,1.26,0,0,0-1.71-.09c-.14.11-.26.22-.39.34a6.33,6.33,0,0,0-1.62,2.26A6.63,6.63,0,0,0,60.29,45V45c.12,1,.2,2,.26,2.88.09,1.13.15,2.27.2,3.39l0,.56c0,.39,0,.78,0,1.17,0,.2,0,.79,0,1.23v.41a.33.33,0,0,0,.33.33h1.32a.34.34,0,0,0,.33-.34c0-.27,0-4,0-5.6v-.49A5.14,5.14,0,0,1,63,46.82a1.24,1.24,0,0,1,.39-.71.18.18,0,0,1,.15,0c.27.09.51.5.67.78a8.38,8.38,0,0,1,.63,1.36,1.08,1.08,0,0,1,.07.18c1.13,3.08,2,4.9,2.45,5.42A3.87,3.87,0,0,0,70.1,55h4.16c2.41,0,5.34-.22,5.67-1A.53.53,0,0,0,79.82,53.46Z"/>
  <path class="cls-4" d="M149.78,53.46c-.84-.94-5.49-2.56-6-2.74a.28.28,0,0,0-.22,0,5.28,5.28,0,0,1-1.63.31,2.44,2.44,0,0,1-1.58-.46,3.75,3.75,0,0,1-1-1.53c-.33-.75-.68-1.5-1-2.23l-.34-.73c-.48-1-.89-2-1.26-2.91a12.44,12.44,0,0,0-2.6-4,1.28,1.28,0,0,0-1.72-.09l-.38.34a6.37,6.37,0,0,0-1.63,2.26,6.75,6.75,0,0,0-.12,3.25V45c.13,1,.2,2,.27,2.88.09,1.13.15,2.27.2,3.39l0,.56c0,.39,0,.78,0,1.17v1.64a.33.33,0,0,0,.33.33h1.32a.34.34,0,0,0,.33-.34c0-.27,0-4,0-5.6v-.49a4.9,4.9,0,0,1,.18-1.74,1.24,1.24,0,0,1,.39-.71.16.16,0,0,1,.14,0c.28.09.52.5.68.78a9.32,9.32,0,0,1,.63,1.36l.07.18c1.13,3.08,2,4.9,2.45,5.42A3.87,3.87,0,0,0,140.06,55h4.16c2.41,0,5.34-.22,5.67-1A.53.53,0,0,0,149.78,53.46Z"/>
  <path class="cls-4" d="M111,49.69c-1.58-.54-4.15.56-5.35,0-2.74-1.24-3.2-6.12-4.37-7.8-2.16-3.09-5.91-1.26-5.91-1.26-.73,3.57,0,5.22.78,5.94h0a18.84,18.84,0,0,1,.71,6.95h.69a48.39,48.39,0,0,1,.52-6.43c1.81.1,2.23.74,3,2.74.88,2.24.58,2.87,3.34,3.62S115.1,53,115,52.59,113.71,50.62,111,49.69Z"/>
  <path class="cls-4" d="M181,49.69c-1.59-.54-4.15.56-5.35,0-2.74-1.24-3.2-6.12-4.37-7.8-2.16-3.09-5.91-1.26-5.91-1.26-.74,3.57,0,5.22.78,5.94h0a18.84,18.84,0,0,1,.71,6.95h.69a48.39,48.39,0,0,1,.52-6.43c1.8.1,2.23.74,3,2.74.88,2.24.58,2.87,3.34,3.62S185.06,53,185,52.59,183.67,50.62,181,49.69Z"/>
  <path class="cls-4" d="M111.7,86.59c-1.59-.54-4.15.56-5.35,0-.13-.06-.24-.13-.36-.2a7,7,0,0,1,1.36-2.15l-1.44-1.61a6.36,6.36,0,0,0-1.52,2c-1.13-2-1.6-4.67-2.42-5.84-2.15-3.09-5.91-1.26-5.91-1.26-.73,3.56,0,5.21.79,5.93a18.9,18.9,0,0,1,.71,7h1.13l.87-6.33c1.16.25,1.56,1,2.22,2.64.88,2.24.58,2.87,3.34,3.62s9.29-.21,9.21-.62S114.4,87.52,111.7,86.59Z"/>
  <path class="cls-4" d="M181.65,86.59c-1.58-.54-4.14.56-5.34,0-.13-.06-.24-.13-.36-.2a7,7,0,0,1,1.36-2.15l-1.44-1.61a6.36,6.36,0,0,0-1.52,2c-1.13-2-1.6-4.67-2.42-5.84-2.15-3.09-5.91-1.26-5.91-1.26-.73,3.56,0,5.21.79,5.93a18.9,18.9,0,0,1,.71,7h1.13l.86-6.33c1.17.25,1.57,1,2.23,2.64.88,2.24.58,2.87,3.33,3.62s9.3-.21,9.21-.62S184.35,87.52,181.65,86.59Z"/>
  <path class="cls-4" d="M80.5,89a.46.46,0,0,0-.18-.13.41.41,0,0,0-.19,0,38.58,38.58,0,0,1-7.7,1l2.36-4.17a.37.37,0,0,0-.08-.45l-1.21-1a.38.38,0,0,0-.29-.07.36.36,0,0,0-.25.17L70.17,89.1a22.73,22.73,0,0,1-3.11-4.36l0-.07a13.78,13.78,0,0,0-1.59-1.76V82a10.92,10.92,0,0,0-.31-2.93A1.23,1.23,0,0,1,65.34,78a1.05,1.05,0,0,1,.81-.43h2.48a.36.36,0,0,0,.36-.36V75.8a.36.36,0,0,0-.36-.36H63.12a1.4,1.4,0,0,0-1.27,1.41V77a1.34,1.34,0,0,0,.23.73,11.21,11.21,0,0,1,1.17,3.72,12,12,0,0,0-1.9-.9.91.91,0,0,1-.58-.88,5.46,5.46,0,0,1,.13-.89.36.36,0,0,0-.21-.41.36.36,0,0,0-.44.14,5.38,5.38,0,0,0-.9,2.83A1.56,1.56,0,0,0,60,82.65a8.4,8.4,0,0,1,1.88,5.24v4a.36.36,0,0,0,.35.36h1.43a.36.36,0,0,0,.36-.36V85a12.19,12.19,0,0,1,1.74,1.77c2.89,5.21,4.65,5.46,5,5.44h.32a38.46,38.46,0,0,0,8.67-1,1.3,1.3,0,0,0,.92-.84A1.41,1.41,0,0,0,80.5,89Z"/>
  <path class="cls-4" d="M150.45,89a.37.37,0,0,0-.17-.13.44.44,0,0,0-.2,0,38.58,38.58,0,0,1-7.69,1l2.36-4.17a.37.37,0,0,0-.08-.45l-1.21-1a.38.38,0,0,0-.29-.07.34.34,0,0,0-.25.17l-2.79,4.78A22.26,22.26,0,0,1,137,84.74l-.06-.07a13.73,13.73,0,0,0-1.58-1.76V82a10.92,10.92,0,0,0-.31-2.93A1.23,1.23,0,0,1,135.3,78a1.05,1.05,0,0,1,.81-.43h2.48a.36.36,0,0,0,.36-.36V75.8a.36.36,0,0,0-.36-.36h-5.51a1.4,1.4,0,0,0-1.27,1.41V77a1.34,1.34,0,0,0,.23.73,11.21,11.21,0,0,1,1.17,3.72,12,12,0,0,0-1.9-.9.91.91,0,0,1-.58-.88,4.53,4.53,0,0,1,.12-.89.35.35,0,0,0-.2-.41.36.36,0,0,0-.44.14,5.38,5.38,0,0,0-.9,2.83,1.56,1.56,0,0,0,.62,1.29,8.39,8.39,0,0,1,1.87,5.24v4a.36.36,0,0,0,.36.36h1.43a.36.36,0,0,0,.36-.36V85a12.73,12.73,0,0,1,1.74,1.77c2.89,5.21,4.65,5.46,5,5.44h.32a38.46,38.46,0,0,0,8.67-1,1.3,1.3,0,0,0,.92-.84A1.39,1.39,0,0,0,150.45,89Z"/>
  <path class="cls-3" d="M183.07,20.73l-.58-1a2.82,2.82,0,0,1-.42-1.49V17.4a2.4,2.4,0,0,0-1.71-2.3v-.61a.69.69,0,1,0-1.37,0v.61a2.4,2.4,0,0,0-1.71,2.3v.86a2.92,2.92,0,0,1-.42,1.49l-.59,1a.19.19,0,0,0,0,.18.18.18,0,0,0,.15.08h6.51a.18.18,0,0,0,.15-.08A.17.17,0,0,0,183.07,20.73Z"/>
  <path class="cls-3" d="M178.6,21.33a1.18,1.18,0,0,0,2.15,0Z"/>
</svg>
