<svg xmlns="http://www.w3.org/2000/svg" viewBox="0 0 200 150">
  <defs>
    <style>.cls-1{fill:#efefef;}.cls-2{fill:#fff;}.cls-3{fill:#53555f;}.cls-4{fill:#bdc1c6;}</style>
  </defs>
  <title>homepage</title>
  <rect class="cls-2" x="12.5" y="11.33" width="175" height="13.17"/>
  <path class="cls-3" d="M187.5,25H12.5a.5.5,0,0,1-.5-.5V11.33a.5.5,0,0,1,.5-.5h175a.5.5,0,0,1,.5.5V24.49A.5.5,0,0,1,187.5,25ZM13,24H187V11.83H13Z"/>
  <rect class="cls-3" x="12.5" y="33.58" width="36.69" height="60.75"/>
  <rect class="cls-3" x="150.81" y="33.58" width="36.69" height="60.75"/>
  <rect class="cls-3" x="55.06" y="33.58" width="89.88" height="60.75"/>
  <rect class="cls-3" x="12.5" y="103.41" width="37.5" height="37.5"/>
  <rect class="cls-3" x="58.33" y="103.41" width="37.5" height="37.5"/>
  <rect class="cls-3" x="104.17" y="103.41" width="37.5" height="37.5"/>
  <rect class="cls-3" x="150" y="103.41" width="37.5" height="37.5"/>
  <path class="cls-3" d="M183.07,20.73l-.58-1a2.82,2.82,0,0,1-.42-1.49V17.4a2.4,2.4,0,0,0-1.71-2.3v-.61a.69.69,0,1,0-1.37,0v.61a2.4,2.4,0,0,0-1.71,2.3v.86a2.92,2.92,0,0,1-.42,1.49l-.59,1a.19.19,0,0,0,0,.18.18.18,0,0,0,.15.08h6.51a.18.18,0,0,0,.15-.08A.17.17,0,0,0,183.07,20.73Z"/>
  <path class="cls-3" d="M178.6,21.33a1.18,1.18,0,0,0,2.15,0Z"/>
</svg>
