<svg xmlns="http://www.w3.org/2000/svg" viewBox="0 0 200 150">
  <defs>
    <style>.cls-1{fill:#efefef;}.cls-2{fill:#fff;}.cls-3{fill:#53555f;}.cls-4{fill:#bdc1c6;}</style>
  </defs>
  <title>product</title>
  <rect class="cls-2" x="77.08" y="33.99" width="110.42" height="40.57"/>
  <path class="cls-3" d="M187.5,75.06H77.08a.5.5,0,0,1-.5-.5V34a.5.5,0,0,1,.5-.5H187.5a.5.5,0,0,1,.5.5V74.56A.5.5,0,0,1,187.5,75.06Zm-109.92-1H187V34.49H77.58Z"/>
  <rect class="cls-2" x="77.08" y="81.8" width="9.61" height="9.61"/>
  <path class="cls-3" d="M86.69,91.91H77.08a.5.5,0,0,1-.5-.5V81.8a.51.51,0,0,1,.5-.5h9.61a.5.5,0,0,1,.5.5v9.61A.5.5,0,0,1,86.69,91.91Zm-9.11-1h8.61V82.3H77.58Z"/>
  <rect class="cls-2" x="92.97" y="81.8" width="9.61" height="9.61"/>
  <path class="cls-3" d="M102.58,91.91H93a.5.5,0,0,1-.5-.5V81.8a.5.5,0,0,1,.5-.5h9.61a.5.5,0,0,1,.5.5v9.61A.5.5,0,0,1,102.58,91.91Zm-9.11-1h8.61V82.3H93.47Z"/>
  <rect class="cls-2" x="108.85" y="81.8" width="9.61" height="9.61"/>
  <path class="cls-3" d="M118.47,91.91h-9.62a.5.5,0,0,1-.5-.5V81.8a.51.51,0,0,1,.5-.5h9.62a.51.51,0,0,1,.5.5v9.61A.5.5,0,0,1,118.47,91.91Zm-9.12-1H118V82.3h-8.62Z"/>
  <rect class="cls-4" x="79.07" y="83.78" width="5.65" height="5.65"/>
  <rect class="cls-4" x="94.95" y="83.78" width="5.65" height="5.65"/>
  <rect class="cls-4" x="81.73" y="40.15" width="101.13" height="5.65"/>
  <rect class="cls-4" x="81.73" y="51.57" width="77.14" height="5.65"/>
  <rect class="cls-4" x="81.73" y="62.75" width="89.79" height="5.65"/>
  <rect class="cls-4" x="110.84" y="83.78" width="5.65" height="5.65"/>
  <rect class="cls-2" x="12.5" y="10.9" width="175" height="13.17"/>
  <path class="cls-3" d="M187.5,24.57H12.5a.5.5,0,0,1-.5-.5V10.9a.5.5,0,0,1,.5-.5h175a.5.5,0,0,1,.5.5V24.07A.5.5,0,0,1,187.5,24.57ZM13,23.57H187V11.4H13Z"/>
  <rect class="cls-2" x="12.5" y="33.99" width="57.43" height="57.43"/>
  <path class="cls-3" d="M69.93,91.91H12.5a.5.5,0,0,1-.5-.5V34a.5.5,0,0,1,.5-.5H69.93a.5.5,0,0,1,.5.5V91.41A.5.5,0,0,1,69.93,91.91ZM13,90.91H69.43V34.49H13Z"/>
  <rect class="cls-3" x="12.5" y="102.99" width="37.5" height="37.5"/>
  <rect class="cls-3" x="58.33" y="102.99" width="37.5" height="37.5"/>
  <rect class="cls-3" x="104.17" y="102.99" width="37.5" height="37.5"/>
  <rect class="cls-3" x="150" y="102.99" width="37.5" height="37.5"/>
  <rect class="cls-2" x="150" y="80.86" width="37.5" height="10.56"/>
  <path class="cls-3" d="M187.5,91.91H150a.5.5,0,0,1-.5-.5V80.86a.5.5,0,0,1,.5-.5h37.5a.5.5,0,0,1,.5.5V91.41A.5.5,0,0,1,187.5,91.91Zm-37-1H187V81.36H150.5Z"/>
  <path class="cls-4" d="M173.08,83.61h-5.27a.21.21,0,0,0-.22.29l.84,2.45a.35.35,0,0,0,.32.23h3.46a.35.35,0,0,0,.32-.23l.73-2.51A.17.17,0,0,0,173.08,83.61Z"/>
  <circle class="cls-4" cx="168.29" cy="89.4" r="0.79"/>
  <circle class="cls-4" cx="171.63" cy="89.41" r="0.79"/>
  <path class="cls-4" d="M172.57,87.39H168l-1.85-5.32h-1.43a.45.45,0,0,0,0,.9h.8l1.85,5.31h5.24a.45.45,0,1,0,0-.89Z"/>
  <path class="cls-4" d="M62.56,77c-1.82-2.07-12-5.61-13.15-6a.75.75,0,0,0-.47,0,11.87,11.87,0,0,1-3.57.7,5.55,5.55,0,0,1-3.46-1,8.23,8.23,0,0,1-2.23-3.34c-.72-1.65-1.48-3.29-2.22-4.88l-.76-1.61c-1.05-2.28-2-4.36-2.75-6.37a27.51,27.51,0,0,0-5.69-8.66,2.77,2.77,0,0,0-3.76-.19c-.29.24-.56.49-.84.74a13.75,13.75,0,0,0-3.56,4.94c-.87,2.25-.55,4.83-.27,7.12v.1c.27,2.15.44,4.36.59,6.31.18,2.46.33,5,.42,7.43l0,1.22c0,.85.08,1.71.09,2.55,0,.44,0,1.73,0,2.69v.9a.73.73,0,0,0,.73.73h2.89a.75.75,0,0,0,.72-.76c0-.59,0-8.8,0-12.25,0-.4,0-.75,0-1.07a11.29,11.29,0,0,1,.39-3.81A2.69,2.69,0,0,1,26.58,61a.35.35,0,0,1,.31,0c.59.19,1.12,1.1,1.47,1.7a21,21,0,0,1,1.39,3l.15.4c2.46,6.74,4.27,10.74,5.36,11.87a8.45,8.45,0,0,0,6,2.52h9.12c5.26-.07,11.68-.48,12.39-2.08A1.15,1.15,0,0,0,62.56,77Z"/>
  <path class="cls-3" d="M183.07,20.31l-.58-1a2.83,2.83,0,0,1-.42-1.5V17a2.39,2.39,0,0,0-1.71-2.29v-.62a.69.69,0,0,0-1.37,0v.62A2.39,2.39,0,0,0,177.28,17v.86a2.93,2.93,0,0,1-.42,1.5l-.59,1a.17.17,0,0,0,0,.17.16.16,0,0,0,.15.09h6.51a.16.16,0,0,0,.15-.09A.15.15,0,0,0,183.07,20.31Z"/>
  <path class="cls-3" d="M178.6,20.91a1.18,1.18,0,0,0,2.15,0Z"/>
</svg>
