<svg xmlns="http://www.w3.org/2000/svg" viewBox="0 0 200 150">
  <defs>
    <style>.cls-1{fill:#efefef;}.cls-2{fill:#fff;}.cls-3{fill:#53555f;}.cls-4{fill:#bdc1c6;}</style>
  </defs>
  <title>search</title>
  <rect class="cls-2" x="12.5" y="11.33" width="175" height="13.17"/>
  <path class="cls-3" d="M187.5,25H12.5a.5.5,0,0,1-.5-.5V11.33a.5.5,0,0,1,.5-.5h175a.5.5,0,0,1,.5.5V24.49A.5.5,0,0,1,187.5,25ZM13,24H187V11.83H13Z"/>
  <rect class="cls-2" x="12.5" y="40.73" width="101.92" height="14.34"/>
  <path class="cls-3" d="M114.42,55.57H12.5a.5.5,0,0,1-.5-.5V40.73a.5.5,0,0,1,.5-.5H114.42a.51.51,0,0,1,.5.5V55.07A.5.5,0,0,1,114.42,55.57ZM13,54.57H113.92V41.23H13Z"/>
  <rect class="cls-2" x="122.13" y="40.73" width="65.37" height="14.34"/>
  <path class="cls-3" d="M187.5,55.57H122.13a.5.5,0,0,1-.5-.5V40.73a.5.5,0,0,1,.5-.5H187.5a.5.5,0,0,1,.5.5V55.07A.5.5,0,0,1,187.5,55.57Zm-64.87-1H187V41.23H122.63Z"/>
  <rect class="cls-2" x="158.67" y="63.65" width="28.83" height="28.83"/>
  <path class="cls-3" d="M187.5,93H158.67a.5.5,0,0,1-.5-.5V63.65a.5.5,0,0,1,.5-.5H187.5a.5.5,0,0,1,.5.5V92.48A.5.5,0,0,1,187.5,93Zm-28.33-1H187V64.15H159.17Z"/>
  <rect class="cls-2" x="12.5" y="63.65" width="28.83" height="28.83"/>
  <path class="cls-3" d="M41.33,93H12.5a.5.5,0,0,1-.5-.5V63.65a.5.5,0,0,1,.5-.5H41.33a.5.5,0,0,1,.5.5V92.48A.5.5,0,0,1,41.33,93ZM13,92H40.83V64.15H13Z"/>
  <rect class="cls-2" x="49.04" y="63.65" width="28.83" height="28.83"/>
  <path class="cls-3" d="M77.87,93H49a.5.5,0,0,1-.5-.5V63.65a.51.51,0,0,1,.5-.5H77.87a.5.5,0,0,1,.5.5V92.48A.5.5,0,0,1,77.87,93ZM49.54,92H77.37V64.15H49.54Z"/>
  <rect class="cls-2" x="85.58" y="63.65" width="28.83" height="28.83"/>
  <path class="cls-3" d="M114.42,93H85.58a.5.5,0,0,1-.5-.5V63.65a.51.51,0,0,1,.5-.5h28.84a.51.51,0,0,1,.5.5V92.48A.5.5,0,0,1,114.42,93ZM86.08,92h27.84V64.15H86.08Z"/>
  <rect class="cls-2" x="122.13" y="63.65" width="28.83" height="28.83"/>
  <path class="cls-3" d="M151,93H122.13a.5.5,0,0,1-.5-.5V63.65a.5.5,0,0,1,.5-.5H151a.51.51,0,0,1,.5.5V92.48A.5.5,0,0,1,151,93Zm-28.33-1h27.83V64.15H122.63Z"/>
  <rect class="cls-3" x="12.5" y="103.41" width="37.5" height="37.5"/>
  <rect class="cls-3" x="58.33" y="103.41" width="37.5" height="37.5"/>
  <rect class="cls-3" x="104.17" y="103.41" width="37.5" height="37.5"/>
  <rect class="cls-3" x="150" y="103.41" width="37.5" height="37.5"/>
  <path class="cls-4" d="M36.67,84.62c-.83-.94-5.48-2.56-6-2.74a.26.26,0,0,0-.21,0,5.65,5.65,0,0,1-1.64.31,2.47,2.47,0,0,1-1.58-.46,3.8,3.8,0,0,1-1-1.53c-.33-.75-.68-1.5-1-2.23l-.35-.74c-.48-1-.89-2-1.25-2.9a12.43,12.43,0,0,0-2.61-4,1.25,1.25,0,0,0-1.71-.09c-.13.11-.26.22-.38.34a6.17,6.17,0,0,0-1.63,2.26,6.75,6.75,0,0,0-.13,3.25v.05c.12,1,.2,2,.27,2.88.08,1.13.15,2.27.19,3.39l0,.56c0,.39,0,.78.05,1.17v1.64a.33.33,0,0,0,.33.33h1.32a.34.34,0,0,0,.33-.34v-5.6c0-.19,0-.35,0-.49A5.22,5.22,0,0,1,19.83,78a1.19,1.19,0,0,1,.4-.7.16.16,0,0,1,.14,0c.27.09.51.5.67.78a9.6,9.6,0,0,1,.64,1.35l.06.19c1.13,3.08,2,4.9,2.46,5.42A3.85,3.85,0,0,0,27,86.15h4.17c2.4,0,5.33-.22,5.66-1A.53.53,0,0,0,36.67,84.62Z"/>
  <path class="cls-4" d="M107.68,43.47a4.5,4.5,0,1,0-.61,6.87.93.93,0,0,0,.25.48l2.56,2.55A.95.95,0,1,0,111.22,52l-2.55-2.56a.93.93,0,0,0-.48-.25A4.5,4.5,0,0,0,107.68,43.47Zm-.8,5.56a3.37,3.37,0,1,1,0-4.76A3.37,3.37,0,0,1,106.88,49Z"/>
  <path class="cls-4" d="M69.43,80.85c-1.59-.54-4.15.56-5.35,0-2.74-1.24-3.21-6.12-4.38-7.8-2.15-3.09-5.91-1.26-5.91-1.26-.73,3.56,0,5.21.79,5.93h0a18.9,18.9,0,0,1,.71,7H56a52.65,52.65,0,0,1,.52-6.43c1.81.1,2.23.74,3,2.74.88,2.24.58,2.87,3.33,3.62s10.67-.47,10.59-.88S72.13,81.78,69.43,80.85Z"/>
  <path class="cls-4" d="M106.65,80.83c-1.58-.54-4.14.56-5.34,0-.13-.06-.24-.13-.36-.2a7,7,0,0,1,1.36-2.15l-1.44-1.61a6.51,6.51,0,0,0-1.52,2c-1.13-2-1.6-4.67-2.42-5.84C94.78,70,91,71.79,91,71.79c-.73,3.56,0,5.21.79,5.93a18.9,18.9,0,0,1,.71,7h1.13l.86-6.33c1.17.26,1.57,1,2.23,2.64.88,2.24.58,2.87,3.33,3.62s9.3-.21,9.21-.62S109.35,81.76,106.65,80.83Z"/>
  <path class="cls-4" d="M143.07,79a.8.8,0,0,0-.21-.53.83.83,0,0,0-.57-.27l-1.63-.07a.82.82,0,0,0-.81.57,15.78,15.78,0,0,1-4.58-1.67l-.87-.46-5.88-3.27a.34.34,0,0,0-.4.06,5.18,5.18,0,0,0-1.27,4.54h0a5.29,5.29,0,0,0,.21.67c0,.3.25,2.15.32,2.89s.51,1.28,1.31,1.28h2a.32.32,0,0,0,.32-.33V79.62a15.54,15.54,0,0,1,4.68,2.4c.29.29,1.54.83,4.26.83a28.92,28.92,0,0,0,4.14-.33c1.54-.22,2.29-.65,2.31-1.31C146.38,80.21,144.53,79.37,143.07,79Zm-.66.34a.22.22,0,0,1-.06.12l0,0h-.08l-1.64-.07-.07,0a.18.18,0,0,1-.07-.08.15.15,0,0,1,0-.07h0v-.17h0V79a.16.16,0,0,1,.16-.15h0l1.64.07a.16.16,0,0,1,.11,0,.24.24,0,0,1,0,.12Z"/>
  <path class="cls-4" d="M183.52,83.27a.4.4,0,0,0-.18-.13.31.31,0,0,0-.19,0,38.39,38.39,0,0,1-7.7,1l2.36-4.17a.34.34,0,0,0-.08-.44l-1.21-1a.34.34,0,0,0-.29-.08.35.35,0,0,0-.24.17l-2.79,4.78A23.35,23.35,0,0,1,170.08,79l-.05-.08a13.07,13.07,0,0,0-1.59-1.76v-.89a10.53,10.53,0,0,0-.31-2.94,1.27,1.27,0,0,1,.23-1.07,1.05,1.05,0,0,1,.82-.43h2.47a.36.36,0,0,0,.36-.36V70a.36.36,0,0,0-.36-.36h-5.5a1.41,1.41,0,0,0-1.28,1.41v.17a1.34,1.34,0,0,0,.23.73,11,11,0,0,1,1.17,3.72,13,13,0,0,0-1.9-.9.89.89,0,0,1-.57-.88,4.74,4.74,0,0,1,.12-.89.36.36,0,0,0-.65-.27,5.51,5.51,0,0,0-.9,2.84,1.57,1.57,0,0,0,.63,1.28,8.4,8.4,0,0,1,1.87,5.25v4a.36.36,0,0,0,.35.36h1.43a.36.36,0,0,0,.36-.36V79.24A12.19,12.19,0,0,1,168.76,81c2.89,5.22,4.66,5.46,5,5.44h.32a38.53,38.53,0,0,0,8.68-1,1.3,1.3,0,0,0,.91-.84A1.41,1.41,0,0,0,183.52,83.27Z"/>
  <polygon class="cls-4" points="180.2 49.82 183.3 46.07 177.11 46.07 180.2 49.82"/>
  <path class="cls-3" d="M183.07,20.73l-.58-1a2.82,2.82,0,0,1-.42-1.49V17.4a2.4,2.4,0,0,0-1.71-2.3v-.61a.69.69,0,1,0-1.37,0v.61a2.4,2.4,0,0,0-1.71,2.3v.86a2.92,2.92,0,0,1-.42,1.49l-.59,1a.19.19,0,0,0,0,.18.18.18,0,0,0,.15.08h6.51a.18.18,0,0,0,.15-.08A.17.17,0,0,0,183.07,20.73Z"/>
  <path class="cls-3" d="M178.6,21.33a1.18,1.18,0,0,0,2.15,0Z"/>
</svg>
