<svg id="Layer_1" data-name="Layer 1" xmlns="http://www.w3.org/2000/svg" xmlns:xlink="http://www.w3.org/1999/xlink" viewBox="0 0 960 935.73"><defs><style>.cls-1{opacity:0.3;fill:url(#linear-gradient);}.cls-2,.cls-3{opacity:0.3;}.cls-2{fill:url(#linear-gradient-2);}.cls-3{fill:url(#linear-gradient-3);}</style><linearGradient id="linear-gradient" x1="480" y1="617.9" x2="480" y2="78.27" gradientUnits="userSpaceOnUse"><stop offset="0" stop-color="#fff" stop-opacity="0.15"/><stop offset="0.08" stop-color="#fff" stop-opacity="0.23"/><stop offset="0.54" stop-color="#fff" stop-opacity="0.64"/><stop offset="0.85" stop-color="#fff" stop-opacity="0.9"/><stop offset="1" stop-color="#fff"/></linearGradient><linearGradient id="linear-gradient-2" x1="480" y1="798.75" x2="480" y2="146.37" gradientUnits="userSpaceOnUse"><stop offset="0" stop-color="#fff" stop-opacity="0.15"/><stop offset="1" stop-color="#fff"/></linearGradient><linearGradient id="linear-gradient-3" x1="480" y1="336" x2="480" y2="1014" gradientUnits="userSpaceOnUse"><stop offset="0" stop-color="#fff" stop-opacity="0"/><stop offset="1" stop-color="#fff"/></linearGradient></defs><title>waves</title><path class="cls-1" d="M960,231c-90.59,29.57-196.53,1.52-300-26C417.33,140.45,291.42,20.16,0,111V612.63C153.22,536.56,250.2,507.81,415,559c170.28,52.9,411.77,90,545,22Z" transform="translate(0 -78.27)"/><path class="cls-2" d="M960,155.44c-16.06.2-32.72-.25-50-1.44-274.39-18.92-405.72-10.87-623,121C204,325.36,98.56,334.62,0,326.83V798.75c67.69-9.86,132.39-30.82,181.42-70.06,174.43-139.58,585.12-18.86,766.13-70.46q6.23-1.79,12.45-3.88Z" transform="translate(0 -78.27)"/><path class="cls-3" d="M960,337.61c-134.16-6.95-324,5.73-503.5,96.85C311.66,508,147.54,460.06,0,451.4V1014c167.39.8,309.65-24.73,462.6-114.7C652,787.89,833.53,808,960,849.75Z" transform="translate(0 -78.27)"/></svg>